<svg xmlns="http://www.w3.org/2000/svg" width="200" height="36" viewBox="0 0 200 36" fill="none"><path fill-rule="evenodd" clip-rule="evenodd" d="M190.8 2C192.7 2 194.4 2.7 195.6 4C196.8 5.2 197.5 6.9 197.5 8.7V18.6C197.5 20.5 196.8 22.1 195.6 23.4C194.4 24.5 192.9 25.2 191.2 25.3H167.8L162.3 28.8C162.033 28.9333 161.767 29 161.5 29C160.8 29 160.2 28.4 160.2 27.7V25.3C158.5 25.2 157 24.5 155.8 23.4C154.6 22.1 153.9 20.5 153.9 18.6V8.7C153.9 6.9 154.6 5.2 155.8 4C157.1 2.7 158.7 2 160.6 2H190.8ZM190.8 2.8H160.6C159 2.8 157.5 3.4 156.4 4.5C155.3 5.6 154.6 7.1 154.6 8.7V18.6C154.6 20.2 155.3 21.7 156.4 22.8C157.1 23.6 158.4 24.5 160.2 24.6H160.9V27.7C160.9 28 161.2 28.2 161.5 28.2C161.7 28.2 161.8 28.2 161.8 28.1H161.9L167.4 24.7L167.6 24.6H191.2C192.6 24.5 194 23.9 195 22.8C196.1 21.7 196.8 20.2 196.8 18.6V8.7C196.8 7.1 196.1 5.6 195 4.5C193.9 3.4 192.4 2.8 190.8 2.8ZM164.9 17.7C164.3 17.7 163.733 17.5667 163.2 17.3C162.733 17.1 162.3 16.8333 161.9 16.5C161.567 16.1 161.3 15.6667 161.1 15.2C160.9 14.6667 160.8 14.1 160.8 13.5C160.8 12.9 160.9 12.3667 161.1 11.9C161.3 11.3667 161.567 10.9 161.9 10.5C162.3 10.1667 162.733 9.9 163.2 9.7C163.733 9.5 164.3 9.4 164.9 9.4C165.567 9.4 166.2 9.5 166.8 9.7C167.4 9.9 167.9 10.3 168.3 10.9L166.9 12.3C166.633 11.9667 166.367 11.7333 166.1 11.6C165.767 11.4 165.4 11.3 165 11.3C164.667 11.3 164.4 11.3667 164.2 11.5C163.933 11.5667 163.7 11.7 163.5 11.9C163.3 12.1 163.167 12.3333 163.1 12.6C162.967 12.8667 162.9 13.1667 162.9 13.5C162.9 13.7667 162.967 14.0333 163.1 14.3C163.167 14.5667 163.3 14.8 163.5 15C163.7 15.2 163.933 15.3667 164.2 15.5C164.467 15.6333 164.733 15.7 165 15.7C165.467 15.7 165.833 15.6 166.1 15.4C166.433 15.2667 166.733 15.0333 167 14.7L168.4 16C167.533 17.1333 166.367 17.7 164.9 17.7ZM169.2 9.6H171.3V12.5H174.2V9.6H176.3V17.5H174.2V14.4H171.3V17.5H169.2V9.6ZM180 9.6H182.4L185.2 17.4H182.9L182.4 15.8H179.8L179.2 17.4H177.1L180 9.6ZM182 14.4L181.1 11.5L180.2 14.4H182ZM186.7 11.5H184.2V9.6H191.2V11.5H188.8V17.5H186.7V11.5ZM81.3 15.2C81.2333 15.2 81.2 15.2333 81.2 15.3C81.1333 15.3 81.1 15.3333 81.1 15.4C79.9667 17.4 78.8 19.4 77.6 21.4C77.6 21.4667 77.6 21.5 77.6 21.5C77.4 21.7 77.2333 21.6667 77.1 21.4C74.8333 17.4 72.5333 13.4 70.2 9.4C70.1333 9.26667 70.1667 9.16667 70.3 9.1C70.3 9.1 70.3333 9.1 70.4 9.1C77.8667 9.1 85.4 9.1 93 9.1C93.0667 9.23333 93.0667 9.36667 93 9.5C91.9333 11.3 90.9 13.1 89.9 14.9C89.8 15 89.6 15.1 89.4 15.1H81.6C81.4667 15.1 81.3667 15.1333 81.3 15.2ZM103.6 22.7C104 21.9 102.8 21.3 102.2 21C100.6 20.5 99.2 20.1 97.9 19C95.9 17.4 96.4 14 98.4 12.6C100.9 10.7 105.4 11.1 107.7 13.2C107.767 13.2667 107.767 13.3667 107.7 13.5L105.8 15.9C105.733 15.9667 105.667 15.9667 105.6 15.9C104.733 15.2333 103.767 14.8 102.7 14.6C102 14.5 101 14.9 100.9 15.7C100.8 16.4 101.5 16.8 102.2 17C104.5 17.7 107.3 18.3 107.9 21.1C108.7 24.5 105.8 26.7 102.8 26.9C100.2 27.1 97.7 26.6 95.8 24.9C95.7 24.8 95.7 24.7 95.8 24.7L98 22C98.0667 21.9333 98.1667 21.9333 98.3 22C99.2 22.8 100.3 23.4 101.5 23.5C102.3 23.5 103.2 23.4 103.6 22.7ZM109.1 15.7C110.367 13.1 112.5 11.6667 115.5 11.4C120.7 11.1 124.4 15.1 123.7 20.3C123.3 23.5 121.1 26 117.9 26.8C115.7 27.3 113.2 26.9 111.3 25.4C109.3 23.8667 108.333 21.7333 108.4 19C108.4 17.7333 108.633 16.6333 109.1 15.7ZM119.1 21.4C120.2 19.4 119.6 16.1 117.1 15.3C116.167 15.0333 115.333 15.1 114.6 15.5C112.6 16.5 112.1 18.8 112.8 20.8C113.7 23.7 117.6 24.1 119.1 21.4ZM37.2 21L40.3 26.6H36.1C36.0333 26.6 36 26.5667 36 26.5L33.6 21.6C33.5333 21.6 33.5 21.6 33.5 21.6H32.1C32.0333 21.6 32 21.6333 32 21.7V26.5C32 26.5667 31.9667 26.6 31.9 26.6H28.2C28.1333 26.6 28.1 26.5667 28.1 26.5V11.9C28.1 11.9 28.1333 11.9 28.2 11.9C31.7333 11.8333 34 11.8333 35 11.9C35.3333 11.9 35.8333 12 36.5 12.2C40.3 13.5 40.4 18.8 37.2 20.9C37.2 20.9 37.2 20.9333 37.2 21ZM32 15.1V18.4L32.1 18.5H33.9C34.8 18.5 35.6 17.7 35.6 16.7C35.6 15.7 34.8 15 33.9 15H32.1C32.0333 15 32 15.0333 32 15.1ZM7 21.4V26.6C7 26.6 6.96667 26.6 6.9 26.6H3.1C3.03333 26.6 3 26.6 3 26.6V11.9C3 11.8333 3.03333 11.8 3.1 11.8H13.3C13.3 11.8 13.3 11.8333 13.3 11.9V15.2C13.3 15.2667 13.3 15.3 13.3 15.3H7.1C7.03333 15.3 7 15.3333 7 15.4V18.1C7 18.1 7.03333 18.1 7.1 18.1H11.9C11.9 18.1 11.9 18.1333 11.9 18.2V21.3C11.9 21.3667 11.9 21.4 11.9 21.4H7.1C7 21.4 7 21.4 7 21.4ZM129.1 21.4V26.6C129.1 26.6 129.067 26.6 129 26.6H125.2C125.133 26.6 125.1 26.6 125.1 26.6V11.9C125.1 11.8333 125.133 11.8 125.2 11.8H135.3C135.367 11.8 135.4 11.8333 135.4 11.9V15.2C135.4 15.2667 135.367 15.3 135.3 15.3H129.1C129.1 15.3 129.1 15.3333 129.1 15.4V18.1H133.9C133.967 18.1 134 18.1333 134 18.2V21.3C134 21.3667 133.967 21.4 133.9 21.4H129.1ZM18.9 17.5H24.3V20.6C24.3 20.6667 24.3 20.7 24.3 20.7H18.9C18.9 20.7 18.9 20.7333 18.9 20.8V23.1C18.9 23.1667 18.9 23.2 18.9 23.2H25.9C25.9667 23.2 26 23.2 26 23.2V26.6C26 26.6 25.9667 26.6 25.9 26.6H15C14.9333 26.6 14.9 26.6 14.9 26.6V11.9C14.9 11.9 14.9333 11.9 15 11.9H25.5C25.5667 11.9 25.6 11.9 25.6 11.9V15.2C25.6 15.2667 25.5667 15.3 25.5 15.3H18.9V17.4V17.5ZM51 19.8V11.9C51 11.8333 51.0333 11.8 51.1 11.8H54.9C54.9 11.8 54.9333 11.8333 55 11.9V26.5C55 26.5667 54.9667 26.6 54.9 26.6H51.7C51.6333 26.6 51.6 26.5667 51.6 26.5L45.9 18.4C45.8333 18.2667 45.8 18.2667 45.8 18.4V26.5C45.8 26.5667 45.7667 26.6 45.7 26.6H42C41.9333 26.6 41.9 26.5667 41.9 26.5V11.9C41.9 11.8333 41.9333 11.8 42 11.8H45.4C45.4667 11.8 45.5333 11.8333 45.6 11.9L51 19.8C51 19.8667 51 19.8667 51 19.8ZM66.2 23.6H61.4L60.4 26.6H56.4C56.3333 26.6 56.3 26.5667 56.3 26.5L61.7 11.9C61.7 11.8333 61.7 11.8 61.7 11.8H66.2C66.2667 11.8 66.3 11.8333 66.3 11.9L71.4 26.5C71.4667 26.5667 71.4667 26.6 71.4 26.6H67.2L66.2 23.6ZM62.2 20.6H65.3C65.3667 20.6 65.4 20.6 65.4 20.6L63.9 15.6C63.8333 15.5333 63.8 15.5333 63.8 15.6L62.2 20.6ZM85.7 23C85.5667 23.0667 85.4667 23.1667 85.4 23.3C84.2667 25.3 83.1333 27.3 82 29.3C81.9 29.4 81.8 29.4 81.7 29.3C80.6333 27.5 79.5667 25.6667 78.5 23.8C78.3 23.5 78.5 23 78.8 22.6C79.8667 20.7333 80.9333 18.8667 82 17C82.1 16.9 82.3 16.8 82.5 16.8C84.8 16.8 87.1 16.8 89.5 16.8C89.7667 16.8 89.9667 16.9 90.1 17.1C91.1 18.9 92.1667 20.7333 93.3 22.6C93.3 22.7 93.3 22.8 93.2 22.8C93.2 22.8667 93.1667 22.9 93.1 22.9H86C85.9333 22.9 85.8333 22.9333 85.7 23ZM148.8 11.8C148.8 11.8667 148.8 11.9 148.8 11.9V15.2C148.8 15.2667 148.8 15.3 148.8 15.3H144.3C144.233 15.3 144.2 15.3333 144.2 15.4V26.6H140.3C140.3 26.6 140.267 26.6 140.2 26.6V15.3H136.4C136.4 15.3 136.4 15.2667 136.4 15.2V11.9C136.4 11.8333 136.4 11.8 136.4 11.8H148.8Z" fill="#60B55A"></path></svg>