<svg version="1.2" xmlns="http://www.w3.org/2000/svg" viewBox="0 0 500 500" width="500" height="500">
	<title>report-svg</title>
	<style>
		.s0 { fill: #f5f5f5 } 
		.s1 { fill: #e0e0e0 } 
		.s2 { fill: #000000 } 
		.s3 { fill: #263238 } 
		.s4 { fill: #37474f } 
		.s5 { opacity: .1;fill: #000000 } 
		.s6 { fill: #ffa8a7 } 
		.s7 { fill: #e6e6e6 } 
		.s8 { fill: #ebebeb } 
		.s9 { fill: #f28f8f } 
		.s10 { fill: #b16668 } 
		.s11 { fill: #60b55a } 
		.s12 { opacity: .2;fill: #000000 } 
		.s13 { opacity: .1;fill: #ffffff } 
		.s14 { opacity: .5;fill: #000000 } 
		.s15 { opacity: .3;fill: #000000 } 
		.s16 { fill: #ffffff } 
		.s17 { fill: #455a64 } 
		.s18 { opacity: .3;fill: #ffffff } 
		.s19 { opacity: .5;fill: #ffffff } 
		.s20 { opacity: .2;fill: #ffffff } 
		.s21 { fill: #fafafa } 
		.s22 { opacity: .7;fill: #000000 } 
		.s23 { fill: #f0f0f0 } 
		.s24 { opacity: .4;fill: #ffffff } 
		.s25 { opacity: .6;fill: #ffffff } 
	</style>
	<g id="freepik--Floor--inject-150">
		<path id="freepik--floor--inject-150" class="s0" d="m250 456.2c-132.3 0-239.2-61.7-239.2-138.1 0-76.4 106.9-138.1 239.2-138.1 132.3 0 239.2 61.7 239.2 138.1 0 76.4-106.9 138.1-239.2 138.1z"/>
	</g>
	<g id="freepik--Shadows--inject-150">
		<path id="freepik--Shadow--inject-150" class="s1" d="m446.9 281.1c-22.6-13-59.3-13-81.9 0-22.6 13.1-22.6 34.2 0 47.3 22.6 13 59.3 13 81.9 0 22.6-13.1 22.6-34.2 0-47.3z"/>
		<path id="freepik--shadow--inject-150" class="s1" d="m39.7 434.9l65.7 37.9q0.6 0.4 1.4 0.6 0.7 0.1 1.5 0.1 0.7 0 1.5-0.1 0.7-0.2 1.4-0.6l96.3-55.6c1.6-0.9 1.6-2.4 0-3.3l-65.7-37.9q-0.7-0.3-1.4-0.5-0.7-0.2-1.5-0.2-0.7 0-1.5 0.2-0.7 0.2-1.4 0.5l-96.3 55.6c-1.6 0.9-1.6 2.4 0 3.3z"/>
		<path id="freepik--shadow--inject-150" class="s1" d="m270.8 430.6l132.8-76.7c1.5-0.9 1.5-2.4 0-3.3l-175.4-101.2q-0.6-0.3-1.3-0.5-0.8-0.2-1.5-0.2-0.7 0-1.5 0.2-0.7 0.2-1.3 0.5l-132.8 76.6c-1.6 1-1.6 2.4 0 3.3l175.4 101.3q0.6 0.3 1.3 0.5 0.8 0.1 1.5 0.1 0.7 0 1.5-0.1 0.7-0.2 1.3-0.5z"/>
		<path id="freepik--shadow--inject-150" class="s1" d="m16.5 290.5l71-41q0.3-0.2 0.7-0.3 0.4-0.1 0.8-0.1 0.4 0 0.8 0.1 0.4 0.1 0.8 0.3l51.7 29.8c0.9 0.5 0.9 1.3 0 1.8l-70.9 41q-0.4 0.2-0.8 0.3-0.4 0.1-0.8 0.1-0.4 0-0.8-0.1-0.4-0.1-0.7-0.3l-51.8-29.8c-0.9-0.5-0.9-1.3 0-1.8z"/>
	</g>
	<g id="freepik--Character--inject-150">
		<g id="freepik--Chartacter--inject-150">
			<g id="freepik--Bottom--inject-150">
				<path class="s2" d="m389.7 300.6l-4.8-1.8 1.6-3.1 2.9 2.7 0.3 2.2z"/>
				<path class="s3" d="m394.8 292.3c0 0 0.1 3 0.1 4 0.1 1-4.2 3.9-5.2 4.3l-0.3-2.2q-0.3 0.4-0.7 0.8-0.3 0.5-0.6 0.9-0.3 0.5-0.6 0.9-0.3 0.5-0.5 1c-0.8 1.4-1.9 3.9-4.2 5.6-3.3 2.6-8.5 3.8-13.7 3.9-5.3 0.1-8.3-1.2-9.7-2.3-1.5-1.1-2-2.4-1.6-3.7 0.4-1.3 37-13.2 37-13.2z"/>
				<path class="s4" d="m380.9 281.7v-1.7c-1 0-1.1 2.5-2.6 4.7q-0.8 1.2-1.6 2.4-0.9 1.2-1.9 2.3-0.9 1.2-1.9 2.3-1 1-2.1 2c-5.4 4.7-10.2 7.5-12.7 9.6-3.2 2.8 2.3 7.4 10.9 7.1 4.3-0.2 11.9-2.1 14-4.5 2.2-2.4 3.6-6.2 5.3-8 1.7-1.7 5.4-3.5 6.5-5.6 0.6-1.2 0.3-3.9 0-6.3-0.3-2.1-0.3-5.4-1.6-5.2l-0.1 1.1c-0.5 1-1.7 2.5-5.1 3-1.7 0.2-6.9 0.3-7.1-3.2z"/>
				<path class="s5" d="m385.2 284.9c-1.6-0.1-3.4-0.7-4-2.1q0 0.4 0 0.9-0.1 0.4-0.2 0.9-0.2 0.4-0.4 0.8-0.3 0.4-0.6 0.7c-1.6 1.7-11.4 13.8-11.4 13.8 0 0 9.1-10 10.9-11.8 2.6-2.8 3.4-3.1 5.8-3.2z"/>
				<path class="s5" d="m383 288.2q0.1 0.1 0.2 0.2 0.2 0.1 0.3 0.1 0.2 0 0.3-0.1 0.2-0.2 0.2-0.3 0-0.1-0.1-0.2 0-0.1-0.1-0.2-0.1 0-0.2-0.1-0.1 0-0.2 0-0.1 0-0.2 0.1 0 0-0.1 0.1-0.1 0.1-0.1 0.2 0 0.1 0 0.2z"/>
				<path class="s5" d="m380.4 290.8c0.1 0.2 0.2 0.4 0.4 0.5 0.2 0.1 0.4 0 0.6-0.1 0.1-0.2 0.1-0.4 0-0.6-0.1-0.2-0.3-0.3-0.5-0.3q-0.1 0-0.2 0-0.1 0.1-0.1 0.2-0.1 0-0.1 0.1-0.1 0.1 0 0.2z"/>
				<path class="s5" d="m377.9 293.5q0 0.2 0.2 0.3 0.1 0.1 0.3 0 0.2 0 0.3-0.1 0.1-0.1 0.2-0.3 0-0.1-0.1-0.2 0-0.1-0.1-0.1-0.1-0.1-0.2-0.1-0.1-0.1-0.2 0-0.1 0-0.2 0-0.1 0.1-0.1 0.1-0.1 0.1-0.1 0.2 0 0.1 0 0.2z"/>
				<path class="s5" d="m375.3 296.2q0 0.1 0.1 0.2 0 0.1 0.1 0.1 0.1 0.1 0.2 0.1 0.1 0 0.2 0 0.1 0 0.2 0 0.1-0.1 0.1-0.1 0.1-0.1 0.1-0.2 0.1-0.1 0-0.2 0-0.2-0.2-0.3-0.1-0.1-0.3-0.1-0.2 0.1-0.3 0.2-0.1 0.1-0.2 0.3z"/>
				<path class="s5" d="m372.7 298.9c0 0.2 0.2 0.4 0.4 0.4 0.2 0.1 0.4 0 0.6-0.1 0.1-0.2 0.1-0.4 0-0.6-0.1-0.2-0.3-0.3-0.5-0.3q-0.1 0-0.2 0-0.1 0.1-0.2 0.2 0 0.1-0.1 0.1 0 0.1 0 0.3z"/>
				<path class="s3" d="m383.6 288.3q0 0 0 0 0 0 0 0 0.1 0 0.1 0 0 0 0-0.1 0 0 0 0 0.1-0.1 0.1-0.1 0 0-0.1-0.1 0 0 0 0-0.6-0.6-1.3-1-0.7-0.5-1.4-0.8-0.8-0.3-1.6-0.4-0.8-0.2-1.6-0.2-0.1 0-0.1 0.1-0.1 0-0.1 0.1 0 0.1 0.1 0.1 0 0.1 0.1 0.1 0.8 0 1.5 0.2 0.8 0.1 1.5 0.4 0.7 0.3 1.4 0.7 0.6 0.4 1.2 0.9 0 0.1 0 0.1 0 0 0.1 0 0 0 0 0 0 0 0.1 0z"/>
				<path class="s3" d="m381 291q0 0 0 0 0.1 0 0.1 0 0 0 0 0 0 0 0-0.1 0.1 0 0.1 0 0-0.1 0-0.1 0 0 0-0.1 0 0-0.1-0.1-0.6-0.5-1.3-0.9-0.6-0.5-1.4-0.8-0.7-0.3-1.5-0.5-0.8-0.1-1.7-0.1-0.1 0-0.1 0-0.1 0.1-0.1 0.2 0 0.1 0.1 0.1 0 0.1 0.1 0.1 0.8 0 1.6 0.2 0.7 0.1 1.4 0.4 0.7 0.3 1.4 0.7 0.6 0.4 1.2 0.9 0 0.1 0.1 0.1 0 0 0 0 0 0 0 0 0.1 0 0.1 0z"/>
				<path class="s3" d="m378.4 293.7q0 0 0 0 0.1 0 0.1-0.1 0 0 0 0 0 0 0.1 0 0 0 0-0.1 0 0 0 0 0-0.1 0-0.1 0-0.1 0-0.1-0.6-0.5-1.3-1-0.7-0.4-1.5-0.7-0.7-0.3-1.5-0.5-0.8-0.1-1.6-0.2-0.1 0.1-0.2 0.1 0 0.1 0 0.1 0 0.1 0 0.2 0.1 0 0.2 0.1 0.7 0 1.5 0.1 0.7 0.2 1.5 0.5 0.7 0.3 1.3 0.7 0.7 0.4 1.2 0.9 0 0 0.1 0 0 0 0 0 0 0.1 0.1 0.1 0 0 0 0z"/>
				<path class="s3" d="m375.8 296.3q0 0 0.1 0 0 0 0 0 0 0 0 0 0.1 0 0.1 0 0-0.1 0-0.1 0 0 0-0.1 0 0 0-0.1 0 0 0 0-0.6-0.6-1.3-1-0.7-0.5-1.5-0.8-0.7-0.3-1.5-0.4-0.8-0.2-1.6-0.2-0.1 0-0.1 0 0 0-0.1 0.1 0 0 0 0 0 0.1 0 0.1 0 0.1 0 0.1 0 0 0 0.1 0.1 0 0.1 0 0.1 0 0.1 0 0.8 0 1.5 0.2 0.8 0.1 1.5 0.4 0.7 0.3 1.4 0.7 0.6 0.4 1.2 1 0 0 0 0 0 0 0 0 0.1 0 0.1 0 0 0 0 0z"/>
				<path class="s3" d="m373.3 299q0 0 0 0 0 0 0 0 0 0 0.1 0 0 0 0-0.1 0 0 0 0 0.1-0.1 0.1-0.1 0 0-0.1-0.1 0 0 0 0-0.6-0.6-1.3-1-0.7-0.5-1.4-0.8-0.8-0.3-1.6-0.4-0.8-0.2-1.6-0.2 0 0-0.1 0 0 0 0 0.1-0.1 0-0.1 0 0 0.1 0 0.1 0 0 0 0.1 0 0 0.1 0 0 0.1 0 0.1 0.1 0 0.1 0 0.8 0 1.5 0.2 0.8 0.1 1.5 0.4 0.7 0.3 1.4 0.7 0.6 0.4 1.2 0.9 0 0.1 0 0.1 0 0 0.1 0 0 0 0 0 0 0 0.1 0z"/>
				<path class="s3" d="m428.8 315.8c0.7 4 1.6 6.5 3.3 8.7 1.8 2.2 4.9 2.5 7.2 2q1.5-0.2 2.7-0.9 1.3-0.6 2.4-1.6 1-1 1.7-2.2 0.8-1.2 1.1-2.6c0.8-2.8 0.3-5.9-0.7-9.6z"/>
				<path class="s4" d="m438.3 285.3c1.1 0 2.1 5.3 3.3 10.7 1.4 5.7 3.6 8.7 4.6 12.5 1.4 5.4 1.3 7.8-0.3 11.3-1.6 3.5-9.7 7.7-13.6 3.3-3.3-3.5-3.8-7.7-4.2-13.2q0-1.7-0.2-3.4-0.1-1.7-0.2-3.5-0.2-1.7-0.4-3.4-0.2-1.7-0.4-3.4c-0.7-4-1.4-8-0.5-8.5 0.2 0.6 0.3 1.3 0.5 1.9 0.1 0.6 0.4 2.6 1.1 2.6q0-0.2 0-0.4 0-0.2-0.1-0.4 0-0.2 0-0.4 0-0.2-0.1-0.4 0-0.1 0-0.3 0-0.2 0-0.3 0-0.2 0.1-0.4 0-0.1 0.1-0.3 0.1-0.1 0.3-0.2 0.1-0.2 0.3-0.2 0.1-0.1 0.3-0.2 0.2-0.1 0.3-0.1 0.4-0.1 0.9-0.2 0.4-0.2 0.8-0.3 0.4-0.1 0.8-0.2 0.5-0.1 0.9-0.2 0.2 0 0.4 0 0.2-0.1 0.5-0.1 0.2 0 0.4-0.1 0.2 0 0.4 0 0.4-0.1 0.8-0.1 0.3 0 0.7-0.1 0.4 0 0.8 0 0.3 0 0.7 0 0.1 0 0.2 0.1 0.1 0 0.2 0.1 0.1 0 0.2 0.1 0.1 0.1 0.1 0.2 0 0.1 0.1 0.1 0 0.1 0 0.2 0 0.1 0 0.1 0 0.1 0 0.2 0.1 0.1 0.1 0.3 0 0.1 0 0.2 0.1 0.2 0.1 0.3 0.1 0.2 0.1 0.3c0.1 0.1 0.2 0.3 0.4 0.3 0.1-0.1 0.1-0.2 0.1-0.4-0.1-0.6-0.2-1.1-0.3-1.9-0.1-0.3-0.2-0.8-0.2-1.1-0.1-0.4-0.1-0.7-0.1-1.1z"/>
				<path class="s5" d="m442.1 310.3q0 0.1 0 0.2 0 0.1-0.1 0.1 0 0.1-0.1 0.1 0 0.1-0.1 0.1-0.1 0-0.2 0 0 0-0.1-0.1-0.1 0-0.1-0.1-0.1 0-0.1-0.1 0-0.1 0-0.2 0 0 0.1-0.1 0-0.1 0.1-0.1 0-0.1 0.1-0.1 0.1 0 0.2 0 0.1 0 0.1 0.1 0.1 0 0.1 0.1 0.1 0.1 0.1 0.1z"/>
				<path class="s5" d="m441.3 306.6q0 0.1 0 0.2 0 0.1-0.1 0.1 0 0.1-0.1 0.1 0 0.1-0.1 0.1-0.1 0-0.2 0 0 0-0.1-0.1-0.1 0-0.1-0.1-0.1 0-0.1-0.1 0-0.1 0-0.2 0 0 0.1-0.1 0-0.1 0.1-0.1 0-0.1 0.1-0.1 0.1 0 0.2 0 0.1 0 0.1 0.1 0.1 0 0.1 0.1 0.1 0.1 0.1 0.1z"/>
				<path class="s5" d="m440.6 303.1q0 0.1 0 0.2-0.1 0.1-0.1 0.1-0.1 0.1-0.1 0.2-0.1 0-0.2 0 0 0-0.1 0-0.1 0-0.2 0 0-0.1-0.1-0.1 0-0.1-0.1-0.2 0-0.1 0.1-0.1 0-0.1 0-0.2 0.1-0.1 0.1-0.1 0.1 0 0.2-0.1 0 0 0.1 0 0.1 0.1 0.2 0.1 0 0 0.1 0.1 0 0.1 0 0.1z"/>
				<path class="s5" d="m439.8 299.7q0 0.2-0.1 0.3-0.1 0.1-0.2 0.2-0.2 0-0.3-0.1-0.1-0.1-0.2-0.2 0-0.1 0-0.2 0-0.1 0.1-0.1 0-0.1 0.1-0.1 0-0.1 0.1-0.1 0.1 0 0.2 0 0.1 0 0.1 0.1 0.1 0 0.1 0.1 0.1 0 0.1 0.1z"/>
				<path class="s5" d="m430.7 301.2q0 0.1 0 0.2 0 0 0 0.1-0.1 0.1-0.1 0.1-0.1 0.1-0.2 0.1-0.1 0-0.1 0-0.1 0-0.2-0.1 0 0-0.1-0.1 0 0-0.1-0.1 0-0.1 0-0.2 0.1-0.1 0.1-0.1 0-0.1 0.1-0.1 0.1-0.1 0.2-0.1 0 0 0.1 0 0.1 0 0.2 0.1 0 0 0.1 0.1 0 0 0 0.1z"/>
				<path class="s5" d="m431.5 304.7q0 0.1 0 0.1 0 0.1-0.1 0.2 0 0-0.1 0.1-0.1 0-0.1 0-0.1 0.1-0.2 0-0.1 0-0.1 0-0.1-0.1-0.1-0.1-0.1-0.1-0.1-0.2 0 0 0-0.1 0-0.1 0-0.2 0.1 0 0.2-0.1 0 0 0.1 0 0.1 0 0.2 0 0 0 0.1 0 0.1 0.1 0.1 0.1 0.1 0.1 0.1 0.2z"/>
				<path class="s5" d="m432.2 308.2q0.1 0.1 0 0.2-0.1 0.2-0.3 0.2-0.1 0-0.3 0-0.1-0.1-0.2-0.3 0-0.1 0-0.1 0.1-0.1 0.1-0.2 0.1 0 0.1-0.1 0.1 0 0.2 0 0-0.1 0.1 0 0.1 0 0.2 0 0 0.1 0.1 0.1 0 0.1 0 0.2z"/>
				<path class="s5" d="m433 311.9q0 0 0 0.1 0 0.1-0.1 0.2 0 0-0.1 0.1 0 0-0.1 0-0.1 0-0.2 0-0.1 0-0.1 0-0.1-0.1-0.1-0.1-0.1-0.1-0.1-0.2 0-0.1 0-0.1 0-0.1 0.1-0.2 0 0 0.1-0.1 0 0 0.1-0.1 0.1 0 0.2 0.1 0.1 0 0.1 0 0.1 0.1 0.1 0.1 0.1 0.1 0.1 0.2z"/>
				<path class="s5" d="m436.6 313.3l-6-25.8 1.5-0.2 4.5 26z"/>
				<path class="s3" d="m441.8 310.6h-0.1c-2.8-0.3-7.3 0.4-9 1.5q0 0-0.1 0-0.1 0-0.1-0.1-0.1-0.1-0.1-0.1 0.1-0.1 0.1-0.2c1.8-1 6.4-1.8 9.2-1.5q0.1 0 0.1 0 0 0.1 0.1 0.1 0 0 0 0.1 0 0 0 0 0 0.1 0 0.1 0 0 0 0-0.1 0.1-0.1 0.1 0 0-0.1 0z"/>
				<path class="s3" d="m441 306.9q0 0 0 0 0 0-0.1 0 0 0 0 0 0 0 0 0c-2.1-0.7-7 0.3-8.9 1.5q0 0-0.1 0 0 0-0.1 0 0 0 0 0-0.1 0-0.1-0.1 0 0 0 0 0-0.1 0-0.1 0-0.1 0-0.1 0 0 0.1 0c2-1.3 7-2.3 9.2-1.6q0.1 0.1 0.1 0.1 0 0 0 0 0.1 0.1 0.1 0.1 0 0.1 0 0.1-0.1 0-0.1 0 0 0.1 0 0.1 0 0-0.1 0 0 0 0 0z"/>
				<path class="s3" d="m440.2 303.4h-0.1c-2.1-0.7-7 0.3-8.9 1.5q0 0-0.1 0 0 0-0.1 0 0 0 0 0-0.1 0-0.1 0 0-0.1 0-0.1 0-0.1 0-0.1 0 0 0-0.1 0 0 0.1 0c2-1.3 7-2.3 9.2-1.5q0.1 0 0.1 0 0 0 0 0.1 0.1 0 0.1 0 0 0.1-0.1 0.1 0 0 0 0.1 0 0 0 0 0 0-0.1 0 0 0 0 0z"/>
				<path class="s3" d="m439.4 300q0 0 0 0 0 0 0 0 0 0 0 0 0 0-0.1 0c-2.1-0.7-7 0.3-8.9 1.5q0 0-0.1 0-0.1 0-0.2-0.1 0 0 0-0.1 0-0.1 0.1-0.1c2-1.3 7-2.3 9.3-1.6q0 0 0 0.1 0.1 0 0.1 0 0 0.1 0 0.1 0 0 0 0.1 0 0 0 0 0 0-0.1 0.1 0 0 0 0 0 0 0 0z"/>
				<path class="s3" d="m433.6 154.4c2.3 33.1 3.4 78.2 3.4 78.2 0.2 2.5 2.6 13.2 3.7 25.6 1.1 13.1 1.9 37.6 1.9 37.6 0 0-9.5 4.8-17.1 2.3 0 0-7.7-41.4-11.4-56.8-3.5-14.6-9-42.3-9-42.3l-4.3 27.3c0 0 0.4 9.4 0.1 16-0.4 7.6-5.9 44.4-5.9 44.4 0 0-10.4 5.8-18.2-0.2 0 0-0.8-50.9-0.9-60.1-0.2-18.1 2.4-53.2 3.4-76.5z"/>
				<path class="s2" d="m419.3 192.3q0.9 11.9 2.1 23.8 0.6 5.9 1.2 11.9l0.6 5.9 0.3 3c0.1 1 0.3 2 0.5 3 1.2 7.9 3.1 22.2 4.5 30 1.4 7.9 2.8 15.7 4.4 23.5q-1.4-11.8-3.2-23.6c-1.2-7.9-3-22.2-4.3-30-0.1-1-0.3-2-0.4-3l-0.4-3-0.7-5.9q-0.7-5.9-1.4-11.9-1.5-11.8-3.2-23.7z"/>
				<path class="s2" d="m381.6 189.7c-1 7.3-1.5 14.8-1.9 22.2-0.4 7.4-0.9 14.9-0.7 22.3 0.2 7.4 0.2 19.9 0.4 27.3 0.2 7.5 0.4 14.9 0.8 22.3q0.3-11.1 0.3-22.3c0-7.4 0.1-19.9 0-27.3v-5.6-1.4-1.3-2.8l0.3-11.2 0.3-11.1c0.1-3.7 0.3-7.4 0.5-11.1z"/>
				<path class="s2" d="m405.1 199l-3.1-18.2c0 0-9.2-1.4-13.9-5.6 0 0 3 5.5 11.7 7.8l3.1 16-2.1 27.2z"/>
			</g>
			<g id="freepik--Top--inject-150">
				<path class="s6" d="m361.6 117.8c0 0-13.4-10.5-17.8-13.4-4.5-2.9-3.8-6-5.2-9.4-1.5-3.2-3.8-4.7-5.6-7.6-1.8-3-2.3-4.9-3.8-3.4-1.4 1.6 0.4 5.7 0.6 6.6 0.1 0.5 0.7 1.4 0.9 2 0.1 0.6-0.3 1-2.2 0.3-3.7-1.4-9.7-8.2-11.2-9.6-1.5-1.4-2.3 0.8-1.9 2.5 0.4 1.7-1.2 5.7-0.6 8.5 0.7 3 1.2 4.4 4.1 7.3q1.5 1.3 2.9 2.5 1.5 1.3 3 2.5 1.5 1.2 3 2.3 1.6 1.1 3.2 2.2c5 3 6.8 5 15.1 14.6 6.3 7.2 10.9 14.3 17.3 10.7z"/>
				<path class="s7" d="m393.8 87.5q-1.1 0-2.2 0.1-1.2 0.2-2.2 0.5-1.1 0.4-2.1 0.9-1.1 0.5-2 1.1c-1.7 1-3 2.3-6.6 6.2-3.6 3.9-18.5 21.4-18.5 21.4 0 0 1.5 6.9 1.7 20 3.3 0.5 6.5-2.8 10.8-6.3 8-6.7 18-17.6 26.2-26.8z"/>
				<path class="s8" d="m361.4 116c-1.1 0.1-1.6-0.7-2.3-0.2 0 0 1.2 3.4-0.6 9.5-1.8 6.2-6.2 7.5-6.2 7.5l-1.2-1.2c0 0-0.8 1 1 3.2 1.9 2.3 3.6 4 7 4.2 3.5 0.2 6.8-1.7 6.9-3.3 0.1-1.5 1.6-8-0.5-14.7-1.3-3.8-2.8-5.1-4-5z"/>
				<path class="s1" d="m360.9 116.3c3.1 4 3 11.7 1.4 17.4 2.1-4.2 3.8-12.5-1.4-17.4z"/>
				<path class="s1" d="m361.9 125.4c0.1 5-1.8 8.6-6.9 9.9 3.6-1.8 5.9-5.1 6.9-9.9z"/>
				<g id="freepik--Chest--inject-150">
					<path class="s0" d="m435.2 91.8c0 0 5.9 5 2.9 17.2q-0.7 2.9-1.3 5.9-0.6 3-1.1 6-0.5 3-0.9 6-0.4 3-0.7 6.1c-0.5 6.4-0.1 28-0.1 28-9.8 11.4-50.2 8-55.1-2.6 0 0-0.1-40.9 3.7-55.4 2.2-8.2 5.2-12.9 8.3-15.2l13.8-3.1h12.5z"/>
				</g>
				<g id="freepik--Head--inject-150">
					<path class="s4" d="m420.8 48.7c0 0 2.7 0 4.7 3.4 1 1.6 1.8 4.7-0.2 13.8q-0.3 1.3-0.7 2.6-0.4 1.3-0.8 2.6-0.5 1.3-1.1 2.5-0.5 1.2-1.2 2.4-0.2 0.4-0.5 0.7-0.2 0.4-0.5 0.6-0.4 0.3-0.7 0.5-0.4 0.2-0.8 0.4l-0.2-6.9v-4.8c0 0-3.3-4-3.8-7.5-0.6-4.4 0.2-6.2 0.2-6.2z"/>
					<path class="s4" d="m421.7 48.9c-0.8-3.9-6-8.2-15.5-8.2-7.7 0-12.1 2.9-14.6 7.5-2.4 4.7-0.3 10.4-0.3 10.4l24.2-2.8z"/>
					<path class="s6" d="m425.3 73c-2.7 1.5-5.3-0.8-5.3-0.8l0.2 13.3c0 0-0.1 2.8-4.4 5.4-6 3.7-8.6 4.7-11.1 8.5-2.3-6-4.7-9.3-1-14.2l-0.1-2.4q-0.5 0.1-1.1 0.1-0.5 0.1-1.1 0.1-0.5 0-1 0-0.6 0-1.1-0.1c-3.2-0.3-5.3-2.7-6.4-6.1-1.7-5-2.6-13-1.2-21.7q0.1-0.6 0.3-1.2 0.2-0.6 0.5-1.2 0.3-0.6 0.7-1.1 0.4-0.4 0.9-0.9c6-5.1 13.2-2 18.5-0.2q0.9 0.3 1.7 0.4 0.8 0.1 1.7 0 0.8 0 1.7-0.2 0.8-0.2 1.6-0.6c-1.8 2.2-2.5 4.2-2.1 14q0.1 0.2 0.3 0.4 0.2 0.3 0.3 0.5 0.2 0.2 0.4 0.4 0.2 0.2 0.4 0.4c1.3 0.9 2-1.7 3-2.8q0.7-0.6 1.6-0.9 0.9-0.3 1.8-0.1 0.9 0.2 1.7 0.7 0.7 0.6 1.1 1.4 0.7 1.1 0.8 2.4 0.2 1.3-0.2 2.6-0.4 1.2-1.2 2.3-0.8 1-2 1.6z"/>
					<path class="s4" d="m407.3 58.3l3.6 1.3q0.1-0.3 0.1-0.7-0.1-0.4-0.2-0.8-0.2-0.3-0.5-0.6-0.3-0.2-0.6-0.4-0.4-0.1-0.7-0.1-0.4 0-0.8 0.2-0.3 0.1-0.5 0.4-0.3 0.3-0.4 0.7z"/>
					<path class="s4" d="m394.1 59.2l3.6-1.3q-0.1-0.4-0.4-0.7-0.2-0.2-0.5-0.4-0.4-0.2-0.7-0.2-0.4 0-0.8 0.1-0.3 0.1-0.6 0.4-0.3 0.2-0.5 0.6-0.2 0.3-0.2 0.7 0 0.4 0.1 0.8z"/>
					<path class="s3" d="m409.5 62c0 0.6-0.4 1.2-1 1.4-0.5 0.3-1.2 0.2-1.7-0.3-0.4-0.4-0.5-1.1-0.3-1.7 0.2-0.5 0.8-0.9 1.4-0.9q0.3 0 0.6 0.1 0.3 0.1 0.5 0.3 0.2 0.2 0.4 0.5 0.1 0.3 0.1 0.6z"/>
					<path class="s3" d="m398 62c0 0.6-0.4 1.2-0.9 1.4-0.6 0.3-1.3 0.2-1.7-0.3-0.5-0.4-0.6-1.1-0.4-1.6 0.2-0.6 0.8-1 1.4-1q0.3-0.1 0.6 0 0.3 0.1 0.6 0.4 0.2 0.2 0.3 0.5 0.1 0.3 0.1 0.6z"/>
					<path class="s9" d="m403.6 58.8l-0.7 9.9-5.3-1.6q0.5-1.2 1.1-2.3 0.7-1.1 1.4-2.2 0.8-1 1.7-2 0.9-0.9 1.8-1.8z"/>
					<path class="s4" d="m417.2 63.2c-0.3 6.8-2.6 7.2-5 7.6-3.1 0.6-4.7-1.1-10.4-1.1-3.4 0-4.5 1-6.5 1.8-1.4 0.6-2.6 0.4-3.2-0.9q-0.3-0.9-0.5-1.8-0.2-0.9-0.3-1.8-0.2-0.9-0.2-1.8-0.1-1-0.1-1.9-0.1 1.4-0.1 2.8-0.1 1.4 0 2.8 0 1.3 0.1 2.7 0.1 1.4 0.3 2.8c0.5 3.1 1.6 5.9 3.4 7.3 2.4 2.1 7.5 2.9 13.8 1.5 6.4-1.4 8.8-4 9.5-6.3 2.5-7.2 1.5-10.7 2.4-12.1 0.8-1.3-3.2-1.6-3.2-1.6z"/>
					<path class="s6" d="m402.6 71.7c3.2-0.1 4.3 0.5 4.4 2.7 0.2 3.2 0.1 4.3-1.1 4.4-1.5 0.2-2.5 0.3-2.6-0.6q0-0.2 0-0.5 0-0.2 0-0.5 0-0.2 0.1-0.5 0-0.2 0.1-0.5c0.5-0.6 0.4-0.7-1.1-0.7-1.4 0.1-1.4 0.3-1 0.8 0.4 0.4 0.3 1.4 0.3 2 0 0.6-0.1 1-2.2 0.7-1.8-0.1-1.5-1.6-1.4-4.3 0-1.8 0.8-3 4.4-3z"/>
					<path class="s10" d="m405.6 72.2l-5.3 0.7q0.1 0.5 0.3 1 0.3 0.5 0.7 0.8 0.4 0.3 0.9 0.5 0.6 0.1 1.1 0.1 0.5-0.1 1-0.4 0.4-0.3 0.8-0.7 0.3-0.4 0.4-1 0.2-0.5 0.1-1z"/>
					<path class="s9" d="m404.9 73q0.1 0 0.2 0 0.1 0 0.2 0 0 0 0.1 0 0.1 0 0.2 0-0.1 0.4-0.3 0.8-0.2 0.4-0.5 0.7-0.3 0.3-0.7 0.5-0.4 0.2-0.8 0.2-0.1 0.1-0.2 0.1-0.1 0-0.2 0-0.2 0-0.3 0-0.1 0-0.2-0.1 0.1-0.4 0.3-0.8 0.2-0.5 0.5-0.8 0.4-0.3 0.8-0.5 0.5-0.1 0.9-0.1z"/>
				</g>
				<g id="freepik--Tie--inject-150">
					<path class="s11" d="m402.2 98.8c0 0-2.3-4.4-2.3-6.2l2.8-2.8 0.9 7.2z"/>
					<path class="s12" d="m402.2 98.8c0 0-2.3-4.4-2.3-6.2l2.8-2.8 0.9 7.2z"/>
					<path class="s11" d="m406.1 97.3l4.8-3.2 4 2.7-7.4 3.7-1.5-3.2z"/>
					<path class="s12" d="m406.1 97.3l4.8-3.2 4 2.7-7.4 3.7-1.5-3.2z"/>
					<path class="s11" d="m408.1 142c-2.4-13.8-2.7-35.3-2.4-39.1l-2.6-0.3c-1.9 4.6-7.4 26.6-7.3 37.3-0.2 3.7 4.6 13.8 7.1 13.9 2.5 0.1 5.6-9.5 5.2-11.8z"/>
					<path class="s13" d="m408.1 142c-2.4-13.8-2.7-35.3-2.4-39.1l-2.6-0.3c-1.9 4.6-7.4 26.6-7.3 37.3-0.2 3.7 4.6 13.8 7.1 13.9 2.5 0.1 5.6-9.5 5.2-11.8z"/>
					<path class="s14" d="m402.9 103.2c0.1-0.2 0.1-0.4 0.2-0.5l2.6 0.2c0 0.3 0 0.7 0 1.2q-0.4 0-0.7-0.1-0.4 0-0.8-0.1-0.3-0.1-0.7-0.3-0.3-0.2-0.6-0.4z"/>
					<path class="s11" d="m406.1 97q-0.3 0-0.6-0.1-0.3 0-0.6 0-0.3 0-0.6 0-0.4 0-0.7 0-0.2 0.2-0.4 0.4-0.2 0.3-0.4 0.5-0.2 0.3-0.3 0.5-0.2 0.3-0.3 0.6 0 0.5 0.1 1 0 0.5 0.1 0.9 0.1 0.5 0.3 1 0.2 0.4 0.4 0.9 0.3 0.2 0.6 0.3 0.3 0.1 0.7 0.1 0.3 0 0.7 0 0.3 0 0.6-0.1 0.3-0.3 0.6-0.6 0.3-0.2 0.6-0.6 0.2-0.3 0.4-0.6 0.2-0.4 0.3-0.8 0-0.5-0.1-0.9-0.1-0.5-0.3-0.9-0.2-0.5-0.5-0.9-0.2-0.4-0.6-0.7z"/>
					<path class="s13" d="m406.1 97q-0.3 0-0.6-0.1-0.3 0-0.6 0-0.3 0-0.6 0-0.4 0-0.7 0-0.2 0.2-0.4 0.4-0.2 0.3-0.4 0.5-0.2 0.3-0.3 0.5-0.2 0.3-0.3 0.6 0 0.5 0.1 1 0 0.5 0.1 0.9 0.1 0.5 0.3 1 0.2 0.4 0.4 0.9 0.3 0.2 0.6 0.3 0.3 0.1 0.7 0.1 0.3 0 0.7 0 0.3 0 0.6-0.1 0.3-0.3 0.6-0.6 0.3-0.2 0.6-0.6 0.2-0.3 0.4-0.6 0.2-0.4 0.3-0.8 0-0.5-0.1-0.9-0.1-0.5-0.3-0.9-0.2-0.5-0.5-0.9-0.2-0.4-0.6-0.7z"/>
					<path class="s7" d="m406.1 96.9c0 0 0.2 0.2 0.2 0.3 1.9-1 2.2-1.4 2.7-1.2 0.9 0.2 3.1 4.1 3.6 5.3 0.5 1.3 0.4 1.2 2.1 0.1q1.2-0.7 2.2-1.6 1-0.8 2-1.7 1-1 1.9-2 0.8-1 1.6-2.1 0.5-0.7 1-1.4 0.4-0.8 0.8-1.5 0.4-0.8 0.7-1.6 0.3-0.8 0.6-1.6c0.2-0.5-2-2.7-2.5-3.7-1.1-2-1.7-2.8-2.8-2.6v1.3c-0.2 1.7-2 3.3-4.4 5.4-2.4 2.1-6.3 4-7.2 5q-0.4 0.4-0.7 0.8-0.4 0.5-0.7 0.9-0.3 0.5-0.6 1-0.3 0.4-0.5 0.9z"/>
					<path class="s7" d="m397.4 98.4c0.2 0.7 2.4-4.8 3.5-4.7 0.6 0 1.8 1.6 2.7 3.1h0.8q-0.2-0.5-0.4-1-0.2-0.5-0.3-1-0.2-0.5-0.3-1.1-0.1-0.5-0.1-1-0.1-1 0-1.9 0-0.9 0.1-1.9 0-0.9 0.1-1.8 0.1-0.9 0.3-1.9l-0.2-1.3h-1q-0.1 0.2-0.2 0.3-0.2 0.2-0.3 0.3-0.1 0.2-0.2 0.4-0.1 0.1-0.2 0.3c-1.1 1.8-3.9 5-4.2 7.1q-0.2 0.7-0.3 1.5 0 0.8-0.1 1.5 0 0.8 0.1 1.6 0 0.7 0.2 1.5z"/>
				</g>
				<path class="s11" d="m349.9 117l43.4 11.7 15.5 49.5-0.8 1-41.4-11.9-17.6-49.2 0.9-1.1z"/>
				<path class="s15" d="m392.5 129.8l15.5 49.4 0.8-1-15.5-49.5-0.8 1.1z"/>
				<path class="s15" d="m349 118.1l43.5 11.7 15.5 49.4-41.4-11.9-17.6-49.2z"/>
				<g style="opacity: .1">
					<path class="s2" d="m362.5 127.5c0 0-0.2-0.8-0.4-1.7-0.3-0.9 2.2-0.6 5.6 0.7l7.8 1.7c3.4 1.3 6.5 2.2 6.8 3.1l0.5 1.7z"/>
				</g>
				<path class="s4" d="m359.4 120c-0.1-0.6 0.9-0.5 2.2-0.3l2.5 0.7c0 0-1.1-2.4 4.7-1.3 6.5 1.3 6.9 4.4 6.9 4.4q0.4 0.1 0.8 0.3 0.4 0.1 0.7 0.2 0.4 0.1 0.8 0.2 0.4 0.1 0.8 0.2c2.2 0.5 2.4 0.9 2.7 1.5l0.4 1-22.2-5.9c0 0-0.1-0.4-0.3-1z"/>
				<path class="s4" d="m362 123.1c2.1 0.7 2.9 1.1 3.3 2.5 0.5 1.6 0.6 2.3 0.6 2.3l11.6 3.6c0 0-0.8-2.4-1-3.2-0.2-0.8 1.3-0.9 3.3-0.1l-0.6-2-18-5.2z"/>
				<path class="s4" d="m362 127.5c0 0-0.2-0.7-0.5-1.6-0.3-1 2.3-0.6 5.6 0.6l7.9 1.8c3.3 1.2 6.5 2.1 6.8 3.1l0.5 1.6z"/>
				<path class="s6" d="m448.3 109.4c-2.1-13.1-5.9-15.2-13.3-16.7-6.6 10.4-2.5 25.8-2.5 25.8l4 21.4c-1.3 1-19.8 11.8-23 12.8-1.2 0.4-3.4 0-4.6-0.4-3.1-1-5.3-0.7-8.3-0.5l1.3 4.3c-4.8 1.7-9.9 1.6-15 1.7-0.5 0-1 0.1-1.2 0.5q-0.1 0.2-0.1 0.3 0 0.2 0.1 0.4 0 0.1 0.1 0.2 0.1 0.2 0.3 0.2 0.1 0.1 0.3 0.2 0.1 0.1 0.2 0.2 0.1 0.2 0.3 0.3 0.1 0.1 0.2 0.2c0.4 0.6 0.2 1.3 0.3 2q0.1 0.4 0.2 0.7 0.2 0.4 0.4 0.7 0.2 0.3 0.4 0.6 0.3 0.3 0.5 0.5 0.3 0.4 0.6 0.7 0.3 0.3 0.6 0.6 0.3 0.3 0.7 0.5 0.3 0.3 0.6 0.5c3.1 1.9 7.9 2.1 11.3 1.5q0.9-0.2 1.8-0.4 0.9-0.2 1.7-0.5 0.9-0.3 1.8-0.6 0.8-0.3 1.7-0.6c2.1-0.8 15-4.8 16.5-5.4 11.4-4.1 27.1-9.2 27.9-14.6 0.9-5.4-3.6-23.4-5.8-37.1z"/>
				<path class="s7" d="m435.2 91.8c8.6 3.5 9.9 3.9 12.2 10.6 2.3 6.4 7.2 35.5 6.9 43.2-5.1-4.3-12-5.7-17.8-5.7l-4.5-21.2c-1.3-5.8-4.5-17.9 3.2-26.9z"/>
				<path class="s8" d="m435.8 137.1c-0.5 0.3 0.3 1 0 2-0.3 1-1.5 1.5-1.2 2 0 0 6.9-0.8 11.4 2.7 4.6 3.5 4.4 7.1 4.4 7.1l-1 0.7c0 0 1.3 1.9 3.3-0.2 2.1-2.1 3-6.1 2.6-9.5-0.4-3.3 0-4.9-1.6-5.4-1.6-0.5-11.4-2.5-17.9 0.6z"/>
				<path class="s1" d="m435.7 139.4c1.8-1.2 9.5-2.1 13.9 1.2-2-2.5-7.3-4.5-13.8-2.2q0.1 0.1 0.1 0.2 0 0.1 0 0.2 0 0.1 0 0.2 0 0.1-0.1 0.1 0 0.1 0 0.1 0 0.1 0 0.1-0.1 0-0.1 0 0 0.1 0 0.1z"/>
				<path class="s1" d="m453.1 147.4c-1.1-3.3-5.4-6.5-9.5-7.3 5 0.6 8.7 2.5 9.5 7.3z"/>
			</g>
		</g>
	</g>
	<g id="freepik--Symbols--inject-150">
		<g id="freepik--question-marks--inject-150">
			<path class="s11" d="m348.8 47q0.3 0.1 0.7 0.1 0.4 0.1 0.7 0.2 0.4 0.1 0.7 0.2 0.4 0.2 0.7 0.3 0.4 0.2 0.7 0.3 0.3 0.2 0.6 0.4 0.3 0.2 0.6 0.4 0.2 0.2 0.5 0.5 0.2 0.2 0.5 0.5 0.2 0.2 0.4 0.5 0.2 0.3 0.3 0.6 0.2 0.3 0.3 0.6 0.1 0.4 0.2 0.7 0.1 0.4 0.2 0.8 0 0.3 0 0.7 0 0.3-0.1 0.7 0 0.3-0.1 0.6 0 0.3-0.1 0.5-0.1 0.3-0.2 0.6-0.1 0.2-0.3 0.5-0.1 0.2-0.3 0.4-0.1 0.2-0.3 0.4-0.1 0.2-0.3 0.4-0.2 0.2-0.3 0.4-0.2 0.1-0.4 0.3-0.2 0.2-0.4 0.3-0.2 0.2-0.4 0.3-0.2 0.1-0.4 0.3l-1.6 1q-0.1 0.1-0.3 0.2-0.2 0.1-0.3 0.2-0.2 0.2-0.4 0.3-0.1 0.1-0.3 0.3-0.1 0.1-0.2 0.2-0.2 0.2-0.3 0.3-0.1 0.2-0.1 0.4-0.1 0.1-0.2 0.3 0 0.1 0 0.2-0.1 0.1-0.1 0.1-0.1 0.1-0.1 0.2-0.1 0-0.1 0.1-0.1 0-0.2 0.1 0 0-0.1 0-0.1 0.1-0.2 0.1-0.1 0-0.1 0l-2.5-0.4q-0.1 0-0.2 0 0 0-0.1-0.1-0.1 0-0.2-0.1 0 0-0.1-0.1 0-0.1-0.1-0.1 0-0.1 0-0.2-0.1-0.1-0.1-0.2 0-0.1 0-0.1 0.1-0.3 0.2-0.6 0.1-0.3 0.2-0.6 0.1-0.2 0.2-0.5 0.1-0.2 0.3-0.5 0.1-0.2 0.3-0.4 0.1-0.2 0.3-0.4 0.2-0.2 0.4-0.4 0.1-0.2 0.3-0.3 0.2-0.2 0.4-0.4 0.2-0.1 0.4-0.3 0.2-0.1 0.4-0.3 0.2-0.1 0.4-0.2 0.9-0.5 1.6-1 0.2-0.1 0.3-0.2 0.2-0.2 0.3-0.3 0.2-0.1 0.3-0.2 0.2-0.2 0.3-0.3 0.1-0.1 0.2-0.3 0.1-0.1 0.2-0.3 0.1-0.1 0.1-0.3 0.1-0.1 0.1-0.3 0-0.3 0-0.6 0-0.3-0.1-0.6-0.1-0.3-0.3-0.5-0.1-0.3-0.4-0.5-0.2-0.2-0.5-0.4-0.3-0.2-0.7-0.4-0.3-0.1-0.7-0.2-0.3-0.1-0.7-0.1-0.6-0.1-1.3 0-0.6 0.1-1.2 0.4-0.6 0.3-1.1 0.8-0.5 0.4-0.8 1 0 0.1 0 0.1-0.1 0.1-0.1 0.2-0.1 0-0.2 0.1 0 0-0.1 0.1 0 0-0.1 0.1-0.1 0-0.2 0-0.1 0-0.1 0-0.1 0-0.2 0l-2.6-0.4q-0.1 0-0.1 0-0.1 0-0.2-0.1 0 0-0.1 0 0-0.1-0.1-0.1 0-0.1-0.1-0.2 0 0 0-0.1 0-0.1 0-0.1 0-0.1 0-0.2 0-0.3 0.1-0.6 0.1-0.3 0.2-0.5 0.2-0.3 0.3-0.6 0.2-0.2 0.4-0.5 0.2-0.3 0.4-0.5 0.3-0.3 0.5-0.5 0.3-0.3 0.6-0.5 0.2-0.2 0.5-0.4 0.4-0.2 0.7-0.4 0.3-0.1 0.7-0.3 0.4-0.1 0.7-0.3 0.4-0.1 0.8-0.2 0.4-0.1 0.8-0.1 0.4-0.1 0.8-0.1 0.4 0 0.8 0 0.4 0 0.8 0.1zm-1.1 18.5q0.1 0 0.2 0 0 0.1 0.1 0.1 0.1 0 0.2 0.1 0 0.1 0.1 0.1 0 0.1 0.1 0.2 0 0.1 0 0.1 0 0.1 0 0.2 0.1 0.1 0 0.2l-0.3 2.8q0 0.2-0.1 0.3-0.1 0.2-0.2 0.3-0.2 0.1-0.4 0.1-0.1 0.1-0.3 0l-2.8-0.3q-0.2-0.1-0.3-0.2-0.2 0-0.3-0.2-0.1-0.1-0.1-0.3-0.1-0.2 0-0.3l0.4-2.9q0-0.1 0-0.1 0-0.1 0.1-0.2 0-0.1 0.1-0.1 0-0.1 0.1-0.1 0.1-0.1 0.1-0.1 0.1-0.1 0.2-0.1 0.1 0 0.2 0 0.1 0 0.1 0z"/>
			<path class="s11" d="m364.6 79.3q0 0 0.1 0.1 0.1 0 0.1 0.1 0.1 0 0.1 0.1 0.1 0 0.1 0.1 0 0.1 0 0.1 0 0.1 0 0.2 0 0 0 0.1 0 0.1 0 0.1l-0.9 2.2q0 0.1-0.1 0.1 0 0.1 0 0.2-0.1 0-0.1 0-0.1 0.1-0.2 0.1 0 0-0.1 0.1-0.1 0-0.1 0-0.1 0-0.2 0-0.1-0.1-0.1-0.1l-2.1-0.8q-0.1 0-0.2-0.1 0 0-0.1 0 0-0.1-0.1-0.2 0 0 0-0.1-0.1 0-0.1-0.1 0-0.1 0-0.2 0 0 0-0.1 0-0.1 0.1-0.1l0.8-2.2q0.1-0.1 0.1-0.1 0-0.1 0.1-0.1 0-0.1 0.1-0.1 0.1-0.1 0.1-0.1 0.1 0 0.2 0 0-0.1 0.1-0.1 0.1 0 0.1 0.1 0.1 0 0.2 0zm4.6-14.4q0.3 0.1 0.5 0.2 0.3 0.1 0.6 0.3 0.3 0.1 0.5 0.3 0.3 0.2 0.5 0.4 0.2 0.2 0.5 0.4 0.2 0.2 0.4 0.4 0.2 0.2 0.3 0.4 0.2 0.3 0.4 0.5 0.1 0.2 0.3 0.5 0.1 0.3 0.2 0.5 0.1 0.3 0.1 0.6 0.1 0.2 0.1 0.5 0.1 0.3 0.1 0.6 0 0.3-0.1 0.6 0 0.3-0.1 0.6-0.1 0.3-0.2 0.6-0.1 0.2-0.2 0.4-0.1 0.2-0.2 0.4-0.1 0.2-0.3 0.4-0.1 0.2-0.3 0.4-0.1 0.1-0.3 0.2-0.2 0.2-0.3 0.3-0.2 0.1-0.4 0.2-0.1 0.1-0.3 0.3-0.2 0-0.4 0.1-0.2 0.1-0.3 0.2-0.2 0.1-0.4 0.2-0.2 0-0.4 0.1l-1.4 0.5q-0.2 0-0.3 0.1-0.2 0.1-0.4 0.1-0.1 0.1-0.3 0.2-0.1 0-0.3 0.1-0.1 0.1-0.2 0.2-0.2 0.1-0.3 0.2-0.1 0.1-0.2 0.2-0.1 0.1-0.1 0.3-0.1 0-0.1 0.1-0.1 0-0.1 0.1-0.1 0-0.1 0.1-0.1 0-0.1 0-0.1 0.1-0.2 0.1 0 0-0.1 0-0.1 0-0.1 0-0.1 0-0.2-0.1l-1.8-0.7q-0.1 0-0.2-0.1 0 0-0.1-0.1 0 0-0.1-0.1 0 0 0-0.1-0.1-0.1-0.1-0.1 0-0.1 0-0.2 0 0 0-0.1 0-0.1 0.1-0.1 0.1-0.3 0.2-0.5 0.1-0.2 0.2-0.4 0.2-0.2 0.3-0.3 0.2-0.2 0.3-0.4 0.2-0.1 0.4-0.3 0.1-0.1 0.3-0.2 0.2-0.2 0.4-0.3 0.1-0.1 0.3-0.2 0.2-0.1 0.4-0.2 0.2 0 0.4-0.1 0.2-0.1 0.3-0.2 0.2 0 0.4-0.1 0.8-0.2 1.5-0.5 0.1 0 0.3-0.1 0.1 0 0.3-0.1 0.1-0.1 0.3-0.2 0.1 0 0.2-0.1 0.1-0.1 0.3-0.2 0.1-0.1 0.1-0.2 0.1-0.1 0.2-0.2 0.1-0.1 0.1-0.2 0.1-0.3 0.2-0.5 0-0.2 0-0.5-0.1-0.2-0.1-0.5-0.1-0.2-0.2-0.4-0.2-0.2-0.4-0.5-0.2-0.2-0.5-0.3-0.2-0.2-0.5-0.3-0.2-0.2-0.5-0.3-0.5-0.2-1-0.2-0.6-0.1-1.1 0-0.5 0.2-1 0.4-0.5 0.3-0.8 0.7-0.1 0-0.1 0.1-0.1 0-0.1 0.1-0.1 0-0.1 0-0.1 0.1-0.2 0.1 0 0-0.1 0 0 0.1-0.1 0.1-0.1 0-0.1-0.1-0.1 0-0.2 0l-2-0.8q0 0-0.1-0.1 0 0-0.1 0 0-0.1 0-0.1-0.1 0-0.1-0.1 0-0.1 0-0.1 0-0.1 0-0.1 0-0.1 0-0.1 0-0.1 0-0.2 0.1-0.2 0.2-0.4 0.1-0.2 0.3-0.4 0.2-0.2 0.3-0.4 0.2-0.2 0.4-0.4 0.2-0.1 0.5-0.3 0.2-0.2 0.4-0.3 0.3-0.1 0.6-0.2 0.2-0.2 0.5-0.3 0.3 0 0.6-0.1 0.3-0.1 0.6-0.1 0.3-0.1 0.6-0.1 0.4 0 0.7-0.1 0.3 0 0.7 0.1 0.3 0 0.6 0.1 0.4 0 0.7 0.1 0.3 0.1 0.7 0.3z"/>
			<g style="opacity: .3">
				<path class="s16" d="m364.6 79.3q0 0 0.1 0.1 0.1 0 0.1 0.1 0.1 0 0.1 0.1 0.1 0 0.1 0.1 0 0.1 0 0.1 0 0.1 0 0.2 0 0 0 0.1 0 0.1 0 0.1l-0.9 2.2q0 0.1-0.1 0.1 0 0.1 0 0.2-0.1 0-0.1 0-0.1 0.1-0.2 0.1 0 0-0.1 0.1-0.1 0-0.1 0-0.1 0-0.2 0-0.1-0.1-0.1-0.1l-2.1-0.8q-0.1 0-0.2-0.1 0 0-0.1 0 0-0.1-0.1-0.2 0 0 0-0.1-0.1 0-0.1-0.1 0-0.1 0-0.2 0 0 0-0.1 0-0.1 0.1-0.1l0.8-2.2q0.1-0.1 0.1-0.1 0-0.1 0.1-0.1 0-0.1 0.1-0.1 0.1-0.1 0.1-0.1 0.1 0 0.2 0 0-0.1 0.1-0.1 0.1 0 0.1 0.1 0.1 0 0.2 0zm4.6-14.4q0.3 0.1 0.5 0.2 0.3 0.1 0.6 0.3 0.3 0.1 0.5 0.3 0.3 0.2 0.5 0.4 0.2 0.2 0.5 0.4 0.2 0.2 0.4 0.4 0.2 0.2 0.3 0.4 0.2 0.3 0.4 0.5 0.1 0.2 0.3 0.5 0.1 0.3 0.2 0.5 0.1 0.3 0.1 0.6 0.1 0.2 0.1 0.5 0.1 0.3 0.1 0.6 0 0.3-0.1 0.6 0 0.3-0.1 0.6-0.1 0.3-0.2 0.6-0.1 0.2-0.2 0.4-0.1 0.2-0.2 0.4-0.1 0.2-0.3 0.4-0.1 0.2-0.3 0.4-0.1 0.1-0.3 0.2-0.2 0.2-0.3 0.3-0.2 0.1-0.4 0.2-0.1 0.1-0.3 0.3-0.2 0-0.4 0.1-0.2 0.1-0.3 0.2-0.2 0.1-0.4 0.2-0.2 0-0.4 0.1l-1.4 0.5q-0.2 0-0.3 0.1-0.2 0.1-0.4 0.1-0.1 0.1-0.3 0.2-0.1 0-0.3 0.1-0.1 0.1-0.2 0.2-0.2 0.1-0.3 0.2-0.1 0.1-0.2 0.2-0.1 0.1-0.1 0.3-0.1 0-0.1 0.1-0.1 0-0.1 0.1-0.1 0-0.1 0.1-0.1 0-0.1 0-0.1 0.1-0.2 0.1 0 0-0.1 0-0.1 0-0.1 0-0.1 0-0.2-0.1l-1.8-0.7q-0.1 0-0.2-0.1 0 0-0.1-0.1 0 0-0.1-0.1 0 0 0-0.1-0.1-0.1-0.1-0.1 0-0.1 0-0.2 0 0 0-0.1 0-0.1 0.1-0.1 0.1-0.3 0.2-0.5 0.1-0.2 0.2-0.4 0.2-0.2 0.3-0.3 0.2-0.2 0.3-0.4 0.2-0.1 0.4-0.3 0.1-0.1 0.3-0.2 0.2-0.2 0.4-0.3 0.1-0.1 0.3-0.2 0.2-0.1 0.4-0.2 0.2 0 0.4-0.1 0.2-0.1 0.3-0.2 0.2 0 0.4-0.1 0.8-0.2 1.5-0.5 0.1 0 0.3-0.1 0.1 0 0.3-0.1 0.1-0.1 0.3-0.2 0.1 0 0.2-0.1 0.1-0.1 0.3-0.2 0.1-0.1 0.1-0.2 0.1-0.1 0.2-0.2 0.1-0.1 0.1-0.2 0.1-0.3 0.2-0.5 0-0.2 0-0.5-0.1-0.2-0.1-0.5-0.1-0.2-0.2-0.4-0.2-0.2-0.4-0.5-0.2-0.2-0.5-0.3-0.2-0.2-0.5-0.3-0.2-0.2-0.5-0.3-0.5-0.2-1-0.2-0.6-0.1-1.1 0-0.5 0.2-1 0.4-0.5 0.3-0.8 0.7-0.1 0-0.1 0.1-0.1 0-0.1 0.1-0.1 0-0.1 0-0.1 0.1-0.2 0.1 0 0-0.1 0 0 0.1-0.1 0.1-0.1 0-0.1-0.1-0.1 0-0.2 0l-2-0.8q0 0-0.1-0.1 0 0-0.1 0 0-0.1 0-0.1-0.1 0-0.1-0.1 0-0.1 0-0.1 0-0.1 0-0.1 0-0.1 0-0.1 0-0.1 0-0.2 0.1-0.2 0.2-0.4 0.1-0.2 0.3-0.4 0.2-0.2 0.3-0.4 0.2-0.2 0.4-0.4 0.2-0.1 0.5-0.3 0.2-0.2 0.4-0.3 0.3-0.1 0.6-0.2 0.2-0.2 0.5-0.3 0.3 0 0.6-0.1 0.3-0.1 0.6-0.1 0.3-0.1 0.6-0.1 0.4 0 0.7-0.1 0.3 0 0.7 0.1 0.3 0 0.6 0.1 0.4 0 0.7 0.1 0.3 0.1 0.7 0.3z"/>
			</g>
		</g>
	</g>
	<g id="freepik--Cabinet--inject-150">
		<g id="freepik--cabinet--inject-150">
			<g id="freepik--cabinet--inject-150">
				<path class="s3" d="m69.8 316.2l-44.8-25.9v-140.4l44.8 25.8v140.5z"/>
				<path class="s4" d="m69.8 175.7l64-36.9v140.4l-64 37v-140.5z"/>
				<path class="s17" d="m133.8 138.8l-64 36.9-44.8-25.9 64-36.9 44.8 25.9z"/>
				<path class="s3" d="m76.2 266.8l51.2-29.6v35.6l1.2 0.7-51.2 29.6-1.2-0.7v-35.6z"/>
				<path class="s17" d="m77.4 267.4l51.2-29.5v35.6l-51.2 29.6v-35.6z"/>
				<g style="opacity: .1">
					<path class="s2" d="m77.4 267.4l51.2-29.5v35.6l-51.2 29.6v-35.6z"/>
				</g>
				<path class="s3" d="m97.4 261.9l8.8-5c1.1-0.7 1.9-0.4 1.9 0.7q0 0.4-0.2 0.9-0.1 0.4-0.4 0.8-0.3 0.4-0.6 0.7-0.3 0.3-0.8 0.6l-8.7 5c-1.1 0.6-2 0.3-2-0.7q0.1-0.5 0.3-0.9 0.1-0.5 0.4-0.8 0.2-0.4 0.6-0.8 0.3-0.3 0.7-0.5z"/>
				<path class="s3" d="m76.2 223.8l51.2-29.6v35.6l1.2 0.7-51.2 29.6-1.2-0.7v-35.6z"/>
				<path class="s17" d="m77.4 224.5l51.2-29.6v35.6l-51.2 29.6v-35.6z"/>
				<g style="opacity: .1">
					<path class="s2" d="m77.4 224.5l51.2-29.6v35.6l-51.2 29.6v-35.6z"/>
				</g>
				<path class="s3" d="m97.4 218.9l8.8-5c1.1-0.7 1.9-0.4 1.9 0.7q0 0.4-0.2 0.9-0.1 0.4-0.4 0.8-0.3 0.4-0.6 0.7-0.3 0.3-0.8 0.6l-8.7 5c-1.1 0.6-2 0.3-2-0.7q0.1-0.5 0.3-0.9 0.1-0.4 0.4-0.8 0.2-0.4 0.6-0.7 0.3-0.4 0.7-0.6z"/>
				<path class="s3" d="m76.2 180.8l51.2-29.6v35.6l-51.2 29.6v-35.6z"/>
			</g>
			<g id="freepik--Drawer--inject-150">
				<path class="s4" d="m153 172l-28.4-16.4v31.4l28.4 16.4v-31.4z"/>
				<g style="opacity: .1">
					<path class="s2" d="m153 172l-28.4-16.4v31.4l28.4 16.4v-31.4z"/>
				</g>
				<path class="s17" d="m126.6 154.5l-2 1.1 28.4 16.4 2-1.1-28.4-16.4z"/>
				<path class="s11" d="m134.6 158q0-0.1 0-0.2 0-0.1-0.1-0.2 0 0-0.1-0.1 0-0.1-0.1-0.1h-0.1l-1.4-0.9q-0.1 0-0.2 0-0.1-0.1-0.2 0-0.1 0-0.1 0-0.1 0-0.2 0.1l-29 16.7-0.8-3.4q-0.1-0.1-0.1-0.2-0.1-0.1-0.1-0.1-0.1-0.1-0.1-0.2-0.1 0-0.2-0.1l-1.5-0.9q-0.1 0-0.2 0-0.1-0.1-0.2-0.1-0.2 0-0.3 0.1-0.1 0-0.2 0l-12.3 7.1q-0.2 0.1-0.4 0.3-0.1 0.2-0.3 0.4-0.1 0.3-0.2 0.5 0 0.3-0.1 0.5v41.1q0 0.1 0 0.2 0.1 0.1 0.1 0.2 0 0 0.1 0.1 0 0.1 0.1 0.1l1.6 0.9q0 0.1 0.1 0.1 0.1 0 0.2 0 0.1 0 0.2-0.1 0.1 0 0.1-0.1l45-26q0.3-0.1 0.4-0.3 0.2-0.2 0.3-0.4 0.2-0.2 0.3-0.5 0-0.2 0-0.5z"/>
				<path class="s11" d="m134.6 158v34.1q0 0.3-0.1 0.5-0.1 0.3-0.2 0.5-0.1 0.2-0.3 0.4-0.2 0.2-0.4 0.4l-45.1 26q-0.1 0-0.3 0-0.1 0-0.3-0.1-0.1 0-0.2-0.2-0.1-0.1-0.1-0.3v-41.2q0-0.1 0-0.2 0.1-0.2 0.1-0.3 0-0.1 0.1-0.2 0-0.1 0.1-0.3 0.1-0.1 0.1-0.2 0.1-0.1 0.2-0.2 0.1-0.1 0.2-0.2 0.1 0 0.2-0.1l12.4-7.1q0.1-0.1 0.2-0.1 0.1-0.1 0.2-0.1 0.2 0 0.3 0 0.1 0.1 0.2 0.1 0.1 0.1 0.1 0.1 0.1 0.1 0.2 0.2 0 0 0.1 0.1 0 0.1 0 0.2l0.9 3.4 0.1 0.3q0 0.2 0.2 0.4 0.1 0.2 0.3 0.3 0.2 0 0.4 0 0.3 0 0.4-0.1l29-16.7q0.1-0.1 0.2-0.1 0.1-0.1 0.1-0.1 0.1 0 0.2 0 0.1 0 0.2 0.1 0.1 0 0.1 0.1 0.1 0.1 0.1 0.2 0.1 0.1 0.1 0.2 0 0.1 0 0.2z"/>
				<path class="s5" d="m134.6 158v34.1q0 0.3-0.1 0.5-0.1 0.3-0.2 0.5-0.1 0.2-0.3 0.4-0.2 0.2-0.4 0.4l-45.1 26q-0.1 0-0.3 0-0.1 0-0.3-0.1-0.1 0-0.2-0.2-0.1-0.1-0.1-0.3v-41.2q0-0.1 0-0.2 0.1-0.2 0.1-0.3 0-0.1 0.1-0.2 0-0.1 0.1-0.3 0.1-0.1 0.1-0.2 0.1-0.1 0.2-0.2 0.1-0.1 0.2-0.2 0.1 0 0.2-0.1l12.4-7.1q0.1-0.1 0.2-0.1 0.1-0.1 0.2-0.1 0.2 0 0.3 0 0.1 0.1 0.2 0.1 0.1 0.1 0.1 0.1 0.1 0.1 0.2 0.2 0 0 0.1 0.1 0 0.1 0 0.2l0.9 3.4 0.1 0.3q0 0.2 0.2 0.4 0.1 0.2 0.3 0.3 0.2 0 0.4 0 0.3 0 0.4-0.1l29-16.7q0.1-0.1 0.2-0.1 0.1-0.1 0.1-0.1 0.1 0 0.2 0 0.1 0 0.2 0.1 0.1 0 0.1 0.1 0.1 0.1 0.1 0.2 0.1 0.1 0.1 0.2 0 0.1 0 0.2z"/>
				<path class="s15" d="m88 219.8l-1.5-0.9q-0.1 0-0.2-0.1 0-0.1-0.1-0.1 0-0.1 0-0.2 0-0.1 0-0.2v-41.1q0-0.1 0-0.2 0-0.2 0.1-0.3 0-0.1 0-0.2 0.1-0.2 0.2-0.3l1.5 0.9q-0.1 0.1-0.1 0.2-0.1 0.2-0.1 0.3-0.1 0.1-0.1 0.2 0 0.2 0 0.3v41.2q0 0.1 0 0.2 0 0.1 0.1 0.1 0 0.1 0.1 0.2 0 0 0.1 0z"/>
				<path class="s11" d="m139.4 160.8q0-0.1 0-0.2 0-0.1 0-0.2-0.1-0.1-0.1-0.1-0.1-0.1-0.2-0.2l-1.5-0.8q-0.1-0.1-0.2-0.1-0.1 0-0.2 0 0 0-0.1 0.1-0.1 0-0.2 0l-28.9 16.7-0.9-3.4q0-0.1 0-0.2-0.1 0-0.1-0.1-0.1-0.1-0.1-0.1-0.1-0.1-0.2-0.2l-1.5-0.8q-0.1-0.1-0.2-0.1-0.1-0.1-0.2-0.1-0.1 0-0.3 0.1-0.1 0-0.2 0.1l-12.3 7.1q-0.2 0.2-0.4 0.3-0.2 0.2-0.3 0.5-0.1 0.2-0.2 0.4-0.1 0.3-0.1 0.6v41q0 0.1 0 0.2 0 0.1 0.1 0.2 0 0 0 0.1 0.1 0.1 0.2 0.1l1.5 0.9q0.1 0.1 0.2 0.1 0.1 0 0.2 0 0.1 0 0.1-0.1 0.1 0 0.2 0l45-26q0.2-0.1 0.4-0.3 0.2-0.2 0.3-0.4 0.1-0.3 0.2-0.5 0.1-0.3 0.1-0.5z"/>
				<path class="s13" d="m106.7 172q-0.1-0.1-0.2-0.1-0.2 0-0.3 0-0.1 0-0.2 0-0.1 0.1-0.2 0.2l-12.3 7.1q-0.1 0-0.2 0.1-0.1 0.1-0.2 0.2-0.1 0.1-0.2 0.2-0.1 0.1-0.1 0.2l-1.5-0.9q0-0.1 0.1-0.2 0.1-0.1 0.2-0.2 0-0.1 0.1-0.2 0.2-0.1 0.3-0.1l12.3-7.1q0.1-0.1 0.2-0.1 0.1-0.1 0.2-0.1 0.2 0 0.3 0.1 0.1 0 0.2 0.1z"/>
				<path class="s13" d="m139.1 160.1q-0.1 0-0.2 0-0.1-0.1-0.2 0-0.1 0-0.1 0-0.1 0-0.2 0.1l-29 16.7q-0.2 0.1-0.4 0.1-0.2 0.1-0.4 0-0.2-0.1-0.3-0.3-0.2-0.1-0.2-0.3l-0.1-0.4 28.9-16.7q0.1 0 0.1 0 0.1-0.1 0.2-0.1 0 0 0.1 0 0 0 0.1 0 0 0 0.1 0 0 0 0 0 0.1 0 0.1 0 0 0 0 0z"/>
				<path class="s11" d="m139.4 160.8v34.1q0 0.2-0.1 0.5 0 0.2-0.2 0.5-0.1 0.2-0.3 0.4-0.2 0.2-0.4 0.3l-45.1 26q-0.1 0.1-0.3 0.1-0.1 0-0.3-0.1-0.1-0.1-0.2-0.2 0-0.1 0-0.3l-0.1-41.2q0.1-0.1 0.1-0.3 0-0.1 0-0.2 0.1-0.1 0.1-0.3 0.1-0.1 0.1-0.2 0.1-0.1 0.2-0.2 0.1-0.1 0.1-0.2 0.1-0.1 0.2-0.2 0.1-0.1 0.2-0.1l12.4-7.2q0.1 0 0.2-0.1 0.1 0 0.2 0 0.1 0 0.3 0 0.1 0.1 0.2 0.1 0 0.1 0.1 0.1 0.1 0.1 0.1 0.2 0.1 0.1 0.1 0.1 0.1 0.1 0.1 0.2l0.9 3.4 0.1 0.4q0.1 0.2 0.2 0.3 0.2 0.2 0.4 0.3 0.2 0.1 0.4 0 0.2 0 0.4-0.1l29-16.7q0-0.1 0.1-0.1 0.1 0 0.2 0 0.1-0.1 0.2 0 0 0 0.1 0 0.1 0 0.2 0.1 0 0.1 0.1 0.2 0 0.1 0 0.2 0 0.1 0 0.2z"/>
				<path class="s12" d="m92.8 222.7l-1.5-0.9q-0.1-0.1-0.1-0.2-0.1 0-0.1-0.1-0.1-0.1-0.1-0.2 0-0.1 0-0.2v-41.1q0-0.1 0-0.3 0.1-0.1 0.1-0.2 0-0.1 0.1-0.3 0-0.1 0.1-0.2l1.5 0.9q-0.1 0.1-0.1 0.2-0.1 0.1-0.1 0.3 0 0.1-0.1 0.2 0 0.1 0 0.3v41.2q0 0.1 0 0.1 0 0.1 0.1 0.2 0 0.1 0.1 0.2 0 0 0.1 0.1z"/>
				<path class="s11" d="m144.2 163.6q0-0.1 0-0.2 0-0.1 0-0.2-0.1-0.1-0.1-0.1-0.1-0.1-0.1-0.2h-0.1l-1.5-0.8q0 0-0.1-0.1-0.1 0-0.2 0-0.1 0-0.2 0.1-0.1 0-0.2 0.1l-28.9 16.7-0.8-3.4q-0.1-0.1-0.1-0.2-0.1-0.1-0.1-0.2-0.1 0-0.1-0.1-0.1-0.1-0.2-0.1l-1.5-0.9q-0.1-0.1-0.2-0.1-0.1 0-0.3 0-0.1 0-0.2 0-0.1 0-0.2 0.1l-12.3 7.1q-0.2 0.1-0.4 0.3-0.2 0.2-0.3 0.5-0.2 0.2-0.2 0.4-0.1 0.3-0.1 0.5v41.1q0 0.1 0 0.2 0 0.1 0 0.2 0.1 0 0.1 0.1 0.1 0.1 0.1 0.1l1.6 0.9q0.1 0.1 0.2 0.1 0.1 0 0.1 0 0.1 0 0.2-0.1 0.1 0 0.2 0l45-26q0.2-0.2 0.4-0.4 0.1-0.2 0.3-0.4 0.1-0.2 0.2-0.5 0.1-0.2 0.1-0.5z"/>
				<path class="s18" d="m111.5 174.8q-0.1 0-0.2 0-0.1-0.1-0.3-0.1-0.1 0-0.2 0.1-0.1 0-0.2 0l-12.3 7.2q-0.1 0.1-0.2 0.2-0.1 0-0.2 0.1-0.1 0.1-0.2 0.2-0.1 0.1-0.1 0.2l-1.5-0.8q0-0.1 0.1-0.3 0.1-0.1 0.2-0.2 0.1 0 0.2-0.1 0.1-0.1 0.2-0.2l12.3-7.1q0.1-0.1 0.2-0.1 0.1 0 0.3 0 0.1 0 0.2 0 0.1 0 0.2 0.1z"/>
				<path class="s18" d="m143.9 162.9q-0.1 0-0.2 0-0.1 0-0.2 0 0 0-0.1 0-0.1 0-0.2 0.1l-29 16.7q-0.1 0.1-0.4 0.2-0.2 0-0.4-0.1-0.2-0.1-0.3-0.2-0.2-0.2-0.2-0.4l-0.1-0.4 28.9-16.7q0.1 0 0.1 0 0.1-0.1 0.1-0.1 0.1 0 0.1 0 0.1 0 0.1 0 0.1 0 0.1 0 0.1 0 0.1 0 0 0 0 0 0.1 0 0.1 0.1z"/>
				<path class="s11" d="m144.2 163.6v34.1q0 0.2-0.1 0.5 0 0.2-0.2 0.5-0.1 0.2-0.3 0.4-0.2 0.2-0.4 0.3l-45 26q-0.2 0.1-0.3 0.1-0.2 0-0.3-0.1-0.2-0.1-0.3-0.2 0-0.1 0-0.3v-41.2q0-0.1 0-0.3 0-0.1 0-0.2 0.1-0.1 0.1-0.3 0.1-0.1 0.2-0.2 0-0.1 0.1-0.2 0.1-0.1 0.2-0.2 0.1-0.1 0.2-0.2 0.1-0.1 0.2-0.1l12.3-7.2q0.1 0 0.2 0 0.1-0.1 0.2-0.1 0.1 0 0.3 0.1 0.1 0 0.2 0 0.1 0.1 0.1 0.2 0.1 0 0.1 0.1 0.1 0.1 0.1 0.1 0.1 0.1 0.1 0.2l0.8 3.4 0.2 0.4q0 0.2 0.2 0.3 0.1 0.2 0.3 0.3 0.2 0.1 0.4 0.1 0.2-0.1 0.4-0.2l29-16.7q0.1-0.1 0.2-0.1 0 0 0.1 0 0.1-0.1 0.2 0 0.1 0 0.2 0 0 0 0.1 0.1 0.1 0.1 0.1 0.2 0.1 0.1 0.1 0.2 0 0.1 0 0.2z"/>
				<path class="s13" d="m144.2 163.6v34.1q0 0.2-0.1 0.5 0 0.2-0.2 0.5-0.1 0.2-0.3 0.4-0.2 0.2-0.4 0.3l-45 26q-0.2 0.1-0.3 0.1-0.2 0-0.3-0.1-0.2-0.1-0.3-0.2 0-0.1 0-0.3v-41.2q0-0.1 0-0.3 0-0.1 0-0.2 0.1-0.1 0.1-0.3 0.1-0.1 0.2-0.2 0-0.1 0.1-0.2 0.1-0.1 0.2-0.2 0.1-0.1 0.2-0.2 0.1-0.1 0.2-0.1l12.3-7.2q0.1 0 0.2 0 0.1-0.1 0.2-0.1 0.1 0 0.3 0.1 0.1 0 0.2 0 0.1 0.1 0.1 0.2 0.1 0 0.1 0.1 0.1 0.1 0.1 0.1 0.1 0.1 0.1 0.2l0.8 3.4 0.2 0.4q0 0.2 0.2 0.3 0.1 0.2 0.3 0.3 0.2 0.1 0.4 0.1 0.2-0.1 0.4-0.2l29-16.7q0.1-0.1 0.2-0.1 0 0 0.1 0 0.1-0.1 0.2 0 0.1 0 0.2 0 0 0 0.1 0.1 0.1 0.1 0.1 0.2 0.1 0.1 0.1 0.2 0 0.1 0 0.2z"/>
				<path class="s5" d="m97.7 225.5l-1.6-0.9q-0.1-0.1-0.1-0.1-0.1-0.1-0.1-0.2-0.1-0.1-0.1-0.2 0-0.1 0-0.2v-41q0-0.2 0.1-0.3 0-0.1 0-0.3 0-0.1 0.1-0.2 0.1-0.1 0.1-0.2l1.5 0.8q0 0.2-0.1 0.3-0.1 0.1-0.1 0.2 0 0.1 0 0.3-0.1 0.1-0.1 0.2v41.2q0 0.1 0 0.2 0.1 0.1 0.1 0.2 0.1 0 0.1 0.1 0.1 0 0.2 0.1z"/>
				<path class="s11" d="m149.1 166.4q0-0.1 0-0.2-0.1-0.1-0.1-0.2 0-0.1-0.1-0.1 0-0.1-0.1-0.2h-0.1l-1.4-0.8q-0.1 0-0.2 0-0.1-0.1-0.2 0-0.1 0-0.2 0-0.1 0-0.1 0.1l-29 16.7-0.8-3.4q-0.1-0.1-0.1-0.2 0-0.1-0.1-0.1 0-0.1-0.1-0.2-0.1 0-0.1-0.1l-1.5-0.8q-0.2-0.1-0.3-0.1-0.1-0.1-0.2-0.1-0.1 0-0.2 0.1-0.2 0-0.3 0.1l-12.3 7.1q-0.2 0.1-0.4 0.3-0.2 0.2-0.3 0.4-0.1 0.2-0.2 0.5-0.1 0.2-0.1 0.5v41.1q0 0.1 0 0.1 0 0.1 0.1 0.2 0 0.1 0.1 0.2 0 0 0.1 0.1l1.5 0.9q0.1 0 0.2 0 0.1 0.1 0.2 0 0.1 0 0.2 0 0 0 0.1-0.1l45-26q0.2-0.1 0.4-0.3 0.1-0.2 0.3-0.4 0.1-0.2 0.2-0.5 0.1-0.2 0.1-0.5z"/>
				<path class="s19" d="m116.3 177.7q-0.1-0.1-0.2-0.1-0.1-0.1-0.2-0.1-0.1 0-0.3 0.1-0.1 0-0.2 0.1l-12.3 7.1q-0.1 0-0.2 0.1-0.1 0.1-0.2 0.2-0.1 0.1-0.2 0.2 0 0.1-0.1 0.2l-1.5-0.9q0.1-0.1 0.1-0.2 0.1-0.1 0.2-0.2 0.1-0.1 0.2-0.2 0.1 0 0.2-0.1l12.3-7.1q0.1-0.1 0.2-0.1 0.2 0 0.3 0 0.1 0 0.2 0 0.1 0 0.2 0.1z"/>
				<path class="s19" d="m148.7 165.7q-0.1 0-0.2 0 0 0-0.1 0-0.1 0-0.2 0-0.1 0.1-0.1 0.1l-29 16.7q-0.2 0.1-0.4 0.2-0.3 0-0.5-0.1-0.2-0.1-0.3-0.2-0.1-0.2-0.2-0.4l-0.1-0.4 28.9-16.7q0.1 0 0.1 0 0.1 0 0.1-0.1 0.1 0 0.2 0 0 0 0.1 0 0 0 0 0 0.1 0 0.1 0 0 0 0.1 0 0 0 0 0.1z"/>
				<path class="s11" d="m149.1 166.4v34.1q-0.1 0.3-0.1 0.5-0.1 0.3-0.2 0.5-0.2 0.2-0.3 0.4-0.2 0.2-0.4 0.3l-45.1 26q-0.1 0.1-0.3 0.1-0.2 0-0.3-0.1-0.1-0.1-0.2-0.2-0.1-0.1-0.1-0.3v-41.2q0-0.1 0-0.2 0-0.2 0.1-0.3 0-0.1 0.1-0.2 0-0.1 0.1-0.3 0.1-0.1 0.1-0.2 0.1-0.1 0.2-0.2 0.1-0.1 0.2-0.2 0.1 0 0.2-0.1l12.3-7.1q0.1-0.1 0.2-0.1 0.2 0 0.3 0 0.1 0 0.2 0 0.1 0 0.2 0.1 0.1 0 0.2 0.1 0 0 0.1 0.1 0 0.1 0.1 0.2 0 0 0 0.1l0.9 3.4 0.1 0.4q0.1 0.2 0.2 0.4 0.1 0.1 0.3 0.2 0.2 0.1 0.5 0.1 0.2-0.1 0.4-0.2l29-16.7q0 0 0.1-0.1 0.1 0 0.2 0 0.1 0 0.1 0 0.1 0 0.2 0 0.1 0.1 0.2 0.1 0 0.1 0.1 0.2 0 0.1 0 0.2 0.1 0.1 0.1 0.2z"/>
				<path class="s18" d="m149.1 166.4v34.1q-0.1 0.3-0.1 0.5-0.1 0.3-0.2 0.5-0.2 0.2-0.3 0.4-0.2 0.2-0.4 0.3l-45.1 26q-0.1 0.1-0.3 0.1-0.2 0-0.3-0.1-0.1-0.1-0.2-0.2-0.1-0.1-0.1-0.3v-41.2q0-0.1 0-0.2 0-0.2 0.1-0.3 0-0.1 0.1-0.2 0-0.1 0.1-0.3 0.1-0.1 0.1-0.2 0.1-0.1 0.2-0.2 0.1-0.1 0.2-0.2 0.1 0 0.2-0.1l12.3-7.1q0.1-0.1 0.2-0.1 0.2 0 0.3 0 0.1 0 0.2 0 0.1 0 0.2 0.1 0.1 0 0.2 0.1 0 0 0.1 0.1 0 0.1 0.1 0.2 0 0 0 0.1l0.9 3.4 0.1 0.4q0.1 0.2 0.2 0.4 0.1 0.1 0.3 0.2 0.2 0.1 0.5 0.1 0.2-0.1 0.4-0.2l29-16.7q0 0 0.1-0.1 0.1 0 0.2 0 0.1 0 0.1 0 0.1 0 0.2 0 0.1 0.1 0.2 0.1 0 0.1 0.1 0.2 0 0.1 0 0.2 0.1 0.1 0.1 0.2z"/>
				<path class="s4" d="m105.8 199.3l-28.4-16.4-0.1 31.4 28.5 16.4v-31.4z"/>
				<path class="s17" d="m79.3 181.8l-2 1.1 28.5 16.4 2-1.1-28.5-16.4z"/>
				<path class="s17" d="m105.2 197.6l51.2-29.6v35.6l-51.2 29.6v-35.6z"/>
				<path class="s3" d="m125.3 192l8.7-5c1.1-0.7 2-0.3 2 0.7q-0.1 0.4-0.2 0.9-0.2 0.4-0.5 0.8-0.2 0.4-0.6 0.7-0.3 0.3-0.7 0.6l-8.7 5c-1.1 0.6-2 0.3-2-0.7q0-0.5 0.2-0.9 0.2-0.4 0.4-0.8 0.3-0.4 0.6-0.7 0.4-0.4 0.8-0.6z"/>
				<path class="s3" d="m105.2 197.6l-1.7-1v35.6l1.7 1v-35.6z"/>
				<path class="s4" d="m103.5 196.6l51.2-29.6 1.7 1-51.2 29.6-1.7-1z"/>
			</g>
		</g>
	</g>
	<g id="freepik--Files--inject-150">
		<g id="freepik--files--inject-150">
			<path class="s11" d="m390.7 351.4q0.2-0.1 0.5-0.3 0.2-0.2 0.4-0.4 0.2-0.2 0.3-0.5 0.1-0.3 0.1-0.6c0-0.7 0-2.8 0-2.8l-155.6-88.1q-0.7-0.4-1.5-0.6-0.8-0.1-1.7-0.1-0.8 0-1.6 0.1-0.8 0.2-1.5 0.6l-122.4 70.6 160.7 92.7z"/>
			<path class="s20" d="m390.7 351.4q0.2-0.1 0.5-0.3 0.2-0.2 0.4-0.4 0.2-0.2 0.3-0.5 0.1-0.3 0.1-0.6c0-0.7 0-2.8 0-2.8l-155.6-88.1q-0.7-0.4-1.5-0.6-0.8-0.1-1.7-0.1-0.8 0-1.6 0.1-0.8 0.2-1.5 0.6l-122.4 70.6 160.7 92.7z"/>
			<path class="s11" d="m390.7 348.7c1.7-1 1.7-2.7 0-3.7l-154.3-89q-0.7-0.4-1.5-0.6-0.8-0.2-1.7-0.2-0.8 0-1.6 0.2-0.8 0.2-1.5 0.6l-122.4 70.6 160.7 92.7z"/>
			<path class="s14" d="m390.7 348.7c1.7-1 1.7-2.7 0-3.7l-154.3-89q-0.7-0.4-1.5-0.6-0.8-0.2-1.7-0.2-0.8 0-1.6 0.2-0.8 0.2-1.5 0.6l-122.4 70.6 160.7 92.7z"/>
			<path class="s8" d="m135.9 308.1l90.6-52.2q0.7-0.4 1.5-0.6 0.8-0.2 1.6-0.2 0.8 0 1.7 0.2 0.8 0.2 1.5 0.6l143.8 83 11.8-6.9v14l-0.3 0.1c0.4 0.9 0.1 1.8-1 2.5l-103.8 59.8-160.6-92.6v-15.3z"/>
			<path class="s21" d="m387.1 333.4c1.7-1 1.7-2.7 0-3.7l-154.3-89.1q-0.7-0.3-1.5-0.5-0.9-0.2-1.7-0.2-0.8 0-1.6 0.2-0.8 0.2-1.5 0.5l-103.8 59.9 160.6 92.7z"/>
			<path class="s7" d="m283.3 393.2v15.2l-160.6-92.6v-15.3l160.6 92.7z"/>
			<path class="s3" d="m281.7 387.3q0.1 0 0.2 0.1 0.2 0.1 0.3 0.1 0.2 0.1 0.3 0.1 0.2 0 0.3 0.1 0.3 0 0.5 0.1 0.2 0 0.5 0 0.2 0 0.4 0 0.3-0.1 0.5-0.1 0.1-0.1 0.2-0.1 0 0 0.1 0 0.1-0.1 0.1-0.1 0.1 0 0.2-0.1c1-0.5 0.8-1.4-0.3-2q-0.2-0.1-0.4-0.2-0.2-0.1-0.4-0.2-0.2 0-0.4-0.1-0.2 0-0.4 0-0.3-0.1-0.5 0-0.3 0-0.5 0-0.3 0-0.5 0.1-0.3 0.1-0.5 0.2 0 0-0.1 0 0 0.1 0 0.1 0 0-0.1 0 0 0 0 0.1c-0.7 0.5-0.6 1.3 0.5 1.9z"/>
			<path class="s3" d="m265.7 399.2q-0.1 0.7 0 1.4 0.1 0.7 0.3 1.4 0.2 0.6 0.6 1.3 0.3 0.6 0.7 1.2 0.4 0.5 0.9 0.9 0.5 0.4 1.1 0.7 0.6 0.2 1.2 0.4 0.7 0.1 1.3 0.1 0.6 0 1.2-0.1 0.5-0.1 1.1-0.3 0.6-0.1 1.1-0.4 0.5-0.2 1-0.5c0.3-0.2 0.6-0.3 0.8-0.5l-1.8-1c-4.3 2.4-7.7 0.4-7.7-4.6q0.1-2 0.7-4 0.5-1.9 1.6-3.7 1-1.8 2.4-3.3 1.4-1.5 3.1-2.6c2.3-1.3 4.4-1.4 5.9-0.3q0.3 0.3 0.5 0.5 0.3 0.3 0.5 0.6 0.2 0.3 0.3 0.6 0.2 0.3 0.3 0.7 0.2 0 0.5 0.1 0.2 0 0.4 0 0.3 0 0.5 0 0.2-0.1 0.5-0.1-0.1-0.4-0.2-0.8-0.2-0.3-0.3-0.7-0.2-0.3-0.4-0.7-0.2-0.3-0.5-0.6-0.4-0.5-0.9-0.9-0.5-0.4-1.1-0.7-0.6-0.3-1.2-0.4-0.6-0.1-1.3-0.1-0.6 0-1.2 0.1-0.5 0.1-1.1 0.2-0.6 0.2-1.1 0.5-0.5 0.2-1 0.5c-4.9 2.8-8.7 9.4-8.7 15.1z"/>
			<path class="s11" d="m270.2 384.8l121.8-59.5v2q0 0.4-0.1 0.8-0.2 0.4-0.4 0.7-0.2 0.4-0.5 0.7-0.2 0.3-0.6 0.5l-120.2 57.5z"/>
			<path class="s20" d="m270.2 384.8l121.8-59.5v2q0 0.4-0.1 0.8-0.2 0.4-0.4 0.7-0.2 0.4-0.5 0.7-0.2 0.3-0.6 0.5l-120.2 57.5z"/>
			<path class="s11" d="m390.7 327.1c1.7-1 1.7-2.7 0-3.7l-154.3-89q-0.7-0.4-1.5-0.6-0.8-0.2-1.7-0.2-0.8 0-1.6 0.2-0.8 0.2-1.5 0.6l-122.4 58.7 160.7 92.7z"/>
			<path class="s12" d="m390.7 327.1c1.7-1 1.7-2.7 0-3.7l-154.3-89q-0.7-0.4-1.5-0.6-0.8-0.2-1.7-0.2-0.8 0-1.6 0.2-0.8 0.2-1.5 0.6l-122.4 58.7 160.7 92.7z"/>
			<path class="s11" d="m268.4 422l-160.7-92.7v-36.2l160.7 92.7v36.2z"/>
			<path class="s17" d="m240.5 398.8q0.7 0 1.3-0.2 0.7-0.1 1.3-0.4 0.6-0.3 1.1-0.7 0.5-0.4 0.9-0.9 0.4-0.6 0.7-1.2 0.3-0.6 0.5-1.3 0.2-0.7 0.3-1.4 0.1-0.7 0.1-1.4-0.1-2.3-0.8-4.4-0.6-2.2-1.7-4.2-1.2-2-2.8-3.6-1.5-1.7-3.5-2.9-0.5-0.3-1-0.6-0.5-0.2-1.1-0.4-0.5-0.2-1.1-0.2-0.6-0.1-1.2-0.1c-3.7-0.1-6.1 2.9-6.1 7.4q0.1 2.3 0.7 4.5 0.6 2.1 1.8 4.1 1.1 2 2.7 3.7 1.6 1.6 3.5 2.8 0.5 0.3 1 0.6 0.6 0.2 1.1 0.4 0.6 0.2 1.2 0.3 0.5 0 1.1 0.1z"/>
			<path class="s0" d="m244.9 391.3c0 5-3.5 7-7.9 4.6q-1.7-1.2-3.1-2.6-1.4-1.5-2.4-3.3-1-1.8-1.6-3.7-0.6-2-0.7-4c0-5 3.5-7 7.8-4.6q1.7 1.2 3.1 2.7 1.4 1.4 2.5 3.2 1 1.8 1.6 3.7 0.6 2 0.7 4z"/>
			<path class="s0" d="m216.4 373.1v2.7c0 5.5-3.9 7.7-8.6 5l-80.7-46.6c-4.7-2.7-8.6-9.4-8.6-14.9v-2.7c0-5.5 3.9-7.7 8.6-5l80.7 46.5c4.7 2.8 8.6 9.5 8.6 15z"/>
			<path class="s11" d="m270.3 420.9v-36l-1.9 0.9v36.2l1.9-1.1z"/>
			<path class="s20" d="m270.3 420.9v-36l-1.9 0.9v36.2l1.9-1.1z"/>
			<path class="s11" d="m109 285.3q0 0.3 0.1 0.6 0.2 0.3 0.3 0.6 0.2 0.3 0.5 0.5 0.2 0.3 0.5 0.4l157.9 91.1q0.3 0.2 0.7 0.3 0.3 0.1 0.7 0.1 0.3 0 0.7-0.1 0.3-0.1 0.6-0.3l124.1-62.7v-2.8l-160.6-92.7-124.1 62.8q-0.3 0.2-0.5 0.4-0.3 0.2-0.5 0.5-0.1 0.3-0.3 0.6-0.1 0.3-0.1 0.7z"/>
			<path class="s14" d="m395.1 313l-124 62.8q-0.3 0.1-0.6 0.2-0.4 0.1-0.8 0.1-0.3 0-0.7-0.1-0.3-0.1-0.6-0.2l-158-91.1q-0.2-0.1-0.4-0.3-0.1-0.3-0.1-0.5 0-0.3 0.1-0.5 0.2-0.2 0.4-0.3l124.1-62.8z"/>
			<path class="s20" d="m395.1 313v2.8l-124 62.7q-0.1 0.1-0.3 0.2-0.2 0-0.3 0.1-0.2 0-0.4 0-0.2 0-0.4 0v-2.7q0.2 0 0.4 0 0.2 0 0.4-0.1 0.1 0 0.3-0.1 0.2 0 0.3-0.1z"/>
			<path class="s11" d="m393.3 314.1l-160.7-92.7v-36.2l160.6 93.1v35.8z"/>
			<path class="s22" d="m393.3 314.1l-160.7-92.7v-36.2l160.6 93.1v35.8z"/>
			<path class="s8" d="m110.8 265.8q-0.4 0.2-0.7 0.5-0.3 0.4-0.6 0.7-0.2 0.4-0.3 0.9-0.1 0.4-0.2 0.8v7.4q0.1 0.4 0.2 0.9 0.1 0.4 0.3 0.8 0.3 0.4 0.6 0.7 0.3 0.3 0.7 0.6l157.2 90.7q0.4 0.2 0.8 0.3 0.5 0.1 0.9 0.1 0.5 0 0.9-0.1 0.4-0.1 0.9-0.3l105.1-56.9v-11.3l-160.6-92.8z"/>
			<path class="s21" d="m216 208.8l-105.3 56.9q-0.3 0.2-0.5 0.4-0.2 0.3-0.2 0.6 0 0.4 0.2 0.7 0.2 0.2 0.5 0.3l157.3 90.7q0.4 0.2 0.8 0.3 0.5 0.2 0.9 0.2 0.5 0 0.9-0.2 0.4-0.1 0.9-0.3l105.1-56.8z"/>
			<path class="s3" d="m363.2 302.5q0.1 0.1 0.3 0.1 0.1 0.1 0.2 0.1 0.2 0.1 0.3 0.1 0.2 0.1 0.4 0.1 0.2 0 0.4 0.1 0.2 0 0.5 0 0.2 0 0.4 0 0.3-0.1 0.5-0.1 0.1 0 0.2-0.1 0 0 0.1 0 0.1 0 0.2-0.1 0 0 0.1 0c1-0.6 0.8-1.5-0.3-2.1q-0.2-0.1-0.4-0.2-0.2-0.1-0.4-0.1-0.2-0.1-0.4-0.1-0.2-0.1-0.4-0.1-0.3 0-0.5 0-0.3 0-0.5 0-0.3 0.1-0.5 0.1-0.3 0.1-0.5 0.2 0 0-0.1 0.1 0 0 0 0 0 0-0.1 0 0 0.1 0 0.1c-0.7 0.5-0.6 1.3 0.5 1.9z"/>
			<path class="s7" d="m269.7 358.8v11.4q-0.2 0-0.5-0.1-0.2 0-0.4 0-0.2-0.1-0.4-0.2-0.2 0-0.4-0.1l-157.3-90.7q-0.3-0.3-0.6-0.6-0.3-0.3-0.6-0.7-0.2-0.4-0.3-0.8-0.1-0.5-0.2-0.9v-7.4q0.1-0.4 0.2-0.7 0-0.4 0.2-0.7 0.2-0.4 0.4-0.7 0.3-0.3 0.6-0.5c-0.6 0.5-0.4 1.1 0.3 1.6l157.3 90.7q0.2 0.1 0.4 0.2 0.2 0.1 0.4 0.2 0.2 0 0.5 0 0.2 0 0.4 0z"/>
			<path class="s3" d="m381.6 286.8c-2-1.2-4.6-1.1-7.1 0.4-4.3 2.5-8 8.2-9.8 14.4l2.4 0.4c1.6-5.6 4.8-10.7 8.5-12.8q0.4-0.2 0.7-0.4 0.4-0.1 0.8-0.2 0.4-0.1 0.7-0.2 0.4-0.1 0.8-0.1 0.3 0 0.5 0 0.2 0.1 0.5 0.1 0.2 0.1 0.4 0.2 0.2 0.1 0.4 0.2c1.9 1.1 3 4.1 2.8 8-0.2 7.5-4.5 16-9.5 18.9q-0.4 0.3-0.9 0.5-0.4 0.1-0.9 0.3-0.4 0.1-0.9 0.1-0.4 0-0.9 0l-2.6 1.5 0.2 0.1q0.3 0.2 0.7 0.3 0.4 0.2 0.7 0.3 0.4 0.1 0.8 0.1 0.4 0.1 0.8 0.1 0.5 0 1.1-0.1 0.5-0.1 1-0.3 0.6-0.1 1.1-0.3 0.5-0.3 0.9-0.6c5.8-3.3 10.5-12.5 10.8-20.8 0.1-4.8-1.4-8.5-4-10.1z"/>
			<path class="s11" d="m109 262.2q0 0.4 0.1 0.7 0.2 0.3 0.3 0.6 0.2 0.3 0.5 0.5 0.2 0.2 0.5 0.4l157.9 91.1q0.3 0.2 0.7 0.3 0.3 0 0.7 0 0.3 0 0.7 0 0.3-0.1 0.6-0.3l124.1-75.8v-2.8l-160.6-92.7-124.1 75.9q-0.3 0.1-0.5 0.4-0.3 0.2-0.5 0.5-0.1 0.3-0.2 0.6-0.2 0.3-0.2 0.6z"/>
			<path class="s11" d="m395.1 276.9l-124 75.9q-0.1 0-0.3 0.1-0.2 0.1-0.3 0.1-0.2 0.1-0.4 0.1-0.2 0-0.4 0-0.1 0-0.3 0-0.2 0-0.4-0.1-0.1 0-0.3-0.1-0.2-0.1-0.3-0.1l-158-91.2q-0.2-0.1-0.4-0.3-0.1-0.2-0.1-0.5 0-0.2 0.1-0.4 0.2-0.3 0.4-0.4l124.1-75.8z"/>
			<path class="s12" d="m395.1 276.9l-124 75.9q-0.1 0-0.3 0.1-0.2 0.1-0.3 0.1-0.2 0.1-0.4 0.1-0.2 0-0.4 0-0.1 0-0.3 0-0.2 0-0.4-0.1-0.1 0-0.3-0.1-0.2-0.1-0.3-0.1l-158-91.2q-0.2-0.1-0.4-0.3-0.1-0.2-0.1-0.5 0-0.2 0.1-0.4 0.2-0.3 0.4-0.4l124.1-75.8z"/>
			<path class="s20" d="m395.1 276.9v2.8l-124 75.8q-0.1 0.1-0.3 0.2-0.2 0-0.3 0.1-0.2 0-0.4 0-0.2 0-0.4 0v-2.7q0.2 0 0.4 0 0.2 0 0.4-0.1 0.1 0 0.3-0.1 0.2-0.1 0.3-0.1z"/>
			<path class="s11" d="m395.1 313v-36l-1.9 1.3v35.8l1.9-1.1z"/>
			<path class="s20" d="m395.1 313v-36l-1.9 1.3v35.8l1.9-1.1z"/>
			<g id="freepik--Form--inject-150">
				<g id="freepik--Paper--inject-150">
					<path class="s0" d="m266.6 346.8l117.5-67.8q0.2-0.1 0.4-0.3 0.1-0.2 0.3-0.4 0.1-0.3 0.2-0.5 0.1-0.3 0.1-0.5v-1.3q0-0.3-0.1-0.5-0.1-0.3-0.2-0.5-0.2-0.2-0.3-0.4-0.2-0.2-0.4-0.3l-145.1-83.8q-0.2-0.1-0.5-0.2-0.2 0-0.5 0-0.3 0-0.5 0-0.3 0.1-0.5 0.2l-117.5 67.8q-0.2 0.1-0.4 0.3-0.2 0.2-0.3 0.5-0.1 0.2-0.2 0.4-0.1 0.3-0.1 0.5v1.4q0 0.2 0.1 0.5 0.1 0.2 0.2 0.4 0.1 0.3 0.3 0.5 0.2 0.2 0.4 0.3l145.1 83.7q0.2 0.1 0.5 0.2 0.3 0.1 0.5 0.1 0.3 0 0.5-0.1 0.3-0.1 0.5-0.2z"/>
					<path class="s23" d="m119.3 258.5q0 0-0.1 0 0 0.1-0.1 0.1 0 0 0 0.1-0.1 0-0.1 0l-0.1 0.2q0 0.1-0.1 0.1 0 0.1-0.1 0.2 0 0 0 0.1-0.1 0.1-0.1 0.1 0 0.1 0 0.1 0 0.1 0 0.1-0.1 0.1-0.1 0.1 0 0.1 0 0.1 0 0 0 0.1 0 0 0 0 0 0.1 0 0.1 0 0 0 0.1v1.3q0 0.2 0.1 0.5 0.1 0.2 0.2 0.4 0.1 0.3 0.3 0.5 0.2 0.1 0.4 0.3l145.1 83.7q0.1 0.1 0.3 0.1 0.1 0.1 0.2 0.1 0.1 0 0.3 0.1 0.1 0 0.2 0v-3.7q-0.1 0-0.2 0-0.2 0-0.3 0-0.1 0-0.2-0.1-0.2 0-0.3-0.1l-145.1-83.7c-0.5-0.3-0.5-0.7-0.2-1z"/>
					<path class="s1" d="m384.3 274.4c0.3 0.3 0.2 0.7-0.2 1l-117.5 67.8q-0.1 0.1-0.2 0.1-0.1 0.1-0.3 0.1-0.1 0-0.2 0-0.1 0-0.3 0v3.7q0.2 0 0.3 0 0.1-0.1 0.2-0.1 0.2 0 0.3-0.1 0.1 0 0.2-0.1l117.5-67.8q0.2-0.1 0.4-0.3 0.2-0.2 0.3-0.4 0.1-0.3 0.2-0.5 0.1-0.3 0.1-0.5v-1.3q0-0.2-0.1-0.4 0-0.3-0.1-0.5-0.1-0.2-0.3-0.4-0.1-0.1-0.3-0.3z"/>
				</g>
			</g>
			<g id="freepik--Forms--inject-150">
				<path class="s11" d="m243.1 199.2l-25 14.5 1.8 1.1 25-14.5-1.8-1.1z"/>
				<path class="s11" d="m246.8 201.3l-37.7 21.8 1.8 1 37.7-21.7-1.8-1.1z"/>
				<path class="s11" d="m250.4 203.4l-33.5 19.3 1.8 1.1 33.5-19.3-1.8-1.1z"/>
				<path class="s11" d="m318.1 242.5l-107.5 62.1 4.6 2.7 107.6-62.1-4.7-2.7z"/>
				<path class="s24" d="m318.1 242.5l-107.5 62.1 4.6 2.7 107.6-62.1-4.7-2.7z"/>
				<path fill-rule="evenodd" class="s11" d="m322.8 245.2l7 4.1-107.6 62.1-7-4.1zm-100.3 65.5l106.3-61.3-6.2-3.6-106.2 61.4z"/>
				<path class="s11" d="m293.6 270.1l0.4-0.6-6.5-3.7-0.5 0.5 6.6 3.8z"/>
				<path class="s11" d="m258.1 290.5l0.5-0.5-6.6-3.8-0.5 0.5 6.6 3.8z"/>
				<path fill-rule="evenodd" class="s11" d="m221.8 311.1l107.6-62 7 4-107.6 62.1-7-4.1zm7.3 3.4l106.2-61.3-6.2-3.5-106.2 61.3z"/>
				<path class="s11" d="m300.2 273.9l0.4-0.5-6.5-3.8-0.5 0.5 6.6 3.8z"/>
				<path class="s11" d="m264.7 294.3l0.4-0.5-6.5-3.8-0.5 0.5 6.6 3.8z"/>
				<path fill-rule="evenodd" class="s11" d="m228.5 314.9l107.5-62.1 7 4.1-107.6 62.1-7-4.1zm7.2 3.4l106.2-61.3-6.1-3.5-106.2 61.3z"/>
				<path class="s11" d="m306.8 277.7l0.4-0.5-6.5-3.8-0.5 0.5 6.6 3.8z"/>
				<path class="s11" d="m271.3 298.1l0.4-0.5-6.5-3.8-0.5 0.5 6.6 3.8z"/>
				<path fill-rule="evenodd" class="s11" d="m342.6 256.6l6.9 4.1-107.5 62.1-7-4.1zm-100.3 65.5l106.2-61.3-6.1-3.6-106.3 61.4z"/>
				<path class="s11" d="m313.4 281.5l0.4-0.5-6.5-3.8-0.5 0.5 6.6 3.8z"/>
				<path class="s11" d="m277.9 301.9l0.4-0.5-6.5-3.8-0.5 0.5 6.6 3.9z"/>
				<path fill-rule="evenodd" class="s11" d="m246.8 325.5zm0.1 0.1l36.5-21.2 9.3 5.4-36.6 21.1zm9.4 4.7l35.3-20.4-8.2-4.7-35.3 20.4z"/>
				<path class="s11" d="m359.4 266.4l-54.3 31.4 3.9 2.2 54.4-31.3-4-2.3z"/>
				<path class="s11" d="m196.6 230.7l-54.4 31.3 3.9 2.3 54.4-31.4-3.9-2.2z"/>
				<path class="s11" d="m228.6 260.1l-47.5 27.5 4.6 2.7 47.6-27.5-4.7-2.7z"/>
				<path class="s24" d="m228.6 260.1l-47.5 27.5 4.6 2.7 47.6-27.5-4.7-2.7z"/>
				<path fill-rule="evenodd" class="s11" d="m198.3 290.9l-3.8 2.2-3.7-2.2 3.8-2.2zm-3.8 1.7l2.9-1.6-2.9-1.7-2.9 1.6z"/>
				<path fill-rule="evenodd" class="s11" d="m205.2 294.9l-3.8 2.2-3.7-2.2 3.8-2.2zm-3.7 1.7l2.8-1.6-2.9-1.7-2.9 1.6z"/>
				<path fill-rule="evenodd" class="s11" d="m212.1 298.9l-3.8 2.2-3.7-2.2 3.8-2.2zm-3.7 1.7l2.9-1.6-3-1.7-2.8 1.6z"/>
				<path class="s1" d="m235.7 266.4q0 0 0 0 0 0 0 0 0 0.1-0.1 0.1 0 0 0 0l-37.5 21.7q-0.1 0-0.2 0 0 0-0.1 0 0 0-0.1 0 0-0.1-0.1-0.1 0-0.1 0-0.1 0-0.1 0-0.2 0.1 0 0.1-0.1 0.1 0 0.1 0l37.6-21.7q0 0 0.1 0 0-0.1 0.1 0 0.1 0 0.1 0 0.1 0 0.1 0.1 0 0 0 0.1 0 0 0 0 0 0.1 0 0.1 0 0-0.1 0.1z"/>
				<path class="s1" d="m237.5 267.4q0 0 0 0 0 0.1-0.1 0.1 0 0 0 0 0 0 0 0l-37.6 21.7q0 0-0.1 0-0.1 0.1-0.1 0-0.1 0-0.1 0-0.1 0-0.1-0.1 0-0.1 0-0.1 0-0.1 0-0.1 0-0.1 0.1-0.2 0 0 0.1 0l37.5-21.7q0.1 0 0.1 0 0.1-0.1 0.2 0 0 0 0.1 0 0 0 0 0.1 0.1 0 0.1 0.1 0 0 0 0.1-0.1 0-0.1 0 0 0.1 0 0.1z"/>
				<path class="s1" d="m242.7 270.4q0 0-0.1 0 0 0 0 0 0 0.1 0 0.1 0 0-0.1 0l-37.5 21.7q0 0-0.1 0-0.1 0-0.1 0-0.1 0-0.1 0-0.1-0.1-0.1-0.1 0-0.1 0-0.1 0-0.1 0-0.2 0 0 0.1-0.1 0 0 0.1 0l37.5-21.7q0 0 0.1 0 0.1-0.1 0.1 0 0.1 0 0.1 0 0.1 0 0.1 0.1 0 0 0 0.1 0 0 0 0 0 0.1 0 0.1 0 0 0 0.1z"/>
				<path class="s1" d="m244.4 271.4q0 0 0 0 0 0.1 0 0.1 0 0-0.1 0 0 0 0 0l-37.6 21.7q0 0-0.1 0 0 0.1-0.1 0 0 0-0.1 0 0 0-0.1-0.1 0-0.1 0-0.1 0-0.1 0-0.1 0.1-0.1 0.1-0.2 0 0 0.1 0l37.6-21.7q0 0 0.1 0 0-0.1 0.1 0 0 0 0.1 0 0 0 0.1 0.1 0 0 0 0.1 0 0 0 0.1 0 0 0 0 0 0.1-0.1 0.1z"/>
				<path class="s1" d="m249.6 274.4q0 0 0 0 0 0-0.1 0.1 0 0 0 0 0 0 0 0l-37.6 21.7q0 0-0.1 0-0.1 0-0.1 0-0.1 0-0.1 0-0.1-0.1-0.1-0.1 0-0.1 0-0.1 0-0.1 0-0.2 0 0 0.1-0.1 0 0 0.1 0l37.5-21.7q0.1 0 0.1 0 0.1-0.1 0.2 0 0 0 0.1 0 0 0 0 0.1 0.1 0 0.1 0.1 0 0-0.1 0 0 0.1 0 0.1 0 0.1 0 0.1z"/>
				<path class="s1" d="m251.4 275.4q-0.1 0-0.1 0 0 0.1 0 0.1 0 0 0 0-0.1 0-0.1 0l-37.5 21.7q-0.1 0-0.1 0.1-0.1 0-0.2-0.1 0 0-0.1 0 0 0 0-0.1-0.1 0-0.1-0.1 0-0.1 0.1-0.1 0-0.1 0-0.1 0.1-0.1 0.1-0.1l37.6-21.7q0.1 0 0.1 0 0.1-0.1 0.1 0 0.1 0 0.1 0 0.1 0 0.1 0.1 0 0 0 0.1 0 0 0 0.1 0 0 0 0 0 0.1 0 0.1z"/>
				<path class="s11" d="m288.6 225.5l-47.5 27.5 4.6 2.7 47.6-27.5-4.7-2.7z"/>
				<path class="s24" d="m288.6 225.5l-47.5 27.5 4.6 2.7 47.6-27.5-4.7-2.7z"/>
				<path fill-rule="evenodd" class="s11" d="m258.3 256.3l-3.8 2.1-3.7-2.1 3.7-2.2zm-3.7 1.7l2.9-1.7-2.9-1.7-2.9 1.7z"/>
				<path fill-rule="evenodd" class="s11" d="m265.2 260.3l-3.8 2.1-3.7-2.1 3.8-2.2zm-3.7 1.8l2.8-1.7-2.9-1.7-2.9 1.7z"/>
				<path fill-rule="evenodd" class="s11" d="m272.1 264.3l-3.8 2.1-3.7-2.1 3.8-2.2zm-3.7 1.8l2.9-1.7-3-1.7-2.9 1.7z"/>
				<path class="s1" d="m295.7 231.8q0 0 0 0 0 0 0 0-0.1 0-0.1 0 0 0.1 0 0.1l-37.6 21.6q0 0.1-0.1 0.1-0.1 0-0.1 0-0.1 0-0.1-0.1-0.1 0-0.1 0 0-0.1 0-0.2 0 0 0-0.1 0-0.1 0-0.1 0.1 0 0.1-0.1l37.6-21.7q0.1 0 0.1 0 0.1 0 0.1 0 0.1 0 0.1 0 0.1 0.1 0.1 0.1 0 0.1 0.1 0.1 0 0.1 0 0.1 0 0 0 0.1-0.1 0-0.1 0z"/>
				<path class="s1" d="m297.5 232.8q0 0 0 0-0.1 0-0.1 0 0 0.1 0 0.1 0 0 0 0l-37.6 21.7q-0.1 0-0.1 0-0.1 0-0.1 0-0.1 0-0.1 0-0.1-0.1-0.1-0.1 0-0.1 0-0.2 0 0 0-0.1 0 0 0.1-0.1 0 0 0.1-0.1l37.5-21.6q0.1-0.1 0.1-0.1 0.1 0 0.1 0 0.1 0 0.1 0.1 0.1 0 0.1 0 0 0.1 0 0.1 0.1 0.1 0 0.1 0 0.1 0 0.1 0 0 0 0.1z"/>
				<path class="s1" d="m302.6 235.8q0 0 0 0 0 0 0 0 0 0 0 0-0.1 0.1-0.1 0.1l-37.5 21.7q-0.1 0-0.1 0-0.1 0-0.1 0-0.1 0-0.1 0-0.1-0.1-0.1-0.1 0-0.1 0-0.2 0 0 0-0.1 0 0 0.1-0.1 0 0 0-0.1l37.6-21.7q0.1 0 0.1 0 0.1 0 0.1 0 0.1 0 0.1 0 0.1 0.1 0.1 0.1 0 0.1 0 0.1 0 0.1 0 0.1 0 0 0 0.1 0 0-0.1 0z"/>
				<path class="s1" d="m304.4 236.8q0 0 0 0 0 0 0 0-0.1 0.1-0.1 0.1 0 0 0 0l-37.6 21.7q0 0-0.1 0 0 0-0.1 0-0.1 0-0.1 0-0.1-0.1-0.1-0.1 0-0.1 0-0.2 0 0 0-0.1 0 0 0.1-0.1 0 0 0.1-0.1l37.5-21.6q0-0.1 0.1-0.1 0.1 0 0.1 0 0.1 0 0.1 0.1 0.1 0 0.1 0.1 0 0 0 0 0.1 0.1 0.1 0.1 0 0.1-0.1 0.1 0 0 0 0.1z"/>
				<path class="s1" d="m309.6 239.8q0 0 0 0-0.1 0-0.1 0 0 0 0 0 0 0.1-0.1 0.1l-37.5 21.7q-0.1 0-0.1 0-0.1 0-0.1 0-0.1 0-0.1 0-0.1-0.1-0.1-0.1 0-0.1 0-0.2 0 0 0-0.1 0 0 0.1-0.1 0 0 0-0.1l37.6-21.7q0.1 0 0.1 0 0.1 0 0.1 0 0.1 0 0.1 0 0.1 0.1 0.1 0.1 0 0.1 0 0.1 0.1 0.1 0 0.1 0 0 0 0.1 0 0 0 0z"/>
				<path class="s1" d="m311.3 240.8q0 0 0 0 0 0 0 0 0 0.1-0.1 0.1 0 0 0 0l-37.5 21.7q-0.1 0-0.1 0-0.1 0-0.2 0 0 0-0.1 0 0-0.1-0.1-0.1 0-0.1 0-0.1 0-0.1 0-0.2 0.1 0 0.1-0.1 0.1 0 0.1-0.1l37.6-21.6q0-0.1 0.1-0.1 0.1 0 0.1 0 0.1 0 0.1 0.1 0.1 0 0.1 0.1 0 0 0 0 0 0.1 0 0.1 0 0.1 0 0.1 0 0-0.1 0.1z"/>
				<path class="s11" d="m271.4 215.5l-107.6 62.1 4.7 2.7 107.5-62.1-4.6-2.7z"/>
				<path class="s24" d="m271.4 215.5l-107.6 62.1 4.7 2.7 107.5-62.1-4.6-2.7z"/>
				<path class="s1" d="m225.4 251.7q0 0 0 0.1-0.1 0-0.1 0 0 0 0 0 0 0 0 0l-51 29.5q-0.1 0-0.1 0-0.1 0.1-0.2 0 0 0-0.1 0 0 0-0.1-0.1 0-0.1 0-0.1 0-0.1 0-0.1 0.1-0.1 0.1-0.1 0.1-0.1 0.1-0.1l51-29.5q0.1 0 0.1 0 0.1 0 0.1 0 0.1 0 0.1 0 0.1 0.1 0.1 0.1 0 0 0 0.1 0.1 0 0 0.1 0 0 0 0.1 0 0 0 0z"/>
				<path class="s1" d="m279.9 223.4q0 0 0 0 0 0.1-0.1 0.1 0 0 0 0 0 0 0 0l-102.8 59.4q-0.1 0-0.1 0-0.1 0-0.1 0-0.1 0-0.1 0-0.1-0.1-0.1-0.1 0-0.1 0-0.1 0-0.1 0-0.2 0 0 0.1-0.1 0 0 0.1-0.1l102.7-59.3q0.1 0 0.1 0 0.1-0.1 0.1 0 0.1 0 0.2 0 0 0 0 0.1 0.1 0 0.1 0.1 0 0 0 0-0.1 0.1-0.1 0.1 0 0.1 0 0.1z"/>
				<path class="s1" d="m282.5 224.9q0 0-0.1 0 0 0 0 0 0 0.1 0 0.1 0 0-0.1 0l-102.8 59.4q0 0-0.1 0 0 0-0.1 0-0.1 0-0.1 0-0.1-0.1-0.1-0.1 0-0.1 0-0.2 0 0 0-0.1 0 0 0.1-0.1 0 0 0.1-0.1l102.8-59.3q0-0.1 0.1-0.1 0.1 0 0.1 0 0.1 0 0.1 0.1 0.1 0 0.1 0.1 0 0 0 0 0 0.1 0 0.1 0 0.1 0 0.1 0 0 0 0.1z"/>
				<path class="s1" d="m207.5 241.4q-0.1 0-0.1 0 0 0 0 0 0 0.1 0 0.1-0.1 0-0.1 0l-51 29.5q0 0-0.1 0 0 0-0.1 0-0.1 0-0.1 0-0.1-0.1-0.1-0.1 0-0.1 0-0.2 0 0 0-0.1 0 0 0.1-0.1 0 0 0.1-0.1l51-29.4q0-0.1 0.1-0.1 0 0 0.1 0 0.1 0 0.1 0.1 0.1 0 0.1 0.1 0 0 0 0 0 0.1 0 0.1 0 0.1 0 0.1 0 0 0 0.1z"/>
				<path class="s1" d="m262 213.1q0 0 0 0 0 0-0.1 0 0 0 0 0 0 0.1 0 0.1l-102.9 59.3q0 0.1-0.1 0.1-0.1 0-0.1 0-0.1 0-0.1-0.1-0.1 0-0.1-0.1 0 0 0-0.1 0-0.1 0-0.1 0-0.1 0.1-0.1 0-0.1 0.1-0.1l102.8-59.4q0 0 0.1 0 0.1 0 0.1 0 0.1 0 0.1 0 0.1 0.1 0.1 0.1 0 0.1 0 0.1 0 0.1 0 0.1 0 0 0 0.1 0 0 0 0.1z"/>
				<path class="s1" d="m264.5 214.5q0 0 0 0.1 0 0 0 0 0 0-0.1 0 0 0 0 0.1l-102.8 59.3q-0.1 0-0.1 0-0.1 0.1-0.1 0-0.1 0-0.1 0-0.1 0-0.1-0.1 0-0.1 0-0.1 0-0.1 0-0.1 0-0.1 0.1-0.2 0 0 0 0l102.9-59.4q0 0 0.1 0 0 0 0.1 0 0.1 0 0.1 0 0.1 0.1 0.1 0.1 0 0 0 0.1 0 0 0 0.1 0 0 0 0.1 0 0-0.1 0z"/>
			</g>
		</g>
	</g>
	<g id="freepik--Device--inject-150">
		<g id="freepik--Laptop--inject-150">
			<path class="s4" d="m46.8 431.6c0 1.5 1.1 2.4 2.5 3.2l56.3 32.5q0.6 0.3 1.2 0.5 0.6 0.1 1.3 0.1 0.7 0 1.3-0.1 0.6-0.2 1.2-0.5l90.8-52.4c1.4-0.8 2.5-1.8 2.5-3.3 0-1.5-1.1-2.4-2.5-3.2l-56.3-32.5q-0.5-0.3-1.2-0.5-0.6-0.1-1.3-0.1-0.6 0-1.3 0.1-0.6 0.2-1.2 0.5l-90.8 52.4c-1.4 0.8-2.5 1.8-2.5 3.3z"/>
			<path class="s17" d="m49.3 431.2l56.3 32.5q0.6 0.3 1.2 0.5 0.6 0.1 1.3 0.1 0.7 0 1.3-0.1 0.6-0.2 1.2-0.5l90.8-52.4c1.4-0.8 1.4-2.1 0-2.9l-56.3-32.5q-0.5-0.3-1.2-0.5-0.6-0.1-1.3-0.1-0.6 0-1.3 0.1-0.6 0.2-1.2 0.5l-90.8 52.4c-1.4 0.8-1.4 2.1 0 2.9z"/>
			<path class="s3" d="m108.1 464.3v3.6q-0.3 0-0.7 0-0.3 0-0.6-0.1-0.3-0.1-0.6-0.2-0.3-0.1-0.6-0.2l-56.3-32.6c-1.4-0.8-2.5-1.7-2.5-3.2 0-1.5 1-2.4 2.3-3.2q-0.4 0.3-0.6 0.6-0.2 0.4-0.2 0.9 0 0.4 0.3 0.8 0.3 0.3 0.7 0.5l56.3 32.5q0.3 0.2 0.6 0.3 0.3 0.1 0.6 0.2 0.3 0 0.6 0.1 0.4 0 0.7 0z"/>
			<path class="s3" d="m57 428.8l83.5-48.3q0.3-0.1 0.6-0.2 0.3 0 0.6 0 0.3 0 0.6 0 0.3 0.1 0.5 0.2l3 1.7q0.3 0.1 0.4 0.3 0.1 0.2 0.1 0.4 0 0.3-0.1 0.4-0.1 0.2-0.4 0.3l-83.5 48.2q-0.2 0.1-0.5 0.2-0.3 0.1-0.6 0.1-0.3 0-0.6-0.1-0.3-0.1-0.6-0.2l-3-1.7q-0.2-0.1-0.4-0.3-0.1-0.1-0.1-0.4 0-0.2 0.1-0.4 0.2-0.2 0.4-0.3z"/>
			<path class="s3" d="m65.2 433.6l83.5-48.2q0.2-0.2 0.5-0.2 0.2-0.1 0.5-0.1 0.3-0.1 0.6 0 0.2 0 0.5 0.2l21.7 12.5c0.6 0.3 0.5 0.9-0.2 1.2l-83.4 48.2q-0.2 0.1-0.5 0.2-0.2 0.1-0.5 0.1-0.3 0-0.6 0-0.3-0.1-0.5-0.2l-21.8-12.5c-0.6-0.3-0.5-0.8 0.2-1.2z"/>
			<path fill-rule="evenodd" class="s17" d="m137.4 405.7q0 0-0.1 0 0 0-0.1 0 0 0 0 0l-2.5-1.5c-0.2 0-0.2-0.1 0-0.2l2.5-1.6q0.1 0 0.1 0 0.1 0 0.1 0 0.1 0 0.1 0 0.1 0 0.1 0.1l2.5 1.4c0.1 0.1 0.1 0.2 0 0.2l-2.6 1.5q0 0-0.1 0.1zm-3.6-5.3q0 0 0.1 0 0 0 0.1 0 0 0 0.1 0l2.5 1.4c0.1 0.1 0.1 0.2 0 0.3l-2.6 1.5q-0.1 0-0.1 0-0.1 0-0.1 0-0.1 0-0.1 0-0.1 0-0.1 0l-2.5-1.5q-0.2-0.1 0-0.2l2.6-1.5q0 0 0.1 0zm-8.5 4.8q0.1 0 0.1 0 0.1 0 0.1 0.1 0.1 0 0.1 0l2.5 1.4q0.2 0.1 0 0.3l-4.4 2.5q0 0-0.1 0 0 0-0.1 0 0 0-0.1 0 0 0-0.1 0l-2.5-1.4q-0.2-0.2 0-0.3l4.4-2.5q0.1 0 0.1-0.1zm4.7-2.6q0 0 0.1 0 0 0 0.1 0 0 0 0 0l2.5 1.4q0.2 0.2 0 0.3l-2.6 1.5q0 0-0.1 0 0 0-0.1 0 0 0 0 0-0.1 0-0.1 0l-2.5-1.5c-0.2 0-0.1-0.1 0-0.2l2.6-1.5q0 0 0.1 0zm-10.3 5.9q0.1 0 0.1 0 0.1 0 0.1 0 0.1 0 0.1 0l2.5 1.4c0.1 0.1 0.1 0.2 0 0.3l-2.6 1.5q-0.1 0-0.1 0-0.1 0-0.1 0-0.1 0-0.1 0-0.1 0-0.1 0l-2.5-1.5c-0.1 0-0.1-0.1 0-0.2l2.6-1.5q0.1 0 0.1 0zm-3.8 2.2q0 0 0.1 0 0 0 0.1 0 0 0 0.1 0l2.5 1.5c0.1 0 0.1 0.1 0 0.2l-2.6 1.5q-0.1 0-0.1 0-0.1 0.1-0.1 0.1-0.1 0-0.1-0.1-0.1 0-0.1 0l-2.5-1.4c-0.1-0.1-0.1-0.2 0-0.3l2.6-1.5q0 0 0.1 0zm9.6 6q0 0-0.1 0 0 0-0.1 0 0 0-0.1 0l-2.5-1.5c-0.1 0-0.1-0.1 0-0.2l2.6-1.6q0.1 0 0.1 0 0.1 0 0.1 0 0.1 0 0.1 0 0.1 0 0.1 0l2.5 1.5q0.2 0.1 0 0.2l-2.6 1.5q0 0.1-0.1 0.1zm-3.8 2.2q-0.1 0-0.1 0-0.1 0-0.1 0-0.1 0-0.1-0.1l-2.5-1.4c-0.1-0.1-0.1-0.2 0-0.2l2.6-1.5q0.1-0.1 0.1-0.1 0.1 0 0.1 0 0 0 0.1 0 0 0 0.1 0.1l2.5 1.4c0.1 0.1 0.1 0.2 0 0.2l-2.6 1.5q-0.1 0.1-0.1 0.1zm-3.8 2.1q0 0-0.1 0 0 0-0.1 0 0 0-0.1 0l-2.5-1.4c-0.1-0.1-0.1-0.2 0-0.3l2.6-1.5q0.1 0 0.1 0 0.1 0 0.1 0 0.1 0 0.1 0 0.1 0 0.1 0l2.5 1.5c0.1 0 0.1 0.1 0 0.2l-2.6 1.5q0 0-0.1 0zm-3.8 2.2q0 0.1 0 0.1-0.1 0-0.1 0-0.1 0-0.1-0.1-0.1 0-0.1 0l-2.5-1.4c-0.1-0.1-0.1-0.2 0-0.3l2.6-1.5q0.1 0 0.1 0 0.1 0 0.1 0 0 0 0.1 0 0 0 0.1 0l2.5 1.5c0.1 0 0.1 0.1 0 0.2l-2.6 1.5zm19.5-15.4q0 0-0.1 0 0 0 0 0-0.1 0-0.1 0-0.1 0-0.1-0.1l-2.5-1.4c-0.1-0.1-0.1-0.2 0-0.2l2.6-1.5q0.1 0 0.1-0.1 0.1 0 0.1 0 0 0 0.1 0 0 0.1 0.1 0.1l2.5 1.4c0.1 0.1 0.1 0.2 0 0.2l-2.6 1.5zm-4.3 6.6q0 0-0.1 0.1 0 0 0-0.1-0.1 0-0.1 0-0.1 0-0.1 0l-2.5-1.4c-0.1-0.1-0.1-0.2 0-0.3l2.4-1.4q0.2-0.1 0-0.2l-3.2-1.8q-0.2-0.1 0-0.3l3-1.7q0.1 0 0.1 0 0.1 0 0.1 0 0 0 0.1 0 0 0 0.1 0l6.1 3.5c0.1 0.1 0.1 0.2 0 0.2l-5.9 3.4zm-17.3-1.5q0.1 0 0.1 0 0.1 0 0.1 0 0 0 0.1 0l2.5 1.5c0.1 0 0.1 0.1 0 0.2l-2.6 1.5q-0.1 0-0.1 0-0.1 0-0.1 0-0.1 0-0.1 0-0.1 0-0.1 0l-2.5-1.5c-0.1 0-0.1-0.1 0-0.2l2.6-1.5q0.1 0 0.1 0zm-3.9 2.2q0 0 0.1 0 0 0 0 0 0.1 0 0.1 0 0.1 0 0.1 0l2.5 1.5c0.1 0 0.1 0.1 0 0.2l-2.5 1.5q-0.1 0-0.1 0-0.1 0-0.1 0-0.1 0-0.1 0-0.1 0-0.1 0l-2.5-1.4c-0.1-0.1-0.1-0.2 0-0.3l2.6-1.5zm-23.6 22.1c-0.1-0.1-0.1-0.2 0-0.2l2.6-1.5q0 0 0.1 0 0-0.1 0.1-0.1 0 0 0 0.1 0.1 0 0.1 0l2.5 1.4c0.2 0.1 0.2 0.2 0 0.3l-2.6 1.5q0 0-0.1 0 0 0-0.1 0 0 0-0.1 0 0 0-0.1 0zm-6.9-4.5q0 0 0.1 0 0 0 0.1 0 0.1 0 0.1 0 0.1 0 0.1 0l2.5 1.5c0.1 0.1 0.1 0.2 0 0.2l-2.6 1.5q-0.1 0.1-0.1 0.1-0.1 0-0.1 0 0 0-0.1 0 0 0-0.1-0.1l-2.5-1.4c-0.1-0.1-0.1-0.2 0-0.2l2.6-1.6zm2.4 3c-0.1 0-0.1-0.1 0-0.2l2.6-1.5q0.1-0.1 0.1-0.1 0.1 0 0.1 0 0.1 0 0.1 0 0.1 0 0.1 0.1l2.4 1.5c0.1 0 0.1 0.1 0 0.2l-2.6 1.5q0 0-0.1 0 0 0-0.1 0 0 0-0.1 0 0 0-0.1 0zm12.9 3.8q0 0-0.1 0 0 0-0.1 0 0 0-0.1 0l-2.5-1.4c-0.1-0.1-0.1-0.2 0-0.3l2.7-1.5q0 0 0 0 0.1 0 0.1 0 0.1 0 0.1 0 0.1 0 0.1 0l2.5 1.5q0.2 0.1 0 0.2l-2.6 1.5q0 0-0.1 0zm-6.6 0.8c-0.1-0.1-0.1-0.2 0-0.2l2.6-1.6q0.1 0 0.1 0 0.1 0 0.1 0 0.1 0 0.1 0 0.1 0 0.1 0l2.5 1.5c0.1 0 0.1 0.1 0 0.2l-2.6 1.5q0 0-0.1 0.1 0 0-0.1 0 0 0-0.1 0 0-0.1-0.1-0.1zm-4.9-9.8q0.1 0 0.1 0 0.1 0 0.1 0 0.1 0 0.1 0 0.1 0 0.1 0l2.5 1.5q0.2 0.1 0 0.2l-2.6 1.5q0 0-0.1 0 0 0.1-0.1 0.1 0 0-0.1-0.1 0 0-0.1 0l-2.5-1.4c-0.1-0.1-0.1-0.2 0-0.3l2.7-1.5zm19.1-11q0 0 0 0 0.1 0 0.2 0 0 0 0.1 0 0 0 0.1 0l2.5 1.5c0.1 0 0.1 0.1 0 0.2l-2.7 1.5q0 0-0.1 0 0 0.1 0 0.1-0.1 0-0.1-0.1-0.1 0-0.1 0l-2.5-1.4c-0.2-0.1-0.1-0.2 0-0.3l2.6-1.5zm-15.3 8.9q0-0.1 0.1-0.1 0 0 0.1 0 0 0 0.1 0 0 0 0.1 0l2.5 1.5c0.1 0 0.1 0.1 0 0.2l-2.6 1.6q-0.1 0-0.1 0-0.1 0-0.1 0-0.1 0-0.1 0 0 0-0.1 0l-2.5-1.5q-0.2-0.1 0-0.2l2.6-1.5zm19.1-11q0.1-0.1 0.1-0.1 0.1 0 0.1 0 0.1 0.1 0.1 0.1 0.1 0 0.1 0l2.5 1.5c0.1 0 0.1 0.1 0 0.2l-2.6 1.5q0 0-0.1 0 0 0-0.1 0 0 0-0.1 0 0 0-0.1 0l-2.5-1.5q-0.2-0.1 0-0.2l2.6-1.5zm-7.6 4.4q0 0 0.1 0 0 0 0.1 0 0.1 0 0.1 0 0 0.1 0.1 0.1l2.5 1.4c0.1 0.1 0.1 0.2 0 0.3l-2.6 1.5q-0.1 0-0.1 0-0.1 0-0.1 0-0.1 0-0.1 0-0.1 0-0.1 0l-2.5-1.5c-0.1 0-0.1-0.1 0-0.2l2.6-1.5zm-3.7 2.2q0 0 0.1 0 0 0 0.1 0 0 0 0.1 0l2.5 1.5c0.1 0 0.1 0.1 0 0.2l-2.6 1.5q-0.1 0-0.1 0-0.1 0-0.1 0-0.1 0-0.1 0-0.1 0-0.1 0l-2.5-1.4c-0.1-0.1-0.1-0.2 0-0.3l2.6-1.5q0 0 0.1 0zm-3.9 2.2q0 0 0.1 0 0 0 0.1 0 0 0 0.1 0 0 0 0.1 0l2.5 1.5c0.1 0 0.1 0.1 0 0.2l-2.6 1.5q-0.1 0-0.1 0-0.1 0.1-0.1 0.1-0.1 0-0.1-0.1-0.1 0-0.1 0l-2.5-1.4c-0.2-0.1-0.1-0.2 0-0.3l2.6-1.5zm34.8-0.5c0.2 0.1 0.2 0.2 0 0.2l-21.5 12.5q0 0-0.1 0 0 0-0.1 0 0 0-0.1 0 0 0-0.1 0l-2.5-1.5c-0.1 0-0.1-0.1 0-0.2l21.5-12.4q0.1-0.1 0.1-0.1 0.1 0 0.1 0 0.1 0 0.1 0 0.1 0 0.1 0.1zm18.2-30.2q0.1 0 0.1 0 0.1 0 0.1 0 0.1 0 0.1 0 0 0 0.1 0l2.5 1.5c0.1 0 0.1 0.1 0 0.2l-2.6 1.5q-0.1 0-0.1 0-0.1 0-0.1 0-0.1 0-0.1 0-0.1 0-0.1 0l-2.5-1.4c-0.1-0.1-0.1-0.2 0-0.2l2.6-1.5zm-4.6 2.6q0.1 0 0.1 0 0.1 0 0.1 0 0.1 0 0.1 0 0 0 0.1 0l2.5 1.5c0.1 0 0.1 0.1 0 0.2l-2.6 1.5q-0.1 0.1-0.1 0.1-0.1 0-0.1 0-0.1 0-0.1 0-0.1 0-0.1-0.1l-2.5-1.4c-0.1-0.1-0.1-0.2 0-0.2l2.6-1.5zm8.5-4.9q0 0 0.1 0 0 0 0.1 0 0 0 0.1 0 0 0 0.1 0l2.5 1.4c0.1 0.1 0.1 0.2 0 0.3l-2.7 1.5q0 0-0.1 0 0 0 0 0-0.1 0-0.1 0-0.1 0-0.1 0l-2.5-1.5c-0.2 0-0.2-0.1 0-0.2l2.6-1.5zm-21.2 19.6q0 0-0.1 0.1 0 0-0.1 0 0 0-0.1 0 0 0 0-0.1l-2.5-1.4c-0.2-0.1-0.1-0.2 0-0.2l2.5-1.5q0.1 0 0.1 0 0.1-0.1 0.1-0.1 0.1 0 0.1 0.1 0.1 0 0.1 0l2.5 1.4c0.1 0.1 0.1 0.2 0 0.2l-2.6 1.6zm27.8-20.4c0.1 0.1 0.1 0.2 0 0.2l-2.6 1.5q0 0.1-0.1 0.1 0 0-0.1 0 0 0-0.1 0 0 0-0.1-0.1l-2.5-1.4c-0.1-0.1-0.1-0.2 0-0.2l2.6-1.6q0.1 0 0.1 0 0.1 0 0.1 0 0.1 0 0.1 0 0.1 0 0.1 0zm-42.3 32.9q-0.1 0-0.1 0.1-0.1 0-0.1 0-0.1 0-0.1 0-0.1 0-0.1-0.1l-2.5-1.4c-0.1-0.1-0.1-0.2 0-0.2l2.6-1.5q0.1 0 0.1-0.1 0.1 0 0.1 0 0 0 0.1 0 0 0.1 0.1 0.1l2.5 1.4c0.1 0.1 0.1 0.2 0 0.2l-2.6 1.5zm46.8-27q0 0-0.1 0 0 0.1-0.1 0.1 0 0-0.1 0 0-0.1 0-0.1l-2.5-1.4c-0.2-0.1-0.2-0.2 0-0.2l2.6-1.5q0-0.1 0.1-0.1 0 0 0.1 0 0 0 0.1 0 0 0 0.1 0.1l2.5 1.4c0.1 0.1 0.1 0.2 0 0.2l-2.7 1.5zm-7.4 0.2q0 0-0.1 0 0 0-0.1 0 0 0-0.1 0 0 0 0 0l-2.5-1.4q-0.2-0.1 0-0.3l2.6-1.5q0 0 0.1 0 0 0 0.1 0 0 0 0 0 0.1 0 0.1 0l2.6 1.5c0.1 0 0.1 0.1 0 0.2l-2.7 1.5zm6.5-3.9c0.2 0 0.1 0.1 0 0.2l-2.6 1.5q0 0-0.1 0.1 0 0-0.1 0 0 0-0.1 0 0-0.1-0.1-0.1l-2.5-1.4c-0.1-0.1-0.1-0.2 0-0.2l2.7-1.6q0 0 0.1 0 0 0 0.1 0 0 0 0 0 0.1 0 0.1 0zm-1.7-1.9c-0.1 0-0.1-0.1 0.1-0.2l2.6-1.5q0 0 0.1 0 0 0 0.1 0 0 0 0.1 0 0 0 0.1 0l6 3.5c0.1 0.1 0.1 0.2 0 0.2l-2.6 1.6q0 0-0.1 0 0 0-0.1 0 0 0-0.1 0 0 0-0.1 0l-6-3.6zm-8.9 4.9q0.1 0 0.1 0 0.1 0 0.1 0 0.1 0 0.1 0 0.1 0 0.1 0.1l2.5 1.4q0.2 0.1 0 0.2l-2.6 1.5q0 0.1-0.1 0.1 0 0-0.1 0 0 0-0.1 0 0 0 0-0.1l-2.5-1.4c-0.2-0.1-0.2-0.2 0-0.2l2.6-1.5zm-28.7 16.5q0.1 0 0.1 0 0.1 0 0.1 0 0.1 0 0.1 0.1l2.5 1.4c0.2 0.1 0.1 0.2 0 0.2l-2.6 1.5q0 0.1-0.1 0.1 0 0-0.1 0 0 0-0.1 0 0 0-0.1-0.1l-2.5-1.4c-0.1-0.1-0.1-0.2 0-0.2l2.7-1.5q0-0.1 0-0.1zm33.5-14.9c-0.2-0.1-0.2-0.2 0-0.3l2.6-1.5q0 0 0.1 0 0 0 0.1 0 0 0 0.1 0 0 0 0.1 0l2.5 1.5c0.1 0 0.1 0.1 0 0.2l-2.7 1.5q0 0-0.1 0 0 0-0.1 0 0 0-0.1 0 0 0 0 0zm-29.7 12.8q0.1 0 0.1 0 0.1 0 0.1 0 0.1 0 0.1 0l2.5 1.5c0.1 0 0.1 0.1 0 0.2l-2.6 1.5q-0.1 0-0.1 0-0.1 0-0.1 0 0 0-0.1 0 0 0-0.1 0l-2.5-1.4c-0.1-0.1-0.1-0.2 0-0.3l2.6-1.5q0.1 0 0.1 0zm-32.5 23.1c-0.1-0.1-0.1-0.2 0-0.2l2.6-1.5q0-0.1 0.1-0.1 0 0 0.1 0 0 0 0.1 0 0 0 0.1 0.1l2.5 1.4c0.1 0.1 0.1 0.2 0 0.2l-2.6 1.5q-0.1 0.1-0.1 0.1-0.1 0-0.1 0-0.1 0-0.1 0-0.1 0-0.1-0.1zm-2-3.2q0.1 0 0.1 0 0.1 0 0.1 0 0.1 0 0.1 0 0.1 0 0.1 0l2.5 1.5q0.2 0.1 0 0.2l-2.6 1.5q0 0-0.1 0 0 0-0.1 0 0 0-0.1 0 0 0-0.1 0l-2.5-1.5c-0.1 0-0.1-0.1 0-0.2l2.6-1.5zm8.6 2.5q-0.1 0-0.1 0-0.1 0-0.1 0-0.1 0-0.1 0l-2.5-1.5c-0.1 0-0.1-0.1 0-0.2l2.6-1.5q0-0.1 0.1-0.1 0 0 0.1 0 0 0 0.1 0 0 0 0.1 0.1l2.5 1.4c0.1 0.1 0.1 0.2 0 0.2l-2.6 1.5q-0.1 0.1-0.1 0.1zm3.9-2.3q0 0.1-0.1 0.1 0 0-0.1 0 0 0-0.1 0 0 0 0 0l-2.5-1.5c-0.2 0-0.2-0.1 0-0.2l2.6-1.5q0-0.1 0.1-0.1 0 0 0.1 0 0 0 0.1 0 0 0 0.1 0.1l2.4 1.4c0.1 0.1 0.1 0.2 0 0.2l-2.6 1.5zm3.8-2.2q0 0.1-0.1 0.1 0 0-0.1 0-0.1 0-0.1 0-0.1 0-0.1-0.1l-2.5-1.4q-0.2-0.1 0-0.2l2.6-1.5q0-0.1 0.1-0.1 0 0 0.1 0 0 0 0.1 0 0 0 0.1 0.1l2.5 1.4c0.1 0.1 0.1 0.2 0 0.2l-2.6 1.5zm-12.5-0.2q0 0 0.1 0 0 0 0.1 0 0 0 0.1 0 0 0 0.1 0l2.5 1.5c0.1 0 0.1 0.1 0 0.2l-2.6 1.5q-0.1 0-0.1 0-0.1 0-0.1 0-0.1 0-0.1 0-0.1 0-0.1 0l-2.5-1.5q-0.2-0.1 0-0.2l2.6-1.5zm3.9-2.2q0 0 0 0 0.1-0.1 0.1 0 0.1 0 0.1 0l2.5 1.4c0.2 0.1 0.2 0.2 0 0.3l-2.6 1.5q0 0-0.1 0 0 0-0.1 0 0 0-0.1 0 0 0 0 0l-2.5-1.5c-0.2 0-0.2-0.1 0-0.2l2.6-1.5q0 0 0.1 0zm15.2-8.8q0 0 0.1-0.1 0 0 0.1 0 0 0 0 0.1 0.1 0 0.1 0l2.5 1.4c0.1 0.1 0.1 0.2 0 0.2l-2.6 1.6q0 0-0.1 0 0 0-0.1 0 0 0-0.1 0 0 0-0.1 0l-2.5-1.5q-0.1-0.1 0-0.2l2.7-1.5zm-3.9 2.2q0.1 0 0.1 0 0-0.1 0.1-0.1 0 0 0.1 0.1 0 0 0.1 0l2.5 1.4c0.1 0.1 0.1 0.2 0 0.2l-2.6 1.6q-0.1 0-0.1 0-0.1 0-0.1 0-0.1 0-0.1 0-0.1 0-0.1 0l-2.5-1.5c-0.1 0-0.1-0.1 0-0.2l2.6-1.5zm7.6-4.4q0.1 0 0.1-0.1 0.1 0 0.1 0 0.1 0 0.1 0 0 0 0.1 0.1l2.5 1.4q0.2 0.1 0 0.2l-2.6 1.5q-0.1 0.1-0.1 0.1-0.1 0-0.1 0-0.1 0-0.1 0-0.1 0-0.1-0.1l-2.5-1.4c-0.1-0.1-0.1-0.2 0-0.2l2.6-1.5zm-15.3 8.8q0.1 0 0.1 0 0 0 0.1 0 0 0 0.1 0 0 0 0.1 0l2.5 1.4c0.1 0.1 0.1 0.2 0 0.3l-2.6 1.5q-0.1 0-0.1 0-0.1 0-0.1 0-0.1 0-0.1 0-0.1 0-0.1 0l-2.5-1.5c-0.1 0-0.1-0.1 0-0.2l2.6-1.5zm3.8-2.2q0.1 0 0.1-0.1 0 0 0.1 0 0 0 0.1 0.1 0 0 0.1 0l2.5 1.4c0.1 0.1 0.1 0.2 0 0.3l-2.6 1.5q-0.1 0-0.1 0-0.1 0-0.1 0-0.1 0-0.1 0-0.1 0-0.1 0l-2.5-1.5c-0.1 0-0.1-0.1 0-0.2l2.6-1.5zm-5 14.4q0 0-0.1 0 0 0-0.1 0 0 0-0.1 0l-2.5-1.5q-0.1-0.1 0-0.2l2.6-1.5q0.1 0 0.1 0 0.1-0.1 0.1-0.1 0.1 0 0.1 0.1 0.1 0 0.1 0l2.5 1.4c0.1 0.1 0.1 0.2 0 0.2l-2.6 1.6q0 0-0.1 0zm-20-0.8l-2.7 1.5q0 0.1-0.1 0.1 0 0 0 0-0.1 0-0.1 0-0.1 0-0.1-0.1l-2.5-1.4c-0.2-0.1-0.1-0.2 0-0.2l2.6-1.5q0 0 0.1-0.1 0 0 0.1 0 0 0 0.1 0 0 0.1 0.1 0.1l2.5 1.4c0.1 0.1 0.1 0.2 0 0.2zm4.9 1.1c0.1 0 0.1 0.1 0.1 0.2l-4 2.3q-0.1 0-0.1 0-0.1 0.1-0.1 0.1-0.1 0-0.1-0.1-0.1 0-0.1 0l-2.5-1.4q-0.2-0.1 0-0.3l4-2.3q0 0 0.1 0 0 0 0.1 0 0 0 0.1 0 0 0 0.1 0l2.5 1.5zm-8.7-4.1q0.1 0.1-0.1 0.2l-3.2 1.8q0 0.1-0.1 0.1 0 0-0.1 0 0 0-0.1 0 0 0 0-0.1l-2.5-1.4c-0.2-0.1-0.2-0.2 0-0.2l3.2-1.9q0 0 0.1 0 0 0 0.1 0 0 0 0.1 0 0 0 0.1 0l2.5 1.5zm0-2.9q-0.2-0.1 0-0.2l2.6-1.5q0 0 0.1-0.1 0 0 0.1 0 0 0 0.1 0 0 0.1 0.1 0.1l2.5 1.4c0.1 0.1 0.1 0.2 0 0.2l-2.7 1.5q0 0.1-0.1 0.1 0 0-0.1 0 0 0-0.1 0 0 0 0-0.1zm13.3 8.5c0.1 0 0.1 0.1 0 0.2l-5 2.9q-0.1 0-0.1 0-0.1 0-0.1 0-0.1 0-0.1 0-0.1 0-0.1 0l-2.5-1.5c-0.1 0-0.1-0.1 0-0.2l5-2.9q0 0 0.1 0 0 0 0.1 0 0 0 0.1 0 0 0 0.1 0l2.5 1.5zm1.8 3.3l-3.2 1.9q-0.1 0-0.1 0-0.1 0-0.1 0-0.1 0-0.1 0-0.1 0-0.1 0l-2.5-1.5c-0.1 0-0.1-0.1 0-0.2l3.2-1.9q0 0 0.1 0 0 0 0.1 0 0 0 0.1 0 0 0 0.1 0l2.5 1.5c0 0 0 0.1 0 0.2zm13.3-28.2c-0.1 0-0.1-0.1 0-0.2l2.6-1.5q0 0 0.1 0 0-0.1 0.1-0.1 0 0 0.1 0.1 0 0 0.1 0l2.5 1.4c0.1 0.1 0.1 0.2 0 0.2l-2.6 1.6q-0.1 0-0.1 0-0.1 0-0.1 0-0.1 0-0.1 0-0.1 0-0.1 0zm-7.6 4.4q-0.2-0.1 0-0.2l2.6-1.6q0 0 0.1 0 0 0 0.1 0 0 0 0 0 0.1 0 0.1 0l2.6 1.5c0.1 0 0.1 0.1 0 0.2l-2.7 1.5q0 0-0.1 0.1 0 0 0 0-0.1 0-0.1 0-0.1-0.1-0.1-0.1zm-17 9.8c-0.1 0-0.1-0.1 0-0.2l2.6-1.5q0.1 0 0.1 0 0.1 0 0.1 0 0 0 0.1 0 0 0 0.1 0l2.5 1.5c0.1 0 0.1 0.1 0 0.2l-2.6 1.5q-0.1 0-0.1 0-0.1 0-0.1 0-0.1 0-0.1 0-0.1 0-0.1 0zm20.8-12c-0.1-0.1-0.1-0.2 0-0.2l2.6-1.5q0-0.1 0.1-0.1 0 0 0.1 0 0 0 0.1 0 0 0 0.1 0.1l2.5 1.4q0.2 0.1 0 0.2l-2.6 1.5q-0.1 0.1-0.1 0.1-0.1 0-0.1 0-0.1 0-0.1 0-0.1 0-0.1-0.1zm-7.6 4.5c-0.2-0.1-0.1-0.2 0-0.3l2.6-1.5q0 0 0.1 0 0 0 0.1 0 0 0 0.1 0 0 0 0.1 0l2.5 1.5c0.1 0 0.1 0.1 0 0.2l-2.7 1.5q0 0-0.1 0 0 0 0 0-0.1 0-0.1 0-0.1 0-0.1 0zm2.5 22.9c0.1 0.1 0.1 0.2 0 0.3l-4 2.3q-0.1 0-0.1 0-0.1 0-0.1 0-0.1 0-0.1 0-0.1 0-0.1 0l-2.5-1.5c-0.1 0-0.1-0.1 0-0.2l4-2.3q0 0 0.1 0 0 0 0.1 0 0 0 0.1 0 0 0 0.1 0zm-8-19.8c-0.1 0-0.1-0.1 0-0.2l2.6-1.5q0 0 0.1 0 0 0 0.1 0 0 0 0.1 0 0 0 0.1 0l2.5 1.4c0.1 0.1 0.1 0.2 0 0.3l-2.6 1.5q-0.1 0-0.1 0-0.1 0-0.1 0-0.1 0-0.1 0-0.1 0-0.1 0zm-3.9 2.1c-0.1 0-0.1-0.1 0-0.2l2.6-1.5q0.1 0 0.1 0 0.1-0.1 0.1-0.1 0.1 0 0.1 0.1 0.1 0 0.1 0l2.5 1.4c0.1 0.1 0.1 0.2 0 0.2l-2.6 1.6q-0.1 0-0.1 0-0.1 0-0.1 0-0.1 0-0.1 0-0.1 0-0.1 0zm82.6-23.3c0.1 0 0.1 0.1 0 0.2l-6.4 3.7q-0.1 0-0.1 0.1-0.1 0-0.1 0-0.1 0-0.1 0-0.1-0.1-0.1-0.1l-2.5-1.4c-0.1-0.1-0.1-0.2 0-0.2l6.4-3.8q0.1 0 0.1 0 0.1 0 0.1 0 0.1 0 0.1 0 0.1 0 0.1 0zm-8.4 5q0.2 0.1 0 0.2l-2.6 1.5q-0.1 0-0.1 0-0.1 0-0.1 0-0.1 0-0.1 0-0.1 0-0.1 0l-2.5-1.4c-0.1-0.1-0.1-0.2 0-0.3l2.6-1.5q0-0.1 0.1-0.1 0 0 0.1 0 0 0 0.1 0 0 0 0.1 0.1zm-54.1 27.2q-0.1 0-0.1 0.1-0.1 0-0.1 0-0.1 0-0.1 0-0.1-0.1-0.1-0.1l-2.5-1.4c-0.1-0.1-0.1-0.2 0-0.3l2.6-1.5q0 0 0.1 0 0 0 0.1 0 0 0 0.1 0 0 0 0.1 0l2.5 1.5c0.1 0 0.1 0.1 0 0.2l-2.6 1.5zm46.3-22.9c0.2 0.1 0.2 0.2 0 0.2l-2.6 1.5q0 0.1-0.1 0.1 0 0-0.1 0 0 0-0.1 0 0 0 0-0.1l-2.5-1.4c-0.1 0-0.1-0.1 0-0.2l2.6-1.5q0 0 0.1 0 0-0.1 0.1-0.1 0 0 0.1 0.1 0 0 0.1 0zm19.9-11.5c0.1 0.1 0.1 0.2 0 0.2l-2.6 1.5q0 0.1-0.1 0.1 0 0-0.1 0 0 0-0.1 0 0 0-0.1-0.1l-2.5-1.4c-0.1-0.1-0.1-0.2 0-0.2l2.6-1.5q0.1-0.1 0.1-0.1 0.1 0 0.1 0 0.1 0 0.1 0 0.1 0 0.1 0.1zm3.9-2.3c0.1 0.1 0.1 0.2-0.1 0.3l-2.6 1.5q0 0-0.1 0 0 0-0.1 0 0 0-0.1 0 0 0 0 0l-6.1-3.5c-0.1-0.1-0.1-0.2 0-0.3l2.6-1.5q0 0 0.1 0 0 0 0.1 0 0 0 0.1 0 0 0 0.1 0l6.1 3.5zm-38.1 22c0.2 0.1 0.2 0.2 0 0.3l-3.2 1.8q0 0-0.1 0.1 0 0-0.1 0 0 0-0.1 0 0-0.1-0.1-0.1l-2.5-1.4c-0.1-0.1-0.1-0.2 0-0.2l3.2-2q0.1 0 0.1 0 0.1 0 0.1 0 0.1 0 0.1 0 0.1 0 0.1 0zm9.7-5.6c0.1 0.1 0.1 0.2 0 0.3l-4 2.3q-0.1 0-0.1 0-0.1 0-0.1 0-0.1 0-0.1 0-0.1 0-0.1 0l-2.5-1.5q-0.2-0.1 0-0.2l4-2.3q0 0 0.1 0 0-0.1 0.1-0.1 0 0 0.1 0.1 0 0 0.1 0zm-35.9 12.7q-0.1 0-0.1 0-0.1 0-0.1 0-0.1 0-0.1 0-0.1 0-0.1 0l-2.5-1.4c-0.1-0.1-0.1-0.2 0-0.3l2.6-1.5q0 0 0.1 0 0 0 0.1 0 0 0 0.1 0 0 0 0.1 0l2.5 1.5c0.1 0 0.1 0.1 0 0.2l-2.6 1.5zm-5.4 11.1c0.2 0.1 0.2 0.2 0 0.2l-3.2 1.9q0 0-0.1 0 0 0-0.1 0 0 0-0.1 0 0 0 0 0l-2.5-1.4c-0.2-0.1-0.2-0.2 0-0.3l3.2-1.8q0 0 0.1-0.1 0 0 0.1 0 0 0 0.1 0 0 0.1 0.1 0.1zm27.1-15.7c0.1 0.1 0.1 0.2 0 0.2l-3.2 1.9q-0.1 0-0.1 0-0.1 0-0.1 0 0 0-0.1 0 0 0-0.1 0l-2.5-1.5c-0.1 0-0.1-0.1 0-0.2l3.2-1.8q0.1-0.1 0.1-0.1 0.1 0 0.1 0 0.1 0 0.1 0 0.1 0 0.1 0.1zm-31.6 18.2c0.1 0 0.1 0.2 0 0.2l-3.2 1.9q0 0-0.1 0 0 0-0.1 0 0 0-0.1 0 0 0-0.1 0l-2.5-1.5q-0.2-0.1 0-0.2l3.2-1.9q0.1 0 0.1 0 0.1 0 0.1 0 0.1 0 0.1 0 0.1 0 0.1 0zm40.4-23.3q0.2 0.1 0 0.2l-3.2 1.9q0 0-0.1 0 0 0-0.1 0 0 0-0.1 0 0 0-0.1 0l-2.5-1.5c-0.1 0-0.1-0.1 0-0.2l3.3-1.9q0 0 0.1 0 0 0 0.1 0 0 0 0 0 0.1 0 0.1 0zm13.7-7.8c0.1 0 0.1 0.1 0 0.2l-2.6 1.5q0 0-0.1 0 0 0-0.1 0 0 0-0.1 0 0 0-0.1 0l-2.5-1.5q-0.2-0.1 0-0.2l2.6-1.5q0.1 0 0.1 0 0.1 0 0.1 0 0.1 0 0.1 0 0.1 0 0.1 0zm6.1-7.4q-0.1 0-0.1 0-0.1 0-0.1 0 0 0-0.1 0 0 0-0.1 0l-2.5-1.5c-0.1 0-0.1-0.1 0-0.2l2.6-1.5q0.1 0 0.1 0 0.1-0.1 0.1-0.1 0.1 0 0.1 0.1 0.1 0 0.1 0l2.5 1.4q0.2 0.1 0 0.3l-2.6 1.5zm-15.6 0.7q-0.1 0-0.1 0-0.1 0-0.1 0-0.1 0-0.1 0 0 0-0.1 0l-2.5-1.5c-0.1 0-0.1-0.1 0-0.2l2.6-1.5q0.1 0 0.1 0 0.1 0 0.1 0 0.1 0 0.1 0 0.1 0 0.1 0l2.5 1.5c0.1 0 0.1 0.1 0 0.2l-2.6 1.5zm-10.2 14.1q0 0-0.1 0 0 0 0 0-0.1 0-0.1 0-0.1 0-0.1 0l-2.5-1.5c-0.2 0-0.1-0.1 0-0.2l7.6-4.4q0.1 0 0.1-0.1 0.1 0 0.1 0 0 0 0.1 0 0 0.1 0.1 0.1l2.5 1.4c0.1 0.1 0.1 0.2 0 0.3l-7.7 4.4zm19.1-14.1c-0.1-0.1-0.1-0.2 0-0.3l2.6-1.5q0 0 0.1 0 0 0 0.1 0 0 0 0.1 0 0 0 0.1 0l2.5 1.5c0.1 0 0.1 0.1 0 0.2l-2.6 1.5q-0.1 0-0.1 0-0.1 0-0.1 0-0.1 0-0.1 0-0.1 0-0.1 0zm-0.7-0.6q-0.1 0-0.1 0-0.1 0-0.1 0-0.1 0-0.1 0-0.1 0-0.1 0l-2.5-1.5c-0.1 0-0.1-0.1 0-0.2l2.6-1.5q0.1 0 0.1-0.1 0.1 0 0.1 0 0.1 0 0.1 0 0.1 0.1 0.1 0.1l2.5 1.4c0.1 0.1 0.1 0.2 0 0.2l-2.6 1.6zm-22.2 16.9q0 0-0.1 0 0 0-0.1 0 0 0-0.1 0 0 0-0.1-0.1l-2.5-1.4c-0.1-0.1-0.1-0.2 0-0.2l2.7-1.5q0-0.1 0-0.1 0.1 0 0.1 0 0.1 0 0.1 0 0.1 0 0.1 0.1l2.5 1.4c0.2 0.1 0.1 0.2 0 0.2l-2.6 1.5zm14.4-11.4c-0.1-0.1-0.1-0.2 0-0.2l2.6-1.6q0.1 0 0.1 0 0.1 0 0.1 0 0.1 0 0.1 0 0.1 0 0.1 0l2.5 1.5c0.1 0 0.1 0.1 0 0.2l-2.6 1.5q0 0-0.1 0 0 0.1-0.1 0.1 0 0-0.1-0.1 0 0-0.1 0zm-33.5 22.5q0 0-0.1 0 0 0-0.1 0 0 0-0.1 0 0 0-0.1 0l-2.5-1.5c-0.1 0-0.1-0.1 0-0.2l2.7-1.5q0 0 0-0.1 0.1 0 0.1 0 0.1 0 0.1 0 0.1 0.1 0.1 0.1l2.5 1.4c0.2 0.1 0.2 0.2 0 0.3l-2.6 1.5zm3.9-2.2q-0.1 0-0.1 0-0.1 0-0.1 0-0.1 0-0.1-0.1-0.1 0-0.1 0l-2.5-1.4c-0.1-0.1-0.1-0.2 0-0.3l2.6-1.5q0 0 0.1 0 0 0 0.1 0 0 0 0.1 0 0 0 0.1 0l2.5 1.5q0.2 0.1 0 0.2l-2.6 1.5zm-7.8 4.5q0 0-0.1 0 0 0-0.1 0 0 0-0.1-0.1l-2.5-1.4c-0.1-0.1-0.1-0.2 0-0.2l2.7-1.5q0-0.1 0-0.1 0.1 0 0.1 0 0.1 0 0.1 0 0.1 0 0.1 0.1l2.5 1.4c0.2 0.1 0.2 0.2 0 0.2l-2.6 1.5q0 0.1-0.1 0.1zm15.4-8.9q0 0-0.1 0 0 0-0.1 0 0 0-0.1 0 0 0-0.1 0l-2.5-1.4c-0.1-0.1-0.1-0.2 0-0.3l2.7-1.5q0 0 0 0 0.1 0 0.1 0 0.1 0 0.1 0 0.1 0 0.1 0l2.5 1.5q0.2 0.1 0 0.2l-2.6 1.5zm-3.8 2.2q-0.1 0-0.1 0.1-0.1 0-0.1 0-0.1 0-0.1 0-0.1 0-0.1-0.1l-2.5-1.4q-0.2-0.1 0-0.2l2.6-1.5q0.1-0.1 0.1-0.1 0.1 0 0.1 0 0.1 0 0.1 0 0.1 0 0.1 0.1l2.5 1.4c0.1 0.1 0.1 0.2 0 0.2l-2.6 1.5zm7.6-4.4q0 0.1-0.1 0.1 0 0-0.1 0 0 0-0.1 0 0 0 0 0l-2.5-1.5c-0.2 0-0.2-0.1 0-0.2l2.6-1.5q0 0 0.1 0 0-0.1 0.1-0.1 0 0 0.1 0.1 0 0 0.1 0l2.5 1.4c0.1 0.1 0.1 0.2 0 0.3l-2.7 1.5zm20.2-31.1c-0.1 0-0.1-0.1 0-0.2l2.6-1.5q0.1 0 0.1 0 0.1-0.1 0.1-0.1 0.1 0 0.1 0.1 0.1 0 0.1 0l0.7 0.4c0.1 0 0.1 0.1 0 0.2l-2.6 1.5q-0.1 0-0.1 0-0.1 0-0.1 0-0.1 0-0.1 0-0.1 0-0.1 0zm-20.9 10.9c-0.1 0-0.1-0.1 0-0.2l2.7-1.5q0 0 0.1 0 0 0 0.1 0 0 0 0 0 0.1 0 0.1 0l2.5 1.5c0.2 0 0.2 0.1 0 0.2l-2.6 1.5q0 0-0.1 0 0 0-0.1 0 0 0-0.1 0 0 0-0.1 0zm7.7-4.4q-0.2-0.1 0-0.3l2.6-1.5q0 0 0.1 0 0 0 0.1 0 0 0 0.1 0 0 0 0.1 0l2.5 1.5c0.1 0 0.1 0.1 0 0.2l-2.6 1.5q-0.1 0-0.1 0-0.1 0-0.1 0-0.1 0-0.1 0-0.1 0-0.1 0zm-12.3 7.1c-0.1 0-0.1-0.1 0-0.2l2.6-1.5q0 0 0.1 0 0 0 0.1 0 0 0 0.1 0 0 0 0.1 0l2.5 1.5q0.2 0.1 0 0.2l-2.6 1.5q-0.1 0-0.1 0-0.1 0-0.1 0-0.1 0-0.1 0-0.1 0-0.1 0zm8.5-4.9c-0.1-0.1-0.1-0.2 0-0.2l2.6-1.5q0-0.1 0.1-0.1 0 0 0.1 0 0 0 0.1 0 0 0 0.1 0.1l2.5 1.4q0.1 0.1 0 0.2l-2.6 1.5q-0.1 0.1-0.1 0.1-0.1 0-0.1 0-0.1 0-0.1 0-0.1 0-0.1-0.1zm-16.1 9.3c-0.2 0-0.2-0.1 0-0.2l2.6-1.5q0 0 0.1 0 0 0 0.1 0 0 0 0 0 0.1 0 0.1 0l2.5 1.5c0.2 0 0.2 0.1 0 0.2l-2.6 1.5q0 0-0.1 0 0 0-0.1 0 0 0-0.1 0 0 0-0.1 0zm3.9-2.2c-0.2-0.1-0.1-0.2 0-0.2l2.6-1.5q0-0.1 0.1-0.1 0 0 0.1 0 0 0 0.1 0 0 0 0.1 0.1l2.5 1.4c0.1 0.1 0.1 0.2 0 0.2l-2.7 1.5q0 0-0.1 0.1 0 0 0 0-0.1 0-0.1 0-0.1-0.1-0.1-0.1zm21.6-11.4q-0.1-0.1 0-0.3l2.6-1.5q0.1 0 0.1 0 0.1 0 0.1 0 0.1 0 0.1 0 0.1 0 0.1 0l0.7 0.4c0.1 0.1 0.1 0.2 0 0.2l-2.6 1.5q-0.1 0.1-0.1 0.1-0.1 0-0.1 0-0.1 0-0.1 0-0.1 0-0.1-0.1zm11.5-6.6c-0.2 0-0.2-0.1 0-0.2l2.6-1.5q0 0 0.1 0 0 0 0.1 0 0 0 0 0 0.1 0 0.1 0l0.7 0.4c0.1 0 0.1 0.1 0 0.2l-2.6 1.5q-0.1 0-0.1 0-0.1 0.1-0.1 0.1 0 0-0.1-0.1 0 0-0.1 0zm3.5 2c-0.2-0.1-0.1-0.2 0-0.3l2.5-1.5q0.1 0 0.1 0 0.1 0 0.1 0 0.1 0 0.1 0 0.1 0 0.1 0l2.5 1.5q0.2 0.1 0 0.2l-2.6 1.5q0 0-0.1 0 0 0-0.1 0 0 0-0.1 0 0 0-0.1 0zm9.7 9.8q-0.1 0.1-0.1 0.1-0.1 0-0.1-0.1 0 0-0.1 0l-2.5-1.4q-0.2-0.1 0-0.2l2.6-1.6q0.1 0 0.1 0 0.1 0 0.1 0 0 0 0.1 0 0 0 0.1 0l2.5 1.5c0.1 0 0.1 0.1 0 0.2l-2.6 1.5q-0.1 0-0.1 0zm-20.8-7.4c-0.1 0-0.1-0.1 0-0.2l2.7-1.5q0 0 0 0 0.1-0.1 0.1-0.1 0.1 0 0.1 0.1 0.1 0 0.1 0l0.7 0.4c0.1 0 0.1 0.1 0 0.2l-2.6 1.5q-0.1 0-0.1 0-0.1 0.1-0.1 0.1-0.1 0-0.1-0.1-0.1 0-0.1 0zm-33.1 18.1c-0.2-0.1-0.1-0.2 0-0.2l2.6-1.5q0-0.1 0.1-0.1 0 0 0.1 0 0 0 0.1 0 0 0 0.1 0.1l2.5 1.4c0.1 0.1 0.1 0.2 0 0.2l-2.7 1.5q0 0.1-0.1 0.1 0 0 0 0-0.1 0-0.1 0-0.1 0-0.1-0.1z"/>
			<g id="freepik--tuch-pad--inject-150">
				<path class="s3" d="m120.2 434.3l0.6 0.4 15.1 8.7 26.8-15.5 0.6-0.3-15.7-9.1-27.4 15.8z"/>
				<path class="s4" d="m162.4 428.1l-14.8-8.6-26.5 15.4 14.8 8.5 26.5-15.3z"/>
			</g>
			<path class="s4" d="m45.2 429c-1-0.6-1.2-1.4-1.2-3v-74.3q0-0.6 0.2-1.3 0.2-0.6 0.5-1.2 0.3-0.5 0.8-1 0.4-0.5 1-0.8l90.8-52.5c1.4-0.8 2.4-1.2 3.6-0.3 1.1 1 1.1 1.5 1.1 3v74.3q0 0.6-0.2 1.3-0.2 0.6-0.5 1.2-0.3 0.5-0.8 1-0.4 0.5-1 0.8l-90.8 52.5c-1.4 0.8-2.2 1-3.5 0.3z"/>
			<path class="s17" d="m142 297.6c0-1.5-1.1-2.2-2.5-1.4l-90.8 52.5q-0.3 0.1-0.6 0.3-0.2 0.3-0.4 0.5-0.3 0.2-0.5 0.5-0.1 0.2-0.3 0.5l-2.2-1.2q0.2-0.3 0.3-0.6 0.2-0.3 0.5-0.5 0.2-0.2 0.4-0.4 0.3-0.2 0.6-0.4l90.8-52.5c1.4-0.8 2.4-1.2 3.5-0.3 1.2 1 1.2 1.5 1.2 3z"/>
			<path class="s3" d="m48.5 428.8q-0.4 0.2-0.8 0.4-0.4 0.2-0.8 0.2-0.5 0-0.9-0.1-0.4-0.1-0.8-0.3c-0.9-0.5-1.2-1.5-1.2-3v-74.3q0-0.3 0-0.7 0.1-0.3 0.2-0.6 0.1-0.3 0.2-0.6 0.1-0.3 0.3-0.6l2.2 1.3q-0.2 0.3-0.3 0.6-0.1 0.3-0.2 0.6-0.1 0.3-0.2 0.6 0 0.4 0 0.7v74.2c0 1.5 1.1 2.3 2.3 1.6z"/>
			<path class="s2" d="m50 351.5l87.4-50.4c0.9-0.5 1.5-0.1 1.5 0.8v69.3q0 0.4-0.1 0.8-0.1 0.3-0.3 0.7-0.2 0.3-0.5 0.6-0.2 0.3-0.6 0.5l-87.4 50.5c-0.8 0.4-1.5 0-1.5-0.9v-69.3q0-0.4 0.1-0.7 0.2-0.4 0.3-0.7 0.2-0.4 0.5-0.7 0.3-0.2 0.6-0.5z"/>
			<path class="s21" d="m50 351.5q-0.3 0.3-0.6 0.5-0.3 0.3-0.5 0.7-0.1 0.3-0.3 0.7-0.1 0.3-0.1 0.7v68.1l86.5-49.8q0.3-0.3 0.6-0.5 0.3-0.3 0.5-0.7 0.1-0.3 0.3-0.7 0.1-0.4 0.1-0.7v-68.2z"/>
		</g>
		<g id="freepik--Spreadsheets--inject-150">
			<path class="s7" d="m143.7 315.6l-3.6-2.1-84.8 50.5v56.8q0 0.3 0 0.7 0.1 0.3 0.2 0.7 0.2 0.3 0.4 0.6 0.2 0.2 0.5 0.4l2.3 1.3q0.3 0.2 0.7 0.3 0.3 0 0.7 0 0.4-0.1 0.7-0.2 0.3-0.1 0.6-0.3l78.5-45.3q0.8-0.5 1.5-1.3 0.7-0.7 1.2-1.6 0.5-0.8 0.7-1.8 0.3-0.9 0.4-1.9z"/>
			<path class="s5" d="m55.3 374.2v46.6q0 0.3 0 0.7 0.1 0.3 0.2 0.7 0.2 0.3 0.4 0.6 0.2 0.2 0.5 0.4l2.3 1.3q0.1 0.1 0.2 0.2 0.2 0 0.3 0 0.1 0.1 0.2 0.1 0.2 0 0.3 0l-2.1-2.7v-46.6z"/>
			<path class="s21" d="m59.7 424.4q0.2 0 0.4-0.1 0.2 0 0.4-0.1 0.2 0 0.3-0.1 0.2-0.1 0.4-0.2l78.4-45.3q0.8-0.5 1.5-1.2 0.6-0.7 1.1-1.5 0.5-0.8 0.7-1.7 0.3-0.9 0.3-1.8v-56l-85.2 49.2v56.5c0 1.4 0.7 2.3 1.7 2.3z"/>
			<path fill-rule="evenodd" class="s1" d="m143.7 315.6zm0 0v56.8q-0.1 1-0.4 1.9-0.3 1-0.8 1.8-0.5 0.9-1.1 1.6-0.7 0.8-1.6 1.3l-78.4 45.3q-0.2 0.1-0.4 0.2-0.2 0.1-0.4 0.2-0.3 0-0.5 0.1-0.2 0-0.4 0c-1.3 0-2.1-1-2.1-2.7v-56.8zm-0.9 1.5zm0 0l-84.3 48.7v56.3c0 0.5 0.2 1.8 1.3 1.8q0.1 0 0.3 0 0.2-0.1 0.3-0.1 0.2-0.1 0.3-0.1 0.2-0.1 0.3-0.2l78.4-45.3q0.8-0.5 1.4-1.1 0.6-0.7 1-1.4 0.5-0.8 0.7-1.6 0.3-0.9 0.3-1.7z"/>
			<path class="s11" d="m140.3 308.4q-0.3-0.1-0.7-0.2-0.3-0.1-0.7 0-0.3 0-0.7 0.1-0.3 0.2-0.6 0.4l-78.5 45.3q-0.8 0.5-1.5 1.3-0.7 0.7-1.2 1.5-0.5 0.9-0.7 1.9-0.3 0.9-0.4 1.9v3.4l2.3 1.3 86.1-49.7v-3.4q0-0.4 0-0.7-0.1-0.4-0.2-0.7-0.2-0.3-0.4-0.6-0.2-0.3-0.5-0.5c-0.7-0.3-1.7-0.9-2.3-1.3z"/>
			<path class="s11" d="m57.6 361.9q0.1-1 0.3-2 0.3-0.9 0.8-1.8 0.5-0.8 1.2-1.5 0.7-0.8 1.5-1.3l78.5-45.3c2.1-1.2 3.8-0.2 3.8 2.2v3.4l-86.1 49.7z"/>
			<path class="s18" d="m57.6 361.9q0.1-1 0.3-2 0.3-0.9 0.8-1.8 0.5-0.8 1.2-1.5 0.7-0.8 1.5-1.3l78.5-45.3c2.1-1.2 3.8-0.2 3.8 2.2v3.4l-86.1 49.7z"/>
			<path class="s11" d="m142.6 309.8q-0.3-0.2-0.7-0.3-0.3 0-0.7 0-0.4 0-0.7 0.1-0.3 0.2-0.6 0.4l-78.5 45.3q-0.4 0.3-0.8 0.6-0.4 0.3-0.7 0.6-0.4 0.4-0.6 0.8-0.3 0.4-0.6 0.8l-2.3-1.3q0.3-0.4 0.6-0.8 0.3-0.4 0.6-0.8 0.3-0.3 0.7-0.7 0.4-0.3 0.8-0.5l78.5-45.3q0.3-0.2 0.6-0.4 0.4-0.1 0.7-0.1 0.4-0.1 0.7 0 0.4 0.1 0.7 0.2c0.6 0.4 1.6 1 2.3 1.3z"/>
			<path class="s19" d="m142.6 309.8q-0.3-0.2-0.7-0.3-0.3 0-0.7 0-0.4 0-0.7 0.1-0.3 0.2-0.6 0.4l-78.5 45.3q-0.4 0.3-0.8 0.6-0.4 0.3-0.7 0.6-0.4 0.4-0.6 0.8-0.3 0.4-0.6 0.8l-2.3-1.3q0.3-0.4 0.6-0.8 0.3-0.4 0.6-0.8 0.3-0.3 0.7-0.7 0.4-0.3 0.8-0.5l78.5-45.3q0.3-0.2 0.6-0.4 0.4-0.1 0.7-0.1 0.4-0.1 0.7 0 0.4 0.1 0.7 0.2c0.6 0.4 1.6 1 2.3 1.3z"/>
			<path class="s21" d="m130.4 318.1q-0.3 0.2-0.6 0.5-0.2 0.2-0.4 0.5-0.2 0.3-0.3 0.6-0.1 0.4-0.1 0.7c0 0.9 0.6 1.2 1.4 0.8q0.3-0.2 0.5-0.5 0.2-0.2 0.4-0.5 0.2-0.3 0.3-0.6 0.1-0.4 0.1-0.7c0-0.9-0.6-1.2-1.3-0.8z"/>
			<path class="s21" d="m135 315.4q-0.3 0.2-0.5 0.5-0.3 0.2-0.4 0.5-0.2 0.3-0.3 0.7-0.1 0.3-0.1 0.6c0 0.9 0.6 1.2 1.3 0.8q0.3-0.2 0.5-0.4 0.3-0.3 0.4-0.6 0.2-0.3 0.3-0.6 0.1-0.4 0.1-0.7c0-0.8-0.5-1.2-1.3-0.8z"/>
			<path class="s21" d="m139.7 312.8q-0.3 0.1-0.5 0.4-0.3 0.2-0.5 0.5-0.1 0.3-0.2 0.7-0.1 0.3-0.1 0.6c0 0.9 0.6 1.2 1.3 0.8q0.3-0.2 0.5-0.4 0.2-0.3 0.4-0.6 0.2-0.3 0.3-0.6 0.1-0.3 0.1-0.7c0-0.8-0.6-1.2-1.3-0.8z"/>
			<path class="s8" d="m57.6 365.3v10.1l86.1-49.6v-10.2l-86.1 49.7z"/>
			<path class="s1" d="m61 365.9l8.9-5.1v5l-8.9 5.1v-5z"/>
			<path class="s1" d="m72 359.5v2l4.5-2.5v-2l-4.5 2.5z"/>
			<path class="s1" d="m72 362.6v2l4.5-2.6v-2l-4.5 2.6z"/>
			<path class="s1" d="m78.7 355.7v2l4.3-2.6v-2l-4.3 2.6z"/>
			<path class="s1" d="m78.7 358.8v2l4.3-2.6v-2l-4.3 2.6z"/>
			<path class="s1" d="m85.2 351.9v2l4.4-2.6v-2l-4.4 2.6z"/>
			<path class="s1" d="m85.2 355v2l4.4-2.6v-2l-4.4 2.6z"/>
			<path class="s1" d="m105 340.4v2.1l4.4-2.6v-2l-4.4 2.6z"/>
			<path class="s1" d="m105 343.5v2l4.4-2.5v-2l-4.4 2.5z"/>
			<path class="s1" d="m111.6 336.6v2l4.4-2.5v-2l-4.4 2.5z"/>
			<path class="s1" d="m111.6 339.7v2l4.4-2.5v-2l-4.4 2.5z"/>
			<path class="s1" d="m118.2 332.8v2l4.4-2.5v-2l-4.4 2.5z"/>
			<path class="s1" d="m118.2 335.9v2l4.4-2.5v-2l-4.4 2.5z"/>
			<path class="s1" d="m91.8 348.1l11-6.4v5.1l-11 6.3v-5z"/>
			<path class="s1" d="m124.8 329l8.9-5v5l-8.9 5.1v-5.1z"/>
			<path class="s1" d="m135.8 322.7v2l4.4-2.6v-2l-4.4 2.6z"/>
			<path class="s1" d="m135.8 325.8v2l4.4-2.6v-2l-4.4 2.6z"/>
			<path class="s1" d="m57.6 365.3l-2.3-1.3v10.2l2.3 1.2v-10.1z"/>
			<g id="freepik--spreadsheets--inject-150">
				<path class="s11" d="m71 374.9l9.8-5.7v4.5l-9.8 5.7v-4.5z"/>
				<path class="s11" d="m71 411.3l9.8-5.7v4.6l-9.8 5.7v-4.6z"/>
				<path class="s11" d="m130.2 377.1l9.8-5.7v4.6l-9.8 5.7v-4.6z"/>
				<path class="s18" d="m130.2 377.1l9.8-5.7v4.6l-9.8 5.7v-4.6z"/>
				<path class="s11" d="m80.8 396.5l9.9-5.7v4.6l-9.9 5.7v-4.6z"/>
				<path class="s15" d="m80.8 396.5l9.9-5.7v4.6l-9.9 5.7v-4.6z"/>
				<path class="s11" d="m100.6 362.3l9.8-5.7v4.6l-9.8 5.7v-4.6z"/>
				<path class="s25" d="m100.6 362.3l9.8-5.7v4.6l-9.8 5.7v-4.6z"/>
				<path fill-rule="evenodd" class="s1" d="m140.3 330v46.1l-0.5 0.3-9.3 5.4-0.5 0.3-9.4 5.4-0.5 0.3-9.4 5.4-0.5 0.3-9.4 5.4-0.5 0.3-9.3 5.4-0.5 0.3-9.4 5.4-19.7 11.4-0.5 0.3v-46.2h0.1zm-69.6 81.8l-9.4 5.4v4l9.4-5.4zm0-4.6l-9.4 5.4v4l9.4-5.4zm0-4.6l-9.4 5.5v4l9.4-5.5zm0-4.5l-9.4 5.4v4l9.4-5.4zm0-4.6l-9.4 5.4v4l9.4-5.4zm0-4.5l-9.4 5.3v4l9.4-5.4zm0.1-4.5l-9.4 5.4v4l9.4-5.5zm0-4.5l-9.4 5.4v4l9.4-5.4zm0-4.6l-9.4 5.4v4l9.4-5.4zm0-4.5l-9.4 5.4v4l9.4-5.4zm9.9 35.3l-9.4 5.5v4l9.4-5.5zm0-4.5l-9.4 5.4v4l9.4-5.4zm0-4.6l-9.4 5.4v4l9.4-5.4zm0-4.5l-9.4 5.4v4l9.4-5.4zm0-4.6l-9.4 5.4v4l9.4-5.4zm0-4.6l-9.4 5.4v4l9.4-5.4zm-0.1-4.6l-9.4 5.4v4l9.5-5.4zm0-4.5l-9.4 5.4v4l9.4-5.4zm0-4.6l-9.4 5.5v4l9.4-5.4zm0-4.6l-9.4 5.4v4l9.4-5.4zm9.9 35.4l-9.4 5.4v4l9.4-5.4zm0-4.5l-9.4 5.4v4l9.4-5.4zm0-4.6l-9.4 5.4v4l9.4-5.4zm0-4.6l-9.4 5.5v4l9.4-5.5zm0-4.6l-9.4 5.5v4l9.4-5.5zm0-4.5l-9.4 5.4v4l9.4-5.4zm0-4.6l-9.3 5.5v4l9.4-5.5zm0-4.5l-9.4 5.4v4l9.4-5.4zm0-4.5l-9.4 5.4v4l9.4-5.4zm0-4.6l-9.4 5.4v4l9.4-5.4zm9.9 35.4l-9.4 5.4v4l9.4-5.4zm0-4.6l-9.4 5.4v4l9.4-5.4zm-0.1-4.5l-9.3 5.4v4l9.4-5.5zm0-4.6l-9.4 5.5v4l9.4-5.5zm0-4.5l-9.4 5.4v4l9.4-5.4zm0-4.6l-9.4 5.4v4l9.4-5.4zm0-4.5l-9.4 5.4v4l9.4-5.4zm0-4.6l-9.4 5.4v4l9.4-5.4zm0-4.5l-9.4 5.4v4l9.4-5.4zm0-4.6l-9.4 5.4v4l9.4-5.4zm9.9 35.4l-9.4 5.4v4l9.4-5.4zm0-4.5l-9.4 5.4v4l9.4-5.4zm0-4.6l-9.4 5.4v4l9.4-5.4zm0-4.6l-9.4 5.4v4l9.4-5.4zm0-4.5l-9.4 5.4v4l9.4-5.4zm0-4.6l-9.4 5.5v4l9.4-5.5zm0-4.6l-9.4 5.4v4l9.4-5.3zm0-4.5l-9.4 5.4v4l9.4-5.4zm0-4.6l-9.4 5.4v4l9.4-5.4zm0-4.5l-9.4 5.4v4l9.4-5.4zm9.8 35.3l-9.3 5.4v4l9.3-5.4zm0-4.6l-9.3 5.5v4l9.3-5.4zm0-4.6l-9.3 5.4v4l9.3-5.4zm0-4.6l-9.3 5.4v4l9.3-5.3zm0-4.5l-9.3 5.4v4l9.3-5.4zm0-4.6l-9.3 5.4v4l9.3-5.4zm0-4.6l-9.3 5.5v4l9.3-5.5zm0-4.5l-9.3 5.4v4l9.3-5.4zm0-4.6l-9.3 5.4v4l9.3-5.4zm0-4.6l-9.3 5.5v4l9.3-5.5zm9.9 35.3l-9.4 5.5v4l9.4-5.4zm0-4.6l-9.4 5.4v4l9.4-5.4zm0-4.5l-9.4 5.4v4l9.4-5.4zm0-4.6l-9.4 5.4v4l9.4-5.4zm0-4.5l-9.4 5.4v4l9.4-5.4zm0-4.6l-9.4 5.4v4l9.4-5.4zm0-4.6l-9.4 5.5v4l9.4-5.4zm0-4.6l-9.4 5.4v4l9.4-5.4zm0-4.6l-9.4 5.4v4l9.4-5.4zm0-4.5l-9.4 5.4v4l9.4-5.4zm9.9 35.3l-9.4 5.4v4l9.4-5.4zm0-4.6l-9.4 5.4v4l9.4-5.4zm0-4.5l-9.4 5.4v4l9.4-5.4zm0-4.6l-9.4 5.4v4l9.4-5.4zm0-4.6l-9.4 5.4v4l9.4-5.3zm0-4.5l-9.4 5.4v4l9.4-5.4zm0-4.6l-9.4 5.4v4l9.4-5.4zm0-4.6l-9.4 5.5v4l9.4-5.5zm0-4.5l-9.4 5.4v4l9.4-5.4zm0-4.6l-9.4 5.4v4l9.4-5.4z"/>
			</g>
		</g>
	</g>
	<g id="freepik--magnifying-glass--inject-150">
		<g id="freepik--Glass--inject-150">
			<path fill-rule="evenodd" class="s11" d="m197.1 124.8c30.8-17.8 80.6-17.8 111.4 0 15.3 8.9 23 20.5 23 32.1v21.4c0 11.7-7.7 23.3-23 32.2-30.8 17.7-80.6 17.7-111.4 0-15.3-8.9-23-20.5-23-32.2v-21.4c0-11.6 7.7-23.2 23-32.1zm107.6 6.6c-13.8-8-32.2-12.3-51.9-12.3-19.7 0-38.1 4.3-51.9 12.3-12.4 7.1-19.2 16.2-19.2 25.5 0 9.3 6.8 18.4 19.2 25.6 13.8 7.9 32.2 12.3 51.9 12.3 19.7 0 38.1-4.4 51.9-12.3 12.4-7.2 19.2-16.3 19.2-25.6 0-9.3-6.8-18.4-19.2-25.5z"/>
			<path class="s12" d="m331.4 180.3c-1.2 7.4-4.4 12.9-17.5 23.2-18.5 14.4-65.3 20.3-92.4 11.3-25.7-8.4-33.8-25-33.8-36.3v-6.7c-3.9-4.7-6-9.8-6-14.9 0-5.1 2.2-10.4 6.4-15.3l0.1-9.3h-1.5c-8.4 7.4-12.6 16-12.6 24.6v21.4c0 11.7 7.7 23.3 23.1 32.2 30.7 17.7 80.6 17.7 111.3 0 14.5-8.4 22.1-19.2 22.9-30.2z"/>
			<path fill-rule="evenodd" class="s11" d="m308.5 189.1c-30.8 17.7-80.6 17.7-111.4 0-30.7-17.8-30.7-46.6 0-64.3 30.8-17.8 80.6-17.8 111.4 0 30.7 17.7 30.7 46.5 0 64.3zm15.4-32.2c0-9.3-6.8-18.4-19.2-25.5-13.8-8-32.2-12.3-51.9-12.3-19.7 0-38.1 4.3-51.8 12.3-12.5 7.1-19.3 16.2-19.3 25.5 0 9.3 6.8 18.4 19.3 25.6 13.7 7.9 32.1 12.2 51.8 12.2 19.7 0 38.1-4.3 51.9-12.2 12.4-7.2 19.2-16.3 19.2-25.6z"/>
			<path fill-rule="evenodd" class="s18" d="m308.5 189.1c-30.8 17.7-80.6 17.7-111.4 0-30.7-17.8-30.7-46.6 0-64.3 30.8-17.8 80.6-17.8 111.4 0 30.7 17.7 30.7 46.5 0 64.3zm15.4-32.2c0-9.3-6.8-18.4-19.2-25.5-13.8-8-32.2-12.3-51.9-12.3-19.7 0-38.1 4.3-51.8 12.3-12.5 7.1-19.3 16.2-19.3 25.5 0 9.3 6.8 18.4 19.3 25.6 13.7 7.9 32.1 12.2 51.8 12.2 19.7 0 38.1-4.3 51.9-12.2 12.4-7.2 19.2-16.3 19.2-25.6z"/>
			<path class="s11" d="m323.9 156.9q0 1.4-0.2 2.8-0.2 1.4-0.6 2.8-0.4 1.3-1 2.6-0.5 1.3-1.3 2.5c-3.1-5.4-8.6-10.4-16.1-14.8-13.8-7.9-32.2-12.3-51.9-12.3-19.7 0-38.1 4.4-51.8 12.3-7.6 4.3-13.1 9.4-16.2 14.8q-0.8-1.2-1.3-2.5-0.6-1.3-1-2.6-0.4-1.4-0.6-2.8-0.2-1.4-0.2-2.8c0-9.3 6.8-18.4 19.3-25.5 13.7-8 32.1-12.3 51.8-12.3 19.7 0 38.1 4.3 51.9 12.3 12.4 7.1 19.2 16.2 19.2 25.5z"/>
			<path class="s5" d="m201 131.4c-12.4 7.1-19.3 16.2-19.3 25.5q0.1 1.4 0.3 2.8 0.2 1.4 0.6 2.8 0.3 1.3 0.9 2.6 0.6 1.3 1.3 2.5c3.1-5.4 8.6-10.4 16.2-14.8q1.2-0.7 2.4-1.3 1.3-0.7 2.5-1.3 1.3-0.6 2.5-1.1 1.3-0.6 2.6-1.1c-3 1.2-12.2 4.1-8.9-4.6 4-10.5 23.5-21.8 37.8-23.6-14.8 1.4-28.3 5.4-38.9 11.6z"/>
			<path class="s24" d="m304.7 141.1c-13.8-8-32.2-12.3-51.9-12.3-19.7 0-38.1 4.3-51.8 12.3-10.3 5.9-16.7 13.1-18.7 20.7 2 7.5 8.4 14.7 18.7 20.7 13.7 7.9 32.1 12.2 51.8 12.2 19.7 0 38.1-4.3 51.9-12.2 10.2-6 16.6-13.2 18.6-20.7-2-7.6-8.4-14.8-18.6-20.7z"/>
			<path class="s4" d="m307.7 203.6q0.1-1.2 0.4-2.4 0.4-1.2 1-2.2 0.6-1.1 1.4-2 0.9-0.9 1.9-1.6 0.4-0.3 0.8-0.4 0.4-0.2 0.8-0.2 0.5-0.1 0.9 0 0.4 0.1 0.8 0.3l22.8 13q0.4 0.2 0.7 0.5 0.2 0.4 0.4 0.8 0.2 0.4 0.3 0.8 0 0.5 0 0.9-0.1 1.2-0.4 2.4-0.4 1.2-1 2.3-0.6 1.1-1.4 2-0.9 0.9-1.9 1.5-0.4 0.3-0.8 0.5-0.4 0.1-0.8 0.2-0.5 0-0.9-0.1-0.5 0-0.9-0.2l-22.7-13q-0.4-0.3-0.7-0.6-0.2-0.4-0.4-0.8-0.2-0.4-0.3-0.8 0-0.4 0-0.9z"/>
			<path class="s3" d="m309.1 206.7q-0.3-0.3-0.6-0.6-0.3-0.3-0.5-0.7-0.2-0.4-0.3-0.9 0-0.4 0-0.9 0-0.4 0.1-0.9 0-0.4 0.1-0.9 0.1-0.4 0.3-0.9 0.1-0.4 0.3-0.8l29.4 16.8q-0.3 0.3-0.6 0.7-0.3 0.3-0.6 0.6-0.4 0.4-0.7 0.6-0.4 0.3-0.8 0.5-0.3 0.3-0.7 0.5-0.5 0.1-0.9 0.2-0.4 0-0.9-0.1-0.4 0-0.8-0.2c0 0-22.8-13-22.8-13z"/>
			<path class="s11" d="m401 239.1l-59.1-31h-0.1c-1.1-0.6-2.6-0.5-4.3 0.5q-1.3 0.9-2.4 2.1-1.1 1.1-1.9 2.5-0.8 1.4-1.3 3-0.4 1.5-0.5 3.1c0 2 0.7 3.4 1.8 4l56.6 35.7q0.6 0.4 1.3 0.7 0.7 0.3 1.4 0.5 0.8 0.2 1.5 0.3 0.8 0.1 1.5 0.1c2.6 0 5.1-0.9 7.1-2.4 2-1.6 3.4-3.8 4-6.2 0.7-2.5 0.4-5.1-0.6-7.4-1-2.3-2.8-4.3-5-5.5z"/>
			<path class="s12" d="m401.2 239.3c1 0.6 1.7 1.6 2.1 2.7 0.4 1.1 0.5 2.3 0.1 3.5-0.3 1.1-1 2.1-2 2.8-1 0.7-2.1 1.1-3.3 1.1q-0.3 0-0.7-0.1-0.3 0-0.6-0.1-0.3-0.1-0.6-0.2-0.3-0.1-0.6-0.2l-62.2-36q-0.4 0.7-0.8 1.5-0.4 0.7-0.6 1.6-0.3 0.8-0.4 1.6-0.2 0.9-0.2 1.7c0 2 0.7 3.4 1.8 4l56.6 35.8c2.6 1.5 5.7 1.9 8.6 1.2 2.9-0.8 5.4-2.7 6.9-5.3 1.6-2.7 2-5.8 1.2-8.7-0.8-2.9-2.7-5.4-5.3-6.9z"/>
		</g>
	</g>
</svg>