<svg version="1.2" xmlns="http://www.w3.org/2000/svg" viewBox="0 0 500 500" width="500" height="500">
	<title>Chatting-amico-svg</title>
	<style>
		.s0 { fill: #f5f5f5 } 
		.s1 { fill: #60b55a } 
		.s2 { fill: #000000 } 
		.s3 { fill: #ffffff } 
		.s4 { fill: #37474f } 
		.s5 { fill: #455a64 } 
		.s6 { fill: #263238 } 
		.s7 { fill: #fafafa } 
		.s8 { fill: #e6e6e6 } 
		.s9 { opacity: .2;fill: #000000 } 
		.s10 { opacity: .4;fill: #ffffff } 
		.s11 { fill: #e0e0e0 } 
		.s12 { fill: #f0f0f0 } 
	</style>
	<g id="freepik--Floor--inject-193">
		<path id="freepik--floor--inject-193" class="s0" d="m99.2 428.2c85.9 50.8 225.1 50.8 311 0 85.9-50.9 85.9-133.3 0-184.2-85.9-50.8-225.1-50.8-310.9 0-85.9 50.9-86 133.3-0.1 184.2z"/>
	</g>
	<g id="freepik--Shadows--inject-193">
	</g>
	<g id="freepik--Plants--inject-193">
		<g id="freepik--plants--inject-193">
			<path class="s1" d="m438.2 329.4l-6.7-3.9c0 0-3.3-17.8-0.9-33.1 3.4-21.5 18.1-28.9 23.4-26.8 5.3 2.2 6.6 8.5-3 21-5.7 7.3-13 22.8-12.8 42.8z"/>
			<g style="opacity: .1">
				<path class="s2" d="m438.2 329.4l-6.7-3.9c0 0-3.3-17.8-0.9-33.1 3.4-21.5 18.1-28.9 23.4-26.8 5.3 2.2 6.6 8.5-3 21-5.7 7.3-13 22.8-12.8 42.8z"/>
			</g>
			<path class="s3" d="m435.8 320.8q0.1 0 0.2 0 0.1-0.1 0.1-0.2 0.1 0 0.1-0.1 0.1-0.1 0-0.2c-2.7-20.2 5.4-42.2 14.5-51.1q0.1-0.2 0.1-0.4 0-0.2-0.1-0.3-0.1-0.2-0.4-0.2-0.2 0-0.3 0.2c-9.3 9-17.5 31.5-14.7 51.9q0 0.1 0 0.2 0.1 0.1 0.1 0.1 0.1 0.1 0.2 0.1 0.1 0 0.2 0z"/>
			<path class="s1" d="m456.9 340.2c1.1 0.6 3.3-0.8 4.1-1.3q0.5-0.4 1-0.8 0.5-0.4 0.9-0.9 0.5-0.5 0.8-1.1 0.4-0.5 0.7-1.1 0.3-0.7 0.5-1.4 0.2-0.7 0.3-1.4 0.1-0.7 0.1-1.4 0-0.8-0.1-1.5 0-0.4-0.1-0.8-0.1-0.3-0.2-0.7-0.1-0.4-0.2-0.8-0.1-0.3-0.2-0.7l-0.8-3q-0.2-0.3-0.3-0.7-0.1-0.4-0.1-0.7-0.1-0.4-0.1-0.8 0-0.4 0-0.8c0.3-2 2.1-3.4 3.7-4.6 1.8-1.4 3.7-3.1 3.7-5.6q-0.1-0.7-0.3-1.4-0.1-0.6-0.4-1.3-0.3-0.6-0.6-1.2-0.4-0.6-0.9-1.2c-1.1-1.4-2.5-2.7-3.6-4.3q-0.3-0.4-0.5-0.8-0.3-0.5-0.4-1-0.2-0.5-0.2-1-0.1-0.5-0.1-1 0-0.3 0.1-0.6 0.1-0.3 0.2-0.6 0.1-0.3 0.2-0.6 0.2-0.2 0.3-0.5 0.4-0.6 0.7-1.2 0.4-0.5 0.7-1.1 0.3-0.6 0.6-1.2 0.3-0.6 0.6-1.3c0.6-1.7 0.5-3.8-0.8-5q-0.5-0.3-1-0.5-0.5-0.2-1-0.4-0.5-0.1-1.1-0.1-0.5 0-1.1 0-0.5 0.1-1 0.2-0.5 0.2-1 0.3-0.5 0.2-1 0.4-0.4 0.2-0.9 0.5c-3.8 2.2-6 6.7-10.1 8.4q-0.6 0.2-1.3 0.3-0.6 0.2-1.2 0.4-0.6 0.1-1.3 0.2-0.6 0.2-1.2 0.3-0.7 0.1-1.2 0.4-0.6 0.2-1.2 0.6-0.5 0.3-0.9 0.8-0.5 0.4-0.8 1c-1.5 3 1.3 6.7 0.2 9.9-0.9 2.8-3.7 3.9-5.2 6.4q-0.2 0.4-0.4 0.9-0.2 0.4-0.2 0.9-0.1 0.5-0.2 1 0 0.4 0.1 0.9 0 0.8 0.2 1.6 0.1 0.8 0.3 1.6 0.2 0.8 0.4 1.5 0.3 0.8 0.6 1.5 0.4 0.8 0.8 1.5 0.4 0.7 0.8 1.4 0.5 0.7 0.9 1.4 0.5 0.7 1 1.4c0.1-0.1 18.5 10.6 18.7 10.7z"/>
			<path class="s3" d="m446 334.4q0.1-0.1 0.2-0.1 0.1 0 0.1-0.1 0.1-0.1 0.1-0.2 0.1-0.1 0.1-0.1c-0.8-19.1 8.2-40.2 14.7-46.3q0.1-0.1 0.1-0.1 0-0.1 0-0.2 0-0.1 0-0.2 0-0.1-0.1-0.2-0.1 0-0.2-0.1-0.1 0-0.1 0-0.1 0-0.2 0-0.1 0.1-0.2 0.1c-6.7 6.3-15.8 27.7-15 47q0 0.1 0.1 0.2 0 0.1 0.1 0.1 0 0.1 0.1 0.1 0.1 0.1 0.2 0.1z"/>
			<path class="s3" d="m448.8 311.8q0 0 0.1 0 0 0 0 0 0 0 0 0 0 0 0.1 0 1.7-0.4 3.4-0.8 1.7-0.4 3.4-0.7 1.8-0.3 3.5-0.4 1.7-0.2 3.5-0.3 0.1 0 0.2-0.1 0.1 0 0.1-0.1 0.1 0 0.1-0.1 0.1-0.1 0.1-0.2 0-0.1-0.1-0.2 0-0.1-0.1-0.1-0.1-0.1-0.2-0.1 0-0.1-0.1-0.1-1.8 0.1-3.6 0.3-1.8 0.2-3.5 0.5-1.8 0.3-3.6 0.6-1.7 0.4-3.4 0.9-0.1 0-0.2 0.1-0.1 0-0.1 0.1 0 0.1-0.1 0.2 0 0.1 0.1 0.2 0 0.1 0 0.1 0.1 0.1 0.1 0.1 0.1 0.1 0.2 0.1 0 0 0.1 0z"/>
		</g>
		<g id="freepik--plants--inject-193">
			<path class="s4" d="m77.6 329.6l6.7-3.9c0 0 3.3-17.8 0.8-33.1-3.4-21.5-18-28.9-23.3-26.8-5.3 2.1-6.6 8.5 3 21 5.7 7.3 13 22.8 12.8 42.8z"/>
			<path class="s3" d="m80 321q-0.1 0-0.2-0.1-0.1 0-0.1-0.1-0.1-0.1-0.1-0.2 0-0.1 0-0.2c2.8-20.1-5.3-42.2-14.4-51.1q-0.2-0.1-0.2-0.3 0-0.2 0.2-0.3 0.1-0.2 0.3-0.2 0.2 0 0.3 0.2c9.3 9 17.6 31.4 14.7 51.9q0 0.1 0 0.2-0.1 0.1-0.1 0.1-0.1 0.1-0.2 0.1-0.1 0-0.2 0z"/>
			<path class="s5" d="m58.9 340.4c-1.1 0.6-3.3-0.8-4.1-1.3q-0.5-0.4-1-0.8-0.5-0.4-0.9-0.9-0.5-0.5-0.8-1.1-0.4-0.5-0.7-1.1-0.3-0.7-0.5-1.4-0.2-0.7-0.3-1.4-0.1-0.7-0.1-1.4 0-0.8 0.1-1.5 0-0.4 0.1-0.8 0.1-0.3 0.2-0.7 0.1-0.4 0.2-0.8 0.1-0.3 0.2-0.7l0.8-3q0.2-0.3 0.3-0.7 0.1-0.4 0.1-0.7 0.1-0.4 0.1-0.8 0-0.4 0-0.8c-0.3-2-2.1-3.4-3.7-4.6-1.8-1.4-3.7-3.1-3.7-5.6q0.1-0.7 0.3-1.4 0.1-0.6 0.4-1.3 0.3-0.6 0.6-1.2 0.4-0.6 0.9-1.1c1.1-1.5 2.5-2.8 3.6-4.4q0.3-0.4 0.5-0.8 0.2-0.5 0.4-1 0.2-0.4 0.2-0.9 0.1-0.5 0.1-1 0-0.4-0.1-0.7-0.1-0.3-0.2-0.6-0.1-0.3-0.2-0.6-0.2-0.2-0.3-0.5-0.4-0.6-0.7-1.2-0.4-0.6-0.7-1.2-0.3-0.6-0.6-1.2-0.3-0.6-0.6-1.2c-0.6-1.7-0.5-3.8 0.8-5q0.5-0.3 1-0.6 0.5-0.2 1-0.3 0.5-0.1 1.1-0.2 0.5 0 1.1 0.1 0.5 0.1 1 0.2 0.5 0.1 1 0.3 0.5 0.1 1 0.4 0.4 0.2 0.9 0.5c3.8 2.1 6 6.7 10.1 8.3q0.6 0.2 1.3 0.4 0.6 0.2 1.2 0.3 0.6 0.2 1.3 0.3 0.6 0.1 1.2 0.2 0.7 0.2 1.2 0.4 0.6 0.2 1.2 0.6 0.5 0.4 0.9 0.8 0.5 0.5 0.8 1c1.5 3-1.3 6.7-0.2 9.9 0.9 2.8 3.7 3.9 5.2 6.5q0.2 0.4 0.4 0.8 0.2 0.5 0.3 0.9 0 0.5 0.1 1 0 0.5-0.1 0.9 0 0.9-0.2 1.7-0.1 0.8-0.3 1.5-0.2 0.8-0.5 1.6-0.3 0.8-0.6 1.5-0.4 0.7-0.8 1.5-0.4 0.7-0.8 1.4-0.4 0.7-0.9 1.4-0.4 0.6-0.9 1.3c-0.1 0-18.5 10.7-18.7 10.8z"/>
			<path class="s3" d="m69.8 334.6q-0.1-0.1-0.1-0.1-0.1 0-0.2-0.1-0.1-0.1-0.1-0.2 0-0.1 0-0.2c0.8-19-8.2-40.1-14.7-46.2q-0.1-0.1-0.2-0.1 0-0.1 0-0.2 0-0.1 0-0.2 0.1-0.1 0.2-0.2 0 0 0.1-0.1 0.1 0 0.2 0 0.1 0 0.2 0 0.1 0.1 0.1 0.1c6.7 6.3 15.9 27.7 15 47q0 0.1 0 0.2-0.1 0.1-0.1 0.1-0.1 0.1-0.2 0.1-0.1 0.1-0.2 0z"/>
			<path class="s3" d="m67 312h-0.1q-1.7-0.5-3.5-0.8-1.7-0.4-3.4-0.7-1.7-0.3-3.5-0.5-1.7-0.1-3.5-0.2-0.1 0-0.2-0.1-0.1 0-0.1-0.1-0.1-0.1-0.1-0.1-0.1-0.1-0.1-0.2 0-0.1 0.1-0.2 0-0.1 0.1-0.2 0.1 0 0.2-0.1 0 0 0.1 0 1.8 0.1 3.6 0.3 1.8 0.2 3.5 0.5 1.8 0.2 3.6 0.6 1.7 0.4 3.4 0.9 0.1 0 0.2 0.1 0.1 0 0.1 0.1 0.1 0.1 0.1 0.2 0 0.1-0.1 0.2 0 0 0 0.1-0.1 0.1-0.1 0.1-0.1 0.1-0.2 0.1 0 0-0.1 0z"/>
		</g>
	</g>
	<g id="freepik--Device--inject-193">
		<path class="s4" d="m80.8 363.9l109.1 63q1 0.5 2.1 0.7 1.1 0.3 2.3 0.3 1.1 0 2.2-0.3 1.1-0.2 2.1-0.7l206.6-119.4c2.4-1.3 2.4-3.6 0-5l-109.1-63q-1-0.5-2.1-0.7-1.1-0.3-2.3-0.3-1.1 0-2.2 0.3-1.1 0.2-2.1 0.7l-206.6 119.4c-2.4 1.3-2.4 3.6 0 5z"/>
		<path class="s6" d="m141.5 391.8q1.4 0.7 2.9 1.1 1.6 0.3 3.1 0.3 1.6 0 3.1-0.3 1.5-0.4 2.9-1.1c3.3-1.9 3.3-5 0-6.9q-1.4-0.7-2.9-1.1-1.5-0.4-3.1-0.4-1.5 0-3.1 0.4-1.5 0.4-2.9 1.1c-3.3 1.9-3.3 5 0 6.9z"/>
		<path class="s5" d="m189.9 426.9l-109.1-63c-2.2-1.3-2.4-3.2-0.7-4.6q-0.8 0.6-1.4 1.4-0.7 0.8-1.2 1.7-0.4 0.9-0.7 1.9-0.3 1-0.4 2v4.1q0.1 1.1 0.4 2.2 0.4 1.1 0.9 2 0.6 1 1.4 1.8 0.7 0.9 1.7 1.5l109.1 63q0.5 0.2 1 0.4 0.6 0.2 1.1 0.4 0.6 0.1 1.1 0.1 0.6 0.1 1.1 0.1v-14q-0.5 0-1.1-0.1-0.5 0-1.1-0.2-0.5-0.1-1.1-0.3-0.5-0.2-1-0.4z"/>
		<path class="s6" d="m405.2 321.6q1-0.6 1.7-1.4 0.8-0.9 1.4-1.8 0.5-1 0.9-2.1 0.3-1.1 0.3-2.2v-4.1q0-1-0.3-2-0.3-1-0.7-1.9-0.5-0.9-1.2-1.7-0.6-0.8-1.4-1.4c1.7 1.4 1.4 3.3-0.7 4.5l-206.6 119.3q-0.5 0.3-1 0.5-0.6 0.2-1.1 0.3-0.6 0.2-1.1 0.2-0.6 0.1-1.1 0.1v14.1q0.5 0 1.1 0 0.5-0.1 1.1-0.2 0.5-0.2 1.1-0.3 0.5-0.2 1-0.5z"/>
		<path class="s7" d="m212 411.4l-100.4-57.9c-1.5-0.9-1.5-2.2 0-3l165.3-95.5q0.6-0.3 1.2-0.5 0.7-0.1 1.4-0.1 0.7 0 1.3 0.1 0.7 0.2 1.3 0.5l100.5 58c1.4 0.8 1.4 2.2 0 3l-165.4 95.5q-0.6 0.3-1.3 0.5-0.7 0.1-1.3 0.1-0.7 0-1.4-0.2-0.6-0.1-1.2-0.4z"/>
		<path class="s8" d="m203.8 397.4l-76-44c-1.4-0.8-1.4-2.1 0-3l2.9-1.6q0.6-0.4 1.3-0.5 0.7-0.2 1.3-0.2 0.7 0 1.4 0.2 0.6 0.1 1.2 0.5l76 43.9c1.5 0.8 1.5 2.1 0 3l-2.9 1.7q-0.6 0.3-1.3 0.4-0.6 0.2-1.3 0.2-0.7 0-1.3-0.2-0.7-0.1-1.3-0.4z"/>
		<path class="s1" d="m211.8 400.4l5.5-3.1q0.3-0.2 0.5-0.2 0.3 0 0.6 0 0.3 0.1 0.5 0.3 0.2 0.2 0.4 0.4l2.6 4.4c0.4 0.8 0.1 1.2-0.8 1l-9.1-1.7c-0.9-0.2-1-0.6-0.2-1.1z"/>
		<path class="s8" d="m273.4 266.3q1.4-0.7 3-1 1.5-0.4 3.1-0.4 1.6 0 3.2 0.4 1.5 0.3 2.9 1c3.4 2 3.4 5.1 0 7q-1.4 0.8-2.9 1.1-1.6 0.4-3.2 0.4-1.6 0-3.1-0.4-1.6-0.3-3-1.1c-3.3-1.9-3.3-5 0-7z"/>
		<path class="s8" d="m350.1 308.2c1.4 0.9 1.4 2.2-0.1 3l-15.1 8.8q-0.6 0.3-1.2 0.5-0.7 0.1-1.4 0.1-0.6 0-1.3-0.1-0.7-0.2-1.3-0.5l-47.6-27.5c-1.4-0.8-1.4-2.2 0-3l13.7-7.9-4.1-7z"/>
		<path class="s7" d="m300.3 285.3l42.1 24.3c0.7 0.4 0.9 1 0.3 1.3q-0.3 0.1-0.6 0.2-0.3 0-0.6 0-0.3 0-0.6-0.1-0.2-0.1-0.5-0.3l-42.1-24.3c-0.7-0.4-0.8-1-0.3-1.3q0.3-0.1 0.6-0.1 0.3-0.1 0.6-0.1 0.3 0 0.6 0.1 0.3 0.1 0.5 0.3z"/>
		<path class="s7" d="m296.3 287.6l42 24.3c0.8 0.4 0.9 1 0.3 1.4q-0.2 0.1-0.5 0.1-0.3 0.1-0.6 0.1-0.3-0.1-0.6-0.1-0.3-0.1-0.6-0.3l-42.1-24.3c-0.7-0.4-0.8-1-0.3-1.3q0.3-0.1 0.6-0.2 0.3 0 0.6 0 0.3 0 0.6 0.1 0.3 0.1 0.6 0.2z"/>
		<path class="s7" d="m292.2 290l42.1 24.3c0.7 0.4 0.8 1 0.3 1.3q-0.3 0.2-0.6 0.2-0.3 0-0.6 0-0.3 0-0.6-0.1-0.3-0.1-0.5-0.2l-42.1-24.3c-0.8-0.4-0.9-1-0.3-1.4q0.3-0.1 0.6-0.1 0.3-0.1 0.6-0.1 0.3 0.1 0.6 0.2 0.2 0 0.5 0.2z"/>
		<path class="s8" d="m265.3 360.2q1.4-0.7 3-1.1 1.5-0.4 3.1-0.4 1.6 0 3.2 0.4 1.5 0.4 2.9 1.1c3.4 1.9 3.4 5.1 0 7q-1.4 0.7-2.9 1.1-1.6 0.3-3.2 0.3-1.6 0-3.1-0.3-1.6-0.4-3-1.1c-3.3-1.9-3.3-5.1 0-7z"/>
		<path class="s8" d="m251.1 354.3l-13.6 7.9q-0.7 0.3-1.3 0.5-0.7 0.1-1.3 0.1-0.7 0-1.4-0.1-0.6-0.2-1.2-0.5l-47.7-27.5c-1.4-0.8-1.4-2.2 0-3l15.2-8.7q0.6-0.3 1.2-0.5 0.7-0.1 1.3-0.1 0.7 0 1.4 0.1 0.6 0.2 1.2 0.5l58.4 33.7z"/>
		<path class="s7" d="m202.7 327.5l42.1 24.3c0.7 0.4 0.8 1 0.2 1.3q-0.2 0.1-0.5 0.2-0.3 0-0.6 0-0.3 0-0.6-0.1-0.3-0.1-0.6-0.2l-42.1-24.3c-0.7-0.4-0.8-1-0.2-1.4q0.2-0.1 0.5-0.1 0.3-0.1 0.6-0.1 0.3 0.1 0.6 0.2 0.3 0 0.6 0.2z"/>
		<path class="s7" d="m198.6 329.9l42.1 24.3c0.7 0.4 0.8 1 0.3 1.3q-0.3 0.1-0.6 0.2-0.3 0-0.6 0-0.3 0-0.6-0.1-0.3-0.1-0.5-0.3l-42.1-24.3c-0.8-0.4-0.9-1-0.3-1.3q0.3-0.1 0.6-0.2 0.3 0 0.6 0 0.3 0 0.5 0.1 0.3 0.1 0.6 0.3z"/>
		<path class="s7" d="m194.5 332.2l42.1 24.3c0.7 0.4 0.9 1 0.3 1.4q-0.3 0.1-0.6 0.1-0.3 0.1-0.6 0-0.3 0-0.6-0.1-0.3-0.1-0.5-0.2l-42.1-24.3c-0.7-0.4-0.8-1-0.3-1.3q0.3-0.2 0.6-0.2 0.3-0.1 0.6 0 0.3 0 0.6 0.1 0.3 0.1 0.5 0.2z"/>
		<path class="s8" d="m216.6 299.2q1.4-0.7 2.9-1.1 1.6-0.4 3.2-0.4 1.5 0 3.1 0.4 1.5 0.4 3 1.1c3.3 1.9 3.3 5.1 0 7q-1.5 0.7-3 1.1-1.6 0.3-3.1 0.3-1.6 0-3.2-0.3-1.5-0.4-2.9-1.1c-3.4-1.9-3.4-5.1 0-7z"/>
		<path class="s8" d="m281 334c1.4 0.8 1.4 2.2 0 3l-11.1 6.4q-0.6 0.3-1.3 0.4-0.7 0.2-1.3 0.2-0.7 0-1.4-0.2-0.6-0.1-1.2-0.4l-35.5-20.4c-1.4-0.8-1.4-2.2 0-3l9.7-5.5-4.1-7z"/>
		<path class="s7" d="m245 316.7l30.5 17.6c0.7 0.5 0.9 1 0.3 1.4q-0.3 0.1-0.6 0.1-0.3 0.1-0.6 0.1-0.3-0.1-0.6-0.1-0.3-0.1-0.5-0.3l-30.6-17.6c-0.7-0.4-0.8-1-0.3-1.3q0.3-0.2 0.6-0.2 0.3-0.1 0.6 0 0.3 0 0.6 0.1 0.3 0.1 0.6 0.2z"/>
		<path class="s7" d="m240.9 319.1l30.5 17.6c0.7 0.4 0.8 1 0.3 1.3q-0.3 0.2-0.6 0.2-0.3 0-0.6 0-0.3 0-0.6-0.1-0.3-0.1-0.5-0.2l-30.6-17.6c-0.7-0.5-0.8-1-0.2-1.4q0.2-0.1 0.5-0.1 0.3-0.1 0.6-0.1 0.3 0.1 0.6 0.1 0.3 0.1 0.6 0.3z"/>
		<path class="s7" d="m236.8 321.4l30.5 17.7c0.8 0.4 0.9 1 0.3 1.3q-0.3 0.1-0.6 0.2-0.3 0-0.6 0-0.3 0-0.6-0.1-0.2-0.1-0.5-0.3l-30.5-17.6c-0.7-0.4-0.9-1-0.3-1.3q0.3-0.1 0.6-0.2 0.3 0 0.6 0 0.3 0 0.6 0.1 0.3 0.1 0.5 0.3z"/>
		<path class="s8" d="m318.1 329.7q1.5-0.7 3-1.1 1.5-0.4 3.1-0.4 1.6 0 3.2 0.4 1.5 0.4 2.9 1.1c3.4 1.9 3.4 5.1 0 7q-1.4 0.7-2.9 1.1-1.6 0.3-3.2 0.3-1.6 0-3.1-0.3-1.5-0.4-3-1.1c-3.3-1.9-3.3-5.1 0-7z"/>
		<path class="s8" d="m303.9 323.8l-5.5 3.2q-0.6 0.3-1.3 0.5-0.6 0.1-1.3 0.1-0.7 0-1.3-0.1-0.7-0.2-1.3-0.5l-23.2-13.4c-1.4-0.8-1.4-2.2 0-3l7-4q0.6-0.3 1.3-0.5 0.6-0.1 1.3-0.1 0.7 0 1.3 0.1 0.7 0.2 1.3 0.5l34 19.6z"/>
		<path class="s7" d="m280.5 309l20.4 11.8c0.7 0.4 0.8 1 0.2 1.3q-0.2 0.1-0.5 0.2-0.3 0-0.6 0-0.3 0-0.6-0.1-0.3-0.1-0.6-0.3l-20.3-11.7c-0.8-0.4-0.9-1-0.3-1.4q0.3-0.1 0.6-0.1 0.3-0.1 0.6-0.1 0.3 0.1 0.5 0.2 0.3 0 0.6 0.2z"/>
		<path class="s7" d="m276.4 311.4l20.4 11.8c0.7 0.4 0.8 1 0.3 1.3q-0.3 0.1-0.6 0.2-0.3 0-0.6 0-0.3 0-0.6-0.1-0.3-0.1-0.6-0.3l-20.3-11.7c-0.7-0.4-0.9-1-0.3-1.4q0.3-0.1 0.6-0.1 0.3-0.1 0.6-0.1 0.3 0.1 0.6 0.2 0.3 0 0.5 0.2z"/>
		<path class="s8" d="m155.6 334.4q1.5-0.8 3-1.1 1.5-0.4 3.1-0.4 1.6 0 3.2 0.4 1.5 0.3 2.9 1.1c3.4 1.9 3.4 5.1 0 7q-1.4 0.7-2.9 1-1.6 0.4-3.2 0.4-1.6 0-3.1-0.4-1.5-0.3-3-1c-3.3-1.9-3.3-5.1 0-7z"/>
		<path class="s8" d="m203.7 359.8c1.5 0.9 1.5 2.2 0 3l-7 4.1q-0.6 0.3-1.2 0.4-0.7 0.2-1.4 0.2-0.6 0-1.3-0.2-0.7-0.1-1.3-0.4l-19.1-11.1c-1.4-0.8-1.4-2.2 0-3l5.5-3.2-4-7z"/>
		<path class="s7" d="m183.8 351.7l15.6 9c0.7 0.4 0.8 1 0.3 1.3q-0.3 0.1-0.6 0.2-0.3 0-0.6 0-0.3 0-0.6-0.1-0.3-0.1-0.5-0.3l-15.6-9c-0.7-0.4-0.9-1-0.3-1.3q0.3-0.1 0.6-0.2 0.3 0 0.6 0 0.3 0 0.6 0.1 0.3 0.1 0.5 0.3z"/>
		<path class="s7" d="m179.8 354l15.5 9c0.8 0.4 0.9 1 0.3 1.3q-0.3 0.1-0.6 0.2-0.3 0-0.6 0-0.3 0-0.6-0.1-0.2-0.1-0.5-0.2l-15.6-9c-0.7-0.4-0.8-1-0.3-1.4q0.3-0.1 0.6-0.1 0.3-0.1 0.6-0.1 0.3 0.1 0.6 0.2 0.3 0 0.5 0.2z"/>
		<path class="s6" d="m342.3 276.1q0.3 0.2 0.6 0.3 0.3 0.1 0.7 0.1 0.3 0 0.7-0.1 0.3-0.1 0.6-0.3 0.3 0 0.4-0.2 0.2-0.3 0.2-0.5 0-0.3-0.2-0.5-0.1-0.2-0.4-0.3-0.3-0.1-0.6-0.2-0.4-0.1-0.7-0.1-0.4 0-0.7 0.1-0.3 0.1-0.6 0.2-0.3 0.1-0.4 0.3-0.2 0.2-0.2 0.5 0 0.2 0.2 0.5 0.1 0.2 0.4 0.2z"/>
		<path class="s6" d="m346.5 288.2q0.6 0.3 1.3 0.5 0.7 0.1 1.4 0.1 0.6 0 1.3-0.1 0.7-0.2 1.3-0.5c1.5-0.9 1.5-2.2 0-3.1q-0.6-0.3-1.3-0.5-0.7-0.1-1.3-0.1-0.7 0-1.4 0.1-0.7 0.2-1.3 0.5c-1.5 0.9-1.5 2.2 0 3.1z"/>
		<path class="s6" d="m342.8 282.8c1-0.5 0.9-1.5-0.2-2.1l-17.4-10.1q-0.4-0.2-0.9-0.3-0.5-0.1-0.9-0.1-0.5 0-1 0.1-0.5 0.1-0.9 0.3c-1 0.5-0.9 1.5 0.1 2.1l17.5 10.1q0.4 0.2 0.9 0.3 0.4 0.1 0.9 0.2 0.5 0 1-0.1 0.4-0.1 0.9-0.4z"/>
	</g>
	<g id="freepik--speech-bubbles--inject-193">
		<path class="s1" d="m128.5 285.3l-5.6-3.2q0 0-0.1 0 0-0.1 0-0.1-0.1 0-0.1 0 0-0.1 0-0.1l-1-1.8 3.3-1.9-0.1 0.3z"/>
		<path class="s9" d="m128.5 285.3l-5.6-3.2q0 0-0.1 0 0-0.1 0-0.1-0.1 0-0.1 0 0-0.1 0-0.1l-1-1.8 3.3-1.9-0.1 0.3z"/>
		<path class="s1" d="m124.4 278.5l3.9 6.6q0.1 0.1 0.2 0.2 0.1 0.1 0.3 0.1 0.2 0 0.3-0.1 0.1-0.1 0.2-0.3l4-11.7z"/>
		<path class="s1" d="m205.6 194.7q0-0.7-0.2-1.4-0.2-0.7-0.5-1.3-0.4-0.6-0.8-1.1-0.5-0.5-1.1-0.9l-2.2-1.3q-0.6-0.3-1.3-0.4-0.7-0.2-1.4-0.2-0.7 0-1.3 0.2-0.7 0.1-1.3 0.4l-87.3 50.4q-0.6 0.4-1 0.9-0.5 0.5-0.9 1.1-0.3 0.6-0.5 1.2-0.2 0.7-0.3 1.4v33.9q0.1 0.7 0.3 1.4 0.2 0.6 0.5 1.2 0.4 0.6 0.9 1.2 0.4 0.5 1 0.8l2.2 1.3q0.6 0.3 1.3 0.5 0.7 0.1 1.4 0.1 0.7 0 1.4-0.1 0.6-0.2 1.3-0.5l87.4-50.5c2.4-1.4 2.4-2.7 2.4-4.5z"/>
		<path class="s9" d="m105.5 277.6q0 0.7 0.2 1.4 0.2 0.7 0.6 1.3 0.3 0.6 0.8 1.1 0.5 0.5 1.1 0.9l2.2 1.2q0.5 0.3 1.1 0.5 0.7 0.1 1.3 0.2 0.6 0 1.3-0.1 0.6-0.1 1.2-0.4c-1.3 0.5-2.2-0.2-2.2-1.7v-33.9q0-0.4 0-0.7 0.1-0.4 0.2-0.7 0.1-0.3 0.2-0.6 0.2-0.4 0.3-0.7l-7.5-4.3q-0.2 0.3-0.3 0.6-0.2 0.3-0.3 0.7-0.1 0.3-0.1 0.6-0.1 0.4-0.1 0.7z"/>
		<path class="s10" d="m205.5 193.9c-0.3-1.1-1.3-1.5-2.6-0.8l-87.2 50.3q-0.3 0.2-0.5 0.4-0.3 0.3-0.6 0.5-0.2 0.3-0.4 0.6-0.2 0.2-0.4 0.5l-7.5-4.3q0.2-0.3 0.4-0.6 0.2-0.3 0.4-0.5 0.3-0.3 0.5-0.5 0.3-0.2 0.6-0.4l87.2-50.3q0.6-0.4 1.3-0.5 0.7-0.2 1.4-0.2 0.7 0 1.4 0.2 0.6 0.1 1.3 0.5l2.2 1.2q0.5 0.3 0.9 0.8 0.4 0.4 0.8 0.9 0.3 0.5 0.5 1 0.2 0.6 0.3 1.2z"/>
		<path class="s3" d="m120.3 248.7l76.7-44.4c0.9-0.5 1.6-0.3 1.6 0.5q0 0.4-0.2 0.7-0.1 0.4-0.3 0.7-0.2 0.3-0.5 0.6-0.3 0.2-0.6 0.4l-76.7 44.4c-0.9 0.5-1.6 0.3-1.6-0.5q0-0.4 0.1-0.7 0.2-0.4 0.4-0.7 0.2-0.3 0.5-0.6 0.2-0.2 0.6-0.4z"/>
		<path class="s3" d="m120.3 263.8l63.5-36.7c0.9-0.5 1.6-0.3 1.6 0.5q0 0.4-0.1 0.7-0.2 0.4-0.4 0.7-0.2 0.3-0.5 0.6-0.3 0.2-0.6 0.4l-63.5 36.7c-1 0.5-1.7 0.3-1.7-0.5q0.1-0.4 0.2-0.7 0.1-0.4 0.4-0.7 0.2-0.3 0.4-0.6 0.3-0.2 0.7-0.4z"/>
		<path class="s3" d="m120.3 271.1l74.8-43.2c0.9-0.6 1.6-0.3 1.6 0.5q-0.1 0.4-0.2 0.7-0.1 0.4-0.3 0.7-0.2 0.3-0.5 0.6-0.3 0.2-0.6 0.4l-74.9 43.3c-0.9 0.5-1.6 0.3-1.6-0.6q0.1-0.3 0.2-0.7 0.1-0.3 0.4-0.6 0.2-0.4 0.4-0.6 0.3-0.3 0.7-0.5z"/>
		<path class="s3" d="m120.3 256.1l74.8-43.3c0.9-0.5 1.6-0.3 1.6 0.5q-0.1 0.4-0.2 0.7-0.1 0.4-0.3 0.7-0.2 0.3-0.5 0.6-0.3 0.2-0.6 0.4l-74.8 43.3c-1 0.5-1.7 0.3-1.7-0.5q0.1-0.4 0.2-0.8 0.1-0.3 0.4-0.6 0.2-0.3 0.4-0.6 0.3-0.3 0.7-0.4z"/>
		<path class="s1" d="m128.5 118.4l-5.6-3.2q0 0-0.1 0 0-0.1 0-0.1-0.1 0-0.1-0.1 0 0 0 0l-1-1.8 3.3-1.9-0.1 0.3z"/>
		<path class="s9" d="m128.5 118.4l-5.6-3.2q0 0-0.1 0 0-0.1 0-0.1-0.1 0-0.1-0.1 0 0 0 0l-1-1.8 3.3-1.9-0.1 0.3z"/>
		<path class="s1" d="m124.4 111.6l3.9 6.6q0.1 0.1 0.2 0.2 0.1 0.1 0.3 0 0.2 0 0.3-0.1 0.1-0.1 0.2-0.2l4-11.7z"/>
		<path class="s1" d="m196.6 41.5q0-0.6-0.2-1.3-0.2-0.7-0.6-1.3-0.3-0.6-0.8-1.1-0.5-0.5-1.1-0.9l-2.2-1.3q-0.6-0.3-1.3-0.4-0.6-0.2-1.3-0.2-0.7 0-1.4 0.2-0.7 0.1-1.3 0.4l-78.2 45.2q-0.6 0.4-1.1 0.9-0.5 0.5-0.8 1.1-0.4 0.6-0.6 1.3-0.2 0.6-0.2 1.3v25.3q0 0.7 0.2 1.4 0.2 0.6 0.6 1.2 0.3 0.6 0.8 1.2 0.5 0.5 1.1 0.8l2.2 1.3q0.6 0.3 1.3 0.5 0.6 0.1 1.3 0.1 0.7 0 1.4-0.1 0.7-0.2 1.3-0.5l78.5-45.3c2.4-1.4 2.4-2.8 2.4-4.5z"/>
		<path class="s9" d="m105.5 110.7q0 0.7 0.2 1.4 0.2 0.6 0.6 1.2 0.3 0.6 0.8 1.2 0.5 0.5 1.1 0.8l2.2 1.3q0.5 0.3 1.1 0.4 0.7 0.2 1.3 0.2 0.6 0.1 1.3 0 0.6-0.1 1.2-0.4c-1.3 0.5-2.2-0.2-2.2-1.7v-25.3q0-0.4 0-0.7 0.1-0.4 0.2-0.7 0.1-0.3 0.2-0.7 0.2-0.3 0.3-0.6l-7.5-4.3q-0.2 0.3-0.3 0.6-0.2 0.3-0.3 0.6-0.1 0.4-0.1 0.7-0.1 0.4-0.1 0.7z"/>
		<path class="s10" d="m196.5 40.8c-0.3-1.1-1.3-1.5-2.6-0.8l-78.2 45.1q-0.3 0.2-0.5 0.4-0.3 0.3-0.6 0.5-0.2 0.3-0.4 0.6-0.2 0.2-0.4 0.5l-7.5-4.3q0.2-0.3 0.4-0.6 0.2-0.3 0.4-0.5 0.3-0.3 0.5-0.5 0.3-0.2 0.6-0.4l78.2-45.1q0.6-0.4 1.3-0.5 0.7-0.2 1.4-0.2 0.7 0 1.3 0.2 0.7 0.1 1.3 0.5l2.2 1.2q0.5 0.3 1 0.8 0.4 0.4 0.7 0.9 0.3 0.5 0.6 1 0.2 0.6 0.3 1.2z"/>
		<path class="s3" d="m120.3 96.9l54.5-31.5c0.9-0.6 1.6-0.3 1.6 0.5q0 0.4-0.2 0.7-0.1 0.4-0.3 0.7-0.2 0.3-0.5 0.5-0.3 0.3-0.6 0.5l-54.5 31.5c-1 0.5-1.7 0.3-1.7-0.5q0.1-0.4 0.2-0.7 0.1-0.4 0.4-0.7 0.2-0.3 0.4-0.6 0.3-0.2 0.7-0.4z"/>
		<path class="s3" d="m120.3 104.2l65.7-38c0.9-0.6 1.6-0.3 1.6 0.5q0 0.4-0.2 0.7-0.1 0.4-0.3 0.7-0.2 0.3-0.5 0.5-0.3 0.3-0.6 0.5l-65.8 38.1c-0.9 0.5-1.6 0.2-1.6-0.6q0-0.3 0.2-0.7 0.1-0.4 0.3-0.7 0.2-0.3 0.5-0.5 0.3-0.3 0.6-0.5z"/>
		<path class="s3" d="m120.3 89.2l65.7-38.1c0.9-0.6 1.6-0.3 1.6 0.5q0 0.4-0.2 0.7-0.1 0.4-0.3 0.7-0.2 0.3-0.5 0.6-0.3 0.2-0.6 0.4l-65.8 38.1c-0.9 0.5-1.6 0.3-1.6-0.6q0.1-0.3 0.2-0.7 0.1-0.3 0.4-0.6 0.2-0.4 0.4-0.6 0.3-0.3 0.6-0.4z"/>
		<path class="s6" d="m259.6 83.9l-5.5-3.2q-0.1-0.1-0.1-0.1 0 0-0.1 0 0-0.1 0-0.1 0 0-0.1-0.1l-1-1.8 3.3-1.9-0.1 0.3z"/>
		<path class="s4" d="m255.6 77l3.8 6.6q0.1 0.2 0.3 0.2 0.1 0.1 0.3 0.1 0.1 0 0.3-0.1 0.1-0.1 0.1-0.3l4.1-11.7z"/>
		<path class="s4" d="m273.7 41.6q-0.1-0.7-0.3-1.4-0.2-0.6-0.5-1.2-0.4-0.6-0.8-1.1-0.5-0.5-1.1-0.9l-2.2-1.3q-0.6-0.3-1.3-0.4-0.7-0.2-1.4-0.2-0.7 0-1.3 0.2-0.7 0.1-1.3 0.4l-74.3 42.8q-0.6 0.4-1.1 0.9-0.5 0.5-0.8 1.1-0.4 0.6-0.6 1.3-0.2 0.6-0.2 1.3v22q0 0.7 0.2 1.4 0.2 0.7 0.6 1.3 0.3 0.6 0.8 1.1 0.5 0.5 1.1 0.9l2.1 1.2q0.7 0.4 1.3 0.5 0.7 0.2 1.4 0.2 0.7 0 1.4-0.2 0.7-0.1 1.3-0.5l74.6-43c2.4-1.3 2.4-2.7 2.4-4.4z"/>
		<path class="s6" d="m186.5 105.1q0 0.7 0.2 1.4 0.2 0.6 0.6 1.3 0.3 0.6 0.8 1.1 0.5 0.5 1.1 0.9l2.1 1.2q0.6 0.3 1.2 0.5 0.6 0.1 1.3 0.1 0.6 0.1 1.2 0 0.6-0.1 1.2-0.4c-1.2 0.5-2.2-0.2-2.2-1.7v-22q0-0.4 0.1-0.7 0-0.4 0.1-0.7 0.1-0.3 0.3-0.7 0.1-0.3 0.3-0.6l-7.5-4.3q-0.2 0.3-0.4 0.6-0.1 0.3-0.2 0.6-0.1 0.4-0.2 0.7 0 0.4 0 0.7z"/>
		<path class="s5" d="m273.6 40.8c-0.3-1.1-1.4-1.5-2.6-0.8l-74.3 42.9q-0.3 0.1-0.6 0.4-0.2 0.2-0.5 0.4-0.2 0.3-0.4 0.6-0.2 0.3-0.4 0.6l-7.5-4.4q0.1-0.3 0.3-0.6 0.3-0.3 0.5-0.5 0.2-0.3 0.5-0.5 0.3-0.2 0.6-0.4l74.3-42.8q0.6-0.3 1.3-0.5 0.6-0.1 1.3-0.1 0.7 0 1.4 0.1 0.7 0.2 1.3 0.5l2.2 1.3q0.5 0.3 0.9 0.7 0.5 0.5 0.8 0.9 0.3 0.5 0.6 1.1 0.2 0.5 0.3 1.1z"/>
		<path class="s1" d="m201.2 89.1l50.7-29.2c0.9-0.5 1.6-0.3 1.6 0.5q0 0.4-0.2 0.7-0.1 0.4-0.3 0.7-0.2 0.3-0.5 0.6-0.3 0.2-0.6 0.4l-50.7 29.2c-0.9 0.5-1.6 0.3-1.6-0.5q0.1-0.4 0.2-0.8 0.1-0.3 0.3-0.6 0.2-0.3 0.5-0.6 0.3-0.2 0.6-0.4z"/>
		<path class="s1" d="m201.2 96.4l61.9-35.7c0.9-0.5 1.7-0.3 1.7 0.5q-0.1 0.4-0.2 0.7-0.2 0.4-0.4 0.7-0.2 0.3-0.5 0.6-0.2 0.2-0.6 0.4l-61.9 35.8c-0.9 0.5-1.6 0.3-1.6-0.6q0.1-0.3 0.2-0.7 0.1-0.3 0.3-0.6 0.2-0.4 0.5-0.6 0.3-0.3 0.6-0.5z"/>
		<path class="s1" d="m128.5 198.5l-5.6-3.2q0 0-0.1 0 0 0 0-0.1-0.1 0-0.1 0 0-0.1 0-0.1l-1-1.8 3.3-1.9-0.1 0.3z"/>
		<path class="s9" d="m128.5 198.5l-5.6-3.2q0 0-0.1 0 0 0 0-0.1-0.1 0-0.1 0 0-0.1 0-0.1l-1-1.8 3.3-1.9-0.1 0.3z"/>
		<path class="s1" d="m124.4 191.7l3.9 6.6q0.1 0.2 0.2 0.2 0.1 0.1 0.3 0.1 0.2 0 0.3-0.1 0.1-0.1 0.2-0.3l4-11.7z"/>
		<path class="s1" d="m165.8 138.1q0-0.7-0.2-1.4-0.2-0.7-0.5-1.3-0.4-0.6-0.9-1.1-0.4-0.5-1-0.9l-2.2-1.2q-0.6-0.4-1.3-0.5-0.7-0.2-1.4-0.2-0.7 0-1.4 0.2-0.6 0.1-1.3 0.5l-47.4 27.3q-0.6 0.4-1.1 0.9-0.5 0.5-0.8 1.1-0.4 0.6-0.6 1.3-0.2 0.7-0.2 1.4v26.6q0 0.7 0.2 1.4 0.2 0.7 0.6 1.3 0.3 0.6 0.8 1.1 0.5 0.5 1.1 0.9l2.2 1.2q0.6 0.3 1.3 0.5 0.7 0.2 1.4 0.2 0.7 0 1.3-0.2 0.7-0.2 1.3-0.5l47.7-27.5c2.4-1.4 2.5-2.8 2.5-4.5z"/>
		<path class="s9" d="m105.5 190.8q0 0.7 0.2 1.4 0.2 0.7 0.6 1.3 0.3 0.6 0.8 1.1 0.5 0.5 1.1 0.9l2.2 1.2q0.5 0.3 1.1 0.5 0.7 0.1 1.3 0.2 0.6 0 1.3-0.1 0.6-0.1 1.2-0.4c-1.3 0.5-2.2-0.2-2.2-1.7v-26.7q0-0.3 0-0.7 0.1-0.3 0.2-0.6 0.1-0.4 0.2-0.7 0.2-0.3 0.3-0.6l-7.5-4.4q-0.2 0.3-0.3 0.6-0.2 0.4-0.3 0.7-0.1 0.3-0.1 0.7-0.1 0.3-0.1 0.7z"/>
		<path class="s10" d="m165.8 137.3c-0.4-1.1-1.4-1.5-2.6-0.8l-47.5 27.4q-0.3 0.2-0.5 0.4-0.3 0.2-0.6 0.5-0.2 0.2-0.4 0.5-0.2 0.3-0.4 0.6l-7.5-4.4q0.2-0.3 0.4-0.5 0.2-0.3 0.4-0.6 0.3-0.2 0.5-0.5 0.3-0.2 0.6-0.4l47.4-27.3q0.7-0.4 1.3-0.5 0.7-0.2 1.4-0.2 0.7 0 1.4 0.2 0.7 0.1 1.3 0.5l2.2 1.2q0.5 0.4 0.9 0.8 0.4 0.4 0.8 0.9 0.3 0.5 0.5 1.1 0.3 0.5 0.4 1.1z"/>
		<path class="s3" d="m120.3 177l23.7-13.8c0.9-0.5 1.6-0.2 1.6 0.6q0 0.3-0.2 0.7-0.1 0.4-0.3 0.7-0.2 0.3-0.5 0.5-0.3 0.3-0.6 0.5l-23.8 13.7c-0.9 0.6-1.6 0.3-1.6-0.5q0-0.4 0.2-0.7 0.1-0.4 0.3-0.7 0.2-0.3 0.5-0.6 0.3-0.2 0.7-0.4z"/>
		<path class="s3" d="m120.3 184.4l35-20.4c0.9-0.5 1.6-0.3 1.6 0.5q0 0.4-0.2 0.8-0.1 0.3-0.3 0.6-0.2 0.3-0.5 0.6-0.3 0.2-0.6 0.4l-35 20.3c-0.9 0.6-1.7 0.3-1.7-0.5q0.1-0.3 0.2-0.7 0.1-0.3 0.4-0.7 0.2-0.3 0.4-0.5 0.3-0.3 0.7-0.4z"/>
		<path class="s3" d="m120.3 169.3l35-20.3c0.9-0.5 1.6-0.3 1.6 0.5q0 0.4-0.2 0.8-0.1 0.3-0.3 0.6-0.2 0.3-0.5 0.6-0.3 0.3-0.6 0.4l-35 20.3c-1 0.5-1.7 0.3-1.7-0.5q0.1-0.4 0.2-0.7 0.1-0.4 0.4-0.7 0.2-0.3 0.4-0.6 0.3-0.2 0.7-0.4z"/>
		<path class="s1" d="m265 227.2l-2.4-4.5 1.9-5.5v-3.4l-5.8 3.4v3.4l2.5 4.3q0 0.1 0 0.1 0 0 0.1 0 0 0.1 0 0.1 0 0 0.1 0z"/>
		<path class="s11" d="m265 227.2l-3.6-2.1q0 0-0.1 0 0 0 0-0.1 0 0 0 0-0.1 0-0.1-0.1l-0.7-1.1 1.9-1.1 2.5 4.4q0 0 0 0 0 0 0 0 0.1 0 0.1 0.1 0 0 0 0z"/>
		<path class="s8" d="m274.3 196.7q-0.1-0.5-0.2-0.9-0.1-0.5-0.4-0.8-0.2-0.4-0.5-0.8-0.3-0.3-0.7-0.5l-1.4-0.9q-0.5-0.2-0.9-0.3-0.4-0.1-0.9-0.1-0.5 0-0.9 0.1-0.5 0.1-0.9 0.3l-33.1 19.2q-0.4 0.2-0.7 0.6-0.3 0.3-0.6 0.7-0.2 0.4-0.3 0.8-0.2 0.4-0.2 0.9v17.2q0 0.4 0.2 0.8 0.1 0.5 0.3 0.9 0.3 0.4 0.6 0.7 0.3 0.3 0.7 0.6l1.4 0.8q0.4 0.2 0.9 0.3 0.4 0.1 0.9 0.1 0.4 0 0.9-0.1 0.4-0.1 0.8-0.3l23.1-13.3 2.5 4.3q0.1 0.1 0.2 0.2 0.1 0 0.2 0 0.1 0 0.2-0.1 0 0 0.1-0.1l2.6-7.7 4.3-2.5q0.4-0.2 0.7-0.6 0.3-0.3 0.5-0.7 0.3-0.4 0.4-0.8 0.1-0.5 0.1-0.9z"/>
		<path class="s11" d="m232.6 232.2q0 0.4 0.2 0.8 0.1 0.5 0.3 0.9 0.3 0.3 0.6 0.7 0.3 0.3 0.7 0.6l1.4 0.8q0.4 0.2 0.8 0.3 0.4 0.1 0.8 0.1 0.4 0 0.8-0.1 0.4 0 0.8-0.2c-0.8 0.3-1.4-0.1-1.4-1.1v-17.1q0-0.3 0-0.5 0-0.2 0.1-0.4 0.1-0.3 0.2-0.5 0.1-0.2 0.2-0.4l-5-2.8q-0.1 0.2-0.2 0.4-0.1 0.2-0.1 0.4-0.1 0.2-0.1 0.4-0.1 0.3-0.1 0.5z"/>
		<path class="s12" d="m274.2 196.2c-0.2-0.8-0.9-1-1.7-0.6l-33.2 19.2q-0.2 0.1-0.4 0.3-0.1 0.1-0.3 0.3-0.1 0.1-0.3 0.3-0.1 0.2-0.2 0.4l-5-2.8q0.1-0.2 0.2-0.4 0.2-0.2 0.3-0.4 0.2-0.1 0.3-0.3 0.2-0.1 0.4-0.2l33.2-19.2q0.4-0.2 0.8-0.3 0.5-0.1 0.9-0.1 0.5 0 0.9 0.1 0.5 0.1 0.9 0.3l1.4 0.8q0.4 0.2 0.7 0.5 0.3 0.3 0.5 0.6 0.2 0.3 0.4 0.7 0.1 0.4 0.2 0.8z"/>
		<path class="s3" d="m247.3 218.1q-0.6 0.4-1 0.8-0.4 0.4-0.7 1-0.3 0.5-0.5 1.1-0.2 0.6-0.2 1.2c0 1.5 1 2.1 2.3 1.4q0.6-0.4 1-0.8 0.4-0.5 0.7-1 0.3-0.5 0.5-1.1 0.2-0.6 0.2-1.2c0-1.5-1.1-2.1-2.4-1.4z"/>
		<path class="s3" d="m255.9 213.1q-0.5 0.4-0.9 0.8-0.5 0.4-0.8 1-0.3 0.5-0.4 1.1-0.2 0.6-0.2 1.2c0 1.5 1 2.1 2.3 1.3q0.5-0.3 0.9-0.7 0.5-0.5 0.8-1 0.3-0.5 0.4-1.1 0.2-0.6 0.2-1.2c0-1.5-1-2.1-2.3-1.4z"/>
		<path class="s3" d="m264.6 208.1q-0.6 0.3-1 0.8-0.4 0.4-0.7 1-0.3 0.5-0.5 1.1-0.2 0.6-0.2 1.2c0 1.5 1.1 2.1 2.4 1.3q0.5-0.3 0.9-0.7 0.4-0.5 0.7-1 0.3-0.5 0.5-1.1 0.2-0.6 0.2-1.2c0-1.5-1-2.1-2.3-1.4z"/>
		<path class="s1" d="m259.7 158.5l-3.6-6.8 2.9-8.5v-5.1l-8.9 5.1v5.2l3.8 6.6q0.1 0.1 0.1 0.1 0 0 0.1 0.1 0 0 0 0 0.1 0.1 0.1 0.1z"/>
		<path class="s6" d="m254.2 155.3q-0.1 0-0.1-0.1 0 0-0.1 0 0-0.1 0-0.1-0.1 0-0.1-0.1l-1-1.7 2.8-1.7 3.9 6.7q0 0 0 0 0 0.1 0 0.1 0.1 0 0.1 0 0 0.1 0 0.1z"/>
		<path class="s4" d="m273.8 111.9q-0.1-0.7-0.3-1.3-0.2-0.7-0.5-1.3-0.4-0.6-0.8-1.1-0.5-0.5-1.1-0.9l-2.2-1.3q-0.6-0.3-1.3-0.5-0.7-0.1-1.4-0.1-0.7 0-1.3 0.1-0.7 0.2-1.3 0.5l-67 38.7q-0.6 0.3-1.1 0.8-0.5 0.6-0.8 1.2-0.4 0.6-0.6 1.2-0.2 0.7-0.2 1.4v26.1q0 0.7 0.2 1.4 0.2 0.7 0.6 1.3 0.3 0.6 0.8 1.1 0.5 0.5 1.1 0.9l2.1 1.2q0.7 0.4 1.3 0.5 0.7 0.2 1.4 0.2 0.7 0 1.4-0.2 0.7-0.1 1.3-0.5l51.6-29.7 3.8 6.6q0.1 0.2 0.3 0.2 0.1 0.1 0.3 0.1 0.1 0 0.2-0.1 0.2-0.1 0.2-0.3l4.1-11.7 6.5-3.7q0.5-0.4 1-0.9 0.5-0.5 0.8-1.1 0.4-0.6 0.6-1.3 0.2-0.7 0.2-1.4z"/>
		<path class="s1" d="m210.2 152.7l55.6-32.2c0.9-0.5 1.6-0.3 1.6 0.5q0 0.4-0.1 0.8-0.2 0.3-0.4 0.6-0.2 0.3-0.5 0.6-0.3 0.2-0.6 0.4l-55.6 32.2c-0.9 0.6-1.6 0.3-1.6-0.5q0-0.4 0.1-0.7 0.2-0.4 0.4-0.7 0.2-0.3 0.5-0.5 0.3-0.3 0.6-0.5z"/>
		<path class="s1" d="m210.2 160.1l42.5-24.6c0.9-0.5 1.6-0.2 1.6 0.6q-0.1 0.4-0.2 0.7-0.1 0.4-0.4 0.7-0.2 0.3-0.4 0.5-0.3 0.3-0.6 0.5l-42.5 24.5c-0.9 0.5-1.6 0.3-1.6-0.5q0-0.4 0.1-0.7 0.2-0.4 0.4-0.7 0.2-0.3 0.5-0.6 0.3-0.2 0.6-0.4z"/>
		<path class="s1" d="m210.2 167.4l53.7-31.1c0.9-0.5 1.6-0.2 1.6 0.6q0 0.3-0.1 0.7-0.2 0.4-0.4 0.7-0.2 0.3-0.5 0.5-0.3 0.3-0.6 0.5l-53.7 31.1c-0.9 0.5-1.6 0.2-1.6-0.6q0-0.3 0.1-0.7 0.2-0.3 0.4-0.7 0.2-0.3 0.5-0.5 0.3-0.3 0.6-0.5z"/>
		<path class="s6" d="m193.9 175.5q0 0.7 0.2 1.3 0.2 0.7 0.6 1.3 0.3 0.6 0.8 1.1 0.5 0.5 1.1 0.9l2.1 1.3q0.6 0.3 1.2 0.4 0.6 0.2 1.3 0.2 0.6 0 1.2-0.1 0.7-0.1 1.3-0.3c-1.3 0.5-2.3-0.2-2.3-1.8v-26.1q0-0.4 0.1-0.7 0.1-0.3 0.2-0.7 0.1-0.3 0.2-0.6 0.1-0.4 0.3-0.6l-7.5-4.4q-0.2 0.3-0.3 0.6-0.2 0.3-0.3 0.7-0.1 0.3-0.1 0.6-0.1 0.4-0.1 0.7z"/>
	</g>
	<g id="freepik--Character--inject-193">
	</g>
</svg>